<svg width="44" height="49" viewBox="0 0 44 49" fill="none" xmlns="http://www.w3.org/2000/svg">
<path fill-rule="evenodd" clip-rule="evenodd" d="M15.8664 29.0323C16.7778 29.5076 17.7218 29.9242 18.6267 30.432C19.5576 30.9593 20.5536 31.4085 21.4911 31.9228C23.3399 32.9318 25.1887 33.0555 27.0506 32.1962C28.8083 31.3824 29.915 29.9372 30.3642 28.0298C30.605 27.0012 30.4293 25.9726 30.3511 24.9506C30.3251 24.6576 30.3056 24.3582 30.286 24.0652C30.2405 23.4337 30.1884 22.8088 30.0973 22.1838L29.264 14.0073C29.251 13.6818 29.2119 13.3563 29.1663 13.0308L28.9124 10.5179C28.5609 -0.575089 22.7996 0.12148 22.793 0.12148C21.6668 0.0889298 20.6513 0.381879 19.7529 0.967778L6.04937 9.83438C4.84502 10.6286 3.61463 11.3903 2.44934 12.2431C1.81787 12.7053 1.24499 13.2912 0.847886 13.9812C0.183867 15.14 -0.115592 16.3704 0.0406473 17.7375C0.248967 19.5408 1.0497 20.9469 2.54699 21.943C4.00523 22.9129 5.62622 23.603 7.15606 24.4493" fill="#E05C14"/>
<path fill-rule="evenodd" clip-rule="evenodd" d="M29.5765 28.0623C29.5765 27.0338 29.5179 26.0052 29.5634 24.9701C29.609 23.9025 29.5504 22.8088 29.5765 21.7412C29.6285 19.6384 28.8929 17.9328 27.2784 16.6764C25.7486 15.4851 23.9583 15.1661 22.0574 15.6348C21.0353 15.8887 20.1956 16.5136 19.3232 17.054C19.0693 17.2102 18.8154 17.3664 18.5616 17.5162C18.0277 17.8417 17.4939 18.1737 16.9861 18.5382L10.0986 23.0171C9.81213 23.1799 9.54522 23.3621 9.27831 23.5509L7.15606 24.931C-2.56335 30.3083 0.698151 35.1127 0.698151 35.1192C1.1864 36.1412 1.90901 36.9029 2.83994 37.4367L16.9861 45.5677C18.2491 46.2708 19.486 47.0194 20.775 47.6639C21.478 48.0155 22.2527 48.2563 23.0534 48.2889C24.388 48.3475 25.6184 48.0545 26.7641 47.2863C28.2679 46.2773 29.1598 44.9167 29.3616 43.133C29.5569 41.3948 29.4267 39.6371 29.4788 37.8924" fill="white"/>
<path fill-rule="evenodd" clip-rule="evenodd" d="M27.7536 14.7039C26.9529 14.6908 26.1522 14.7299 25.3515 14.6908C24.5247 14.6453 23.6719 14.6908 22.8386 14.6583C21.2046 14.5997 19.87 15.1596 18.8805 16.403C17.9431 17.5813 17.6762 18.9679 18.0277 20.4522C18.2165 21.2464 18.6982 21.9039 19.1084 22.5874C19.2256 22.7827 19.3427 22.9846 19.4599 23.1799C19.7073 23.603 19.9612 24.0196 20.2476 24.4168L23.6719 29.807C23.7956 30.0284 23.9388 30.2432 24.082 30.4515L25.1366 32.105C29.2314 39.6892 32.9942 37.1959 33.0007 37.1959C33.7949 36.8248 34.4003 36.2714 34.817 35.5488L41.2488 24.6251C41.8087 23.6486 42.4011 22.6981 42.9089 21.6956C43.1888 21.1553 43.3841 20.5498 43.4167 19.9314C43.4753 18.8963 43.2539 17.9393 42.668 17.0409C41.8933 15.8626 40.8452 15.1596 39.4586 14.9903C38.1045 14.8275 36.7439 14.9057 35.3833 14.8536" fill="white"/>
<path opacity="0.8" fill-rule="evenodd" clip-rule="evenodd" d="M27.2784 16.6699C25.7486 15.4785 23.9583 15.1595 22.0574 15.6283C21.0353 15.8822 20.1955 16.5071 19.3232 17.0474C19.0693 17.2037 18.8154 17.3599 18.5615 17.5097C18.0277 17.8352 17.4939 18.1672 16.9861 18.5317L10.0985 23.0106C9.81211 23.1733 9.5452 23.3556 9.27829 23.5444L7.58569 24.6446L15.8794 29.0193C16.7908 29.4945 17.7348 29.9112 18.6397 30.419" fill="#E05C14"/>
<path opacity="0.8" fill-rule="evenodd" clip-rule="evenodd" d="M25.3515 14.6908C24.5247 14.6453 23.6719 14.6908 22.8386 14.6583C21.2046 14.5997 19.87 15.1596 18.8805 16.403C17.9431 17.5813 17.6762 18.9679 18.0277 20.4522C18.2165 21.2464 18.6982 21.9039 19.1084 22.5874C19.2256 22.7827 19.3427 22.9846 19.4599 23.1799C19.7073 23.603 19.9612 24.0196 20.2476 24.4168L23.6719 29.807C23.7956 30.0284 23.9388 30.2432 24.082 30.4515L25.1366 32.105C25.2473 32.3069 25.3515 32.4956 25.4621 32.6844C25.9894 32.5998 26.5167 32.4371 27.0441 32.1897C28.8017 31.3759 29.316 26.5325 29.7717 24.6186C30.0126 23.5965 30.4292 25.9596 30.3511 24.9376C30.3251 24.6446 30.3056 24.3451 30.286 24.0522C30.2405 23.4207 30.1884 22.7958 30.0972 22.1708L29.3356 14.7299L27.7536 14.6973C26.9529 14.6843 26.1522 14.7234 25.3515 14.6843V14.6908Z" fill="#E05C14"/>
<path fill-rule="evenodd" clip-rule="evenodd" d="M29.5765 21.7412C29.6286 19.6384 28.8929 17.9328 27.2784 16.6764C25.7486 15.4851 23.9584 15.1661 22.0574 15.6348C21.0354 15.8887 20.1956 16.5136 19.3232 17.054C19.0694 17.2102 18.8155 17.3664 18.5616 17.5162C18.4184 17.6073 18.2686 17.6919 18.1254 17.7831C17.8455 18.6164 17.8194 19.5147 18.0408 20.4522C18.2296 21.2464 18.7113 21.9039 19.1214 22.5874C19.2386 22.7827 19.3558 22.9846 19.473 23.1799C19.7204 23.603 19.9742 24.0196 20.2607 24.4168L23.6849 29.807C23.8086 30.0284 23.9518 30.2432 24.0951 30.4515L25.1497 32.105C26.7056 34.989 28.2159 36.4147 29.4918 37.0787L29.583 28.0558C29.583 27.0273 29.5244 25.9987 29.57 24.9636C29.6155 23.896 29.5569 22.8023 29.583 21.7346L29.5765 21.7412Z" fill="#DFE1E1"/>
<path fill-rule="evenodd" clip-rule="evenodd" d="M33.3001 12.217C33.3001 13.1935 32.5124 13.9812 31.5359 13.9812C30.5594 13.9812 29.7717 13.1935 29.7717 12.217C29.7717 11.2405 30.5594 10.4528 31.5359 10.4528C32.5124 10.4528 33.3001 11.2405 33.3001 12.217Z" fill="#E05C14"/>
<path fill-rule="evenodd" clip-rule="evenodd" d="M33.2285 38.8429C33.8665 39.6631 33.7168 40.8479 32.8965 41.4859C32.0763 42.1239 30.898 41.9742 30.2535 41.1539C29.6155 40.3337 29.7652 39.1488 30.5855 38.5109C31.4057 37.8729 32.5906 38.0226 33.2285 38.8429Z" fill="white"/>
<path fill-rule="evenodd" clip-rule="evenodd" d="M33.6582 42.6642C34.0554 43.1785 33.9642 43.9142 33.4499 44.3113C32.9356 44.7084 32.2 44.6172 31.8029 44.103C31.4058 43.5887 31.4969 42.853 32.0112 42.4559C32.5255 42.0588 33.2611 42.15 33.6582 42.6642Z" fill="white"/>
<path fill-rule="evenodd" clip-rule="evenodd" d="M33.4499 20.667C33.0463 20.1202 32.4604 19.7751 31.92 19.3845C31.7638 19.2739 31.6075 19.1567 31.4513 19.046C31.1193 18.8051 30.7873 18.5708 30.4423 18.356L26.0415 15.3548C25.8723 15.2246 25.6965 15.1075 25.5142 14.9968L24.1601 14.0724C18.5225 9.60653 16.4588 12.7574 16.4523 12.7574C15.9641 13.3042 15.6841 13.9292 15.606 14.6192L14.2715 25.1133C14.1608 26.0442 14.0241 26.9687 13.959 27.9061C13.9264 28.4139 13.972 28.9347 14.1543 29.4229C14.4537 30.2367 14.9355 30.8942 15.6776 31.3889C16.6606 32.0399 17.6957 32.2287 18.8154 31.9032C19.9026 31.5842 20.9247 31.07 21.9793 30.6663C22.2983 30.5426 22.4871 30.5557 22.6238 30.7965C22.6238 30.7965 22.6433 30.8421 22.6824 30.9137C22.7735 31.1416 22.8907 31.3434 23.0209 31.5387C23.6589 32.6258 25.0455 34.5137 26.9399 34.4552C26.9399 34.4552 25.1106 33.6935 25.8137 30.5231C25.9178 30.2106 26.061 29.9047 26.2563 29.6052C26.6665 28.9737 27.2459 28.5376 27.9034 28.2642C28.5218 28.0103 29.1207 27.7173 29.7522 27.483C30.4032 27.2421 31.0412 26.9361 31.6857 26.6822C32.9551 26.1875 33.7949 25.3216 34.1464 24.0392C34.4785 22.8283 34.2246 21.676 33.4629 20.654L33.4499 20.667Z" fill="#002F3E"/>
</svg>
