<?xml version="1.0" encoding="utf-8"?>
<!-- Generator: Adobe Illustrator 27.5.0, SVG Export Plug-In . SVG Version: 6.00 Build 0)  -->
<svg version="1.1" id="PAYMENT" xmlns="http://www.w3.org/2000/svg" xmlns:xlink="http://www.w3.org/1999/xlink" x="0px" y="0px"
	 viewBox="0 0 3000 3000" style="enable-background:new 0 0 3000 3000;" xml:space="preserve">
<g>
	<defs>
		<rect id="SVGID_1_" width="3000.007" height="3000.007"/>
	</defs>
	<clipPath id="SVGID_00000032649717490961961350000015361929502321516190_">
		<use xlink:href="#SVGID_1_"  style="overflow:visible;"/>
	</clipPath>
	
		<circle style="clip-path:url(#SVGID_00000032649717490961961350000015361929502321516190_);fill:#ACE86D;" cx="1495.678" cy="1463.424" r="1233.539"/>
	
		<g id="hand_1_00000072977668958332199440000011554432516841930900_" style="clip-path:url(#SVGID_00000032649717490961961350000015361929502321516190_);">
		<g>
			<path style="fill:#F7C39F;" d="M546.775,3000.007l197.436-367.041c52.283-56.931,9.192-238.542-13.27-312.503
				c-37.953-124.969-24.902-237.993,6.547-367.319c3.013-12.392,7.908-24.251,10.24-36.79l25.584-137.524
				c7.646-41.103,10.223-82.989,7.673-124.719l-26.768-183.551c-16.014-96.693,91.986-101.757,152.662-38.541
				c6.059,6.313,40.572,59.988,43.092,67.623c27.595,72.429,27.301,112.65,29.595,180.155
				c1.674,49.249,19.923,96.503,51.796,134.084v0c27.015,31.854,44.347,70.774,49.949,112.163l975.974,294.11
				c-145.605,188.403-458.602,414.391-627.714,519.877l-131.818,259.961"/>
		</g>
		<path style="fill:#F7C39F;" d="M1704.897,1846.531c7.026-19.017,35.026-30.564,71.761-29.571
			c41.106,1.111,80.364,8.859,107.095,13.106l253.644,32.89c55.307,10.749,92.085,60.919,82.146,112.057l0,0
			c-9.939,51.139-62.831,83.881-118.138,73.132l-262.08-64.539C1761.263,1953.728,1682.443,1894.958,1704.897,1846.531z"/>
		<path style="fill:#F7C39F;" d="M1711.813,1525.655c7.026-19.017,35.026-30.564,71.761-29.571
			c41.106,1.111,80.364,8.859,107.095,13.106l253.644,32.89c55.307,10.749,92.085,60.919,82.146,112.057v0
			c-9.939,51.139-62.831,83.881-118.138,73.132l-262.081-64.539C1768.179,1632.851,1689.36,1574.081,1711.813,1525.655z"/>
		<path style="fill:#F7C39F;" d="M2230.694,1242.032c-12.073-17.833-41.05-23.487-74.26-14.468
			c-37.162,10.092-70.661,26.538-93.778,36.689l-221.553,88.78c-47.244,23.001-65.847,82.102-41.551,132.007v0
			c24.296,49.905,82.291,71.715,129.535,48.714l219.822-122.844C2211.209,1363.469,2265.597,1286.446,2230.694,1242.032z"/>
	</g>
	<path style="clip-path:url(#SVGID_00000032649717490961961350000015361929502321516190_);fill:#BB9C87;" d="M983.192,1813.882
		c-57.643,281.854-87.098,490.841-30.526,591.36c19.99,35.52,71.486,72.376,91.636,74.805
		c174.076,20.984,288.935,16.831,288.935,16.831c104.676-3.785,451.663-50.303,491.221-50.805"/>
	<g id="phone" style="clip-path:url(#SVGID_00000032649717490961961350000015361929502321516190_);">
		<path style="fill:#3A3A3A;" d="M1912.236,2461.527l-808.095-12.324c-82.243-1.203-147.939-68.849-146.736-151.092L982.758,565.01
			c1.203-82.243,68.849-147.939,151.092-146.736l808.095,12.324c82.243,1.203,147.939,68.849,146.735,151.092l-25.353,1733.101
			C2062.125,2397.034,1994.479,2462.73,1912.236,2461.527z"/>
		<path style="fill:#CFD9E2;" d="M1886.879,2415.921l-765.521-11.84c-67.281-0.984-121.026-56.324-120.041-123.606l24.798-1695.179
			c0.984-67.281,56.324-121.026,123.606-120.042l765.521,11.84c67.281,0.984,121.026,56.324,120.042,123.606l-24.798,1695.179
			C2009.5,2363.161,1954.16,2416.905,1886.879,2415.921z"/>
		<path style="fill:#3A3A3A;" d="M1718.385,450.511l-365.375-5.345c-8.52-0.125-15.528,6.681-15.653,15.201l-0.379,25.878
			c-0.125,8.52,6.681,15.528,8.201,15.653l365.375,5.345c15.52,0.125,22.528-6.681,22.653-15.201l0.378-25.878
			C1733.711,457.643,1726.905,450.635,1718.385,450.511z"/>
		<g>
			<g id="pay">
				<path style="fill:#A5B2BF;" d="M1745.086,1959.08l-432.964-6.352c-30.207-0.443-55.055,23.686-55.498,53.893l-0.762,51.937
					c-0.443,30.208,23.685,55.055,53.893,55.498l432.964,6.352c30.207,0.443,55.055-23.686,55.498-53.893l0.762-51.937
					C1799.422,1984.37,1775.293,1959.523,1745.086,1959.08z"/>
				<path style="fill:#8FD665;" d="M1736.331,1935.363l-432.964-6.352c-30.207-0.443-55.055,23.686-55.498,53.893l-0.762,51.937
					c-0.443,30.207,23.686,55.055,53.893,55.498l432.964,6.352c30.207,0.443,55.055-23.686,55.498-53.893l0.762-51.937
					C1790.667,1960.653,1766.538,1935.806,1736.331,1935.363z"/>
				<g>
					<path style="fill:#FFFFFF;" d="M1423.204,2059.191l-3.256-0.048c-3.42-0.05-6.152-2.864-6.102-6.284l1.027-69.988
						c0.086-5.861,4.907-10.543,10.768-10.457l24.931,0.366c10.131,0.148,17.607,2.813,22.428,7.992
						c4.822,5.18,7.181,11.246,7.079,18.197c-0.117,7.927-2.86,14.311-8.23,19.15c-5.372,4.84-12.126,7.2-20.266,7.081
						l-21.682-0.318l-0.414,28.206C1429.438,2056.509,1426.625,2059.241,1423.204,2059.191z M1430.099,2011.466l18.504,0.272
						c4.833,0.071,8.538-1.062,11.116-3.4c2.578-2.335,3.896-5.476,3.953-9.418c0.052-3.561-1.079-6.629-3.394-9.206
						c-2.315-2.578-6.546-3.913-12.692-4.003l-17.104-0.251L1430.099,2011.466z"/>
					<path style="fill:#FFFFFF;" d="M1545.24,2060.981l-3.201-0.047c-2.754-0.041-5.175-1.836-6.012-4.46l-5.226-16.374
						l-33.382-0.489l-5.769,16.696c-0.798,2.309-2.988,3.845-5.431,3.81l-1.421-0.021c-3.858-0.057-6.529-3.874-5.26-7.519
						l25.287-72.613c1.321-3.794,4.924-6.315,8.941-6.256l5.834,0.086c4.005,0.059,7.526,2.67,8.744,6.486l23.097,72.342
						C1552.772,2056.795,1549.62,2061.045,1545.24,2060.981z M1526.787,2027.512l-12.085-38.909l-13.221,38.538L1526.787,2027.512z"
						/>
					<path style="fill:#FFFFFF;" d="M1584.397,2061.556l-1.804-0.026c-4.084-0.06-7.347-3.42-7.287-7.504l0.428-29.23
						l-23.179-40.683c-2.498-4.385,0.716-9.824,5.763-9.75l3.763,0.055c2.333,0.034,4.47,1.312,5.604,3.352l18.244,32.804
						l18.651-32.728c0.978-1.716,2.812-2.764,4.787-2.735l2.561,0.038c4.139,0.061,6.683,4.553,4.608,8.134l-24.205,41.757
						l-0.429,29.23C1591.842,2058.353,1588.482,2061.616,1584.397,2061.556z"/>
				</g>
			</g>
			<path style="fill:#B4E296;" d="M1301.838,1949.547c0.151-0.038,0.297-0.11,0.448-0.141l18.568-3.762
				c0.564-0.114,0.853-0.817,0.433-1.052l-13.689-2.65c-6.603-0.589-13.813-0.151-20.078,4.5
				c-12.911,9.587-16.287,14.544-21.687,27.112l-3.087,9.153c-1.52,2.372-0.879,4.834,1.839,1.37
				c0.098-0.125,0.228-0.228,0.324-0.355l11.917-15.813c0.002-0.002,0.004-0.004,0.006-0.007c3.078-3.392,6.932-8.284,10.383-11.374
				C1290.766,1953.35,1296.43,1950.902,1301.838,1949.547z"/>
		</g>
	</g>
	<g id="CARD" style="clip-path:url(#SVGID_00000032649717490961961350000015361929502321516190_);">
		<path style="fill:#A5B2BF;" d="M1670.21,1750.075l-656.862-292.054c4.238-129.37-60.679-120.106-39.398-168.019l-22.793-600.961
			c21.292-47.94,77.424-69.532,125.355-48.22l907.287,403.397c47.905,21.299,69.482,77.393,48.202,125.306l-236.435,532.331
			C1774.273,1749.794,1718.141,1771.386,1670.21,1750.075z"/>
		<path style="fill:#4E62AC;" d="M1645.27,1701.578l-907.287-403.397c-47.905-21.299-69.482-77.393-48.202-125.306l236.435-532.331
			c21.292-47.94,77.424-69.532,125.355-48.221l907.287,403.397c47.905,21.299,69.482,77.393,48.202,125.306l-236.435,532.331
			C1749.333,1701.297,1693.201,1722.89,1645.27,1701.578z"/>
		<path style="fill:#DFE3E5;" d="M1128.761,886.861l-162.609-72.299c-16.974-7.547-24.62-27.422-17.079-44.399l38.142-85.876
			c7.544-16.986,27.433-24.637,44.417-17.086l162.609,72.299c16.974,7.547,24.62,27.422,17.079,44.399l-38.142,85.876
			C1165.634,886.762,1145.745,894.413,1128.761,886.861z"/>
		<path style="fill:#DFE3E5;" d="M998.644,1102.024l-61.772-27.465c-2.396-1.065-3.475-3.871-2.411-6.267l23.17-52.167
			c1.065-2.398,3.872-3.478,6.27-2.412l61.772,27.465c2.396,1.065,3.475,3.871,2.411,6.267l-23.17,52.167
			C1003.849,1102.01,1001.041,1103.09,998.644,1102.024z"/>
		<path style="fill:#DFE3E5;" d="M894.221,1055.595l-61.772-27.465c-2.396-1.065-3.475-3.871-2.411-6.267l23.17-52.167
			c1.065-2.398,3.872-3.478,6.27-2.412l61.772,27.465c2.396,1.065,3.475,3.871,2.411,6.267l-23.17,52.167
			C899.426,1055.581,896.618,1056.661,894.221,1055.595z"/>
		<path style="fill:#DFE3E5;" d="M1097.568,1146.008l-61.772-27.465c-2.396-1.065-3.475-3.871-2.411-6.267l23.17-52.167
			c1.065-2.398,3.872-3.478,6.27-2.412l61.772,27.465c2.396,1.065,3.475,3.871,2.411,6.267l-23.17,52.167
			C1102.773,1145.994,1099.966,1147.073,1097.568,1146.008z"/>
		<path style="fill:#DFE3E5;" d="M1195.946,1189.748l-61.772-27.465c-2.396-1.065-3.475-3.871-2.411-6.267l23.17-52.167
			c1.065-2.398,3.872-3.478,6.27-2.412l61.772,27.465c2.396,1.065,3.475,3.871,2.411,6.267l-23.17,52.167
			C1201.15,1189.734,1198.343,1190.814,1195.946,1189.748z"/>
		
			<ellipse transform="matrix(0.7071 -0.7071 0.7071 0.7071 -342.1383 1511.5378)" style="fill:#85B744;" cx="1653.518" cy="1168.766" rx="181.014" ry="181.014"/>
		
			<ellipse transform="matrix(0.7071 -0.7071 0.7071 0.7071 -335.4735 1493.6104)" style="fill:#99DD57;" cx="1635.21" cy="1151.757" rx="181.014" ry="181.014"/>
		<path style="fill:#85B744;" d="M1563.268,1215.601l-36.599-75.282c-5.844-11.392-0.628-25.276,11.248-29.942l23.291-9.544
			c6.922-2.719,14.833-0.196,18.937,6.04l22.864,42.245c7.273,11.05,21.256,15.573,33.561,10.855l80.457-28.919
			c12.547-4.811,26.71,1.232,31.972,13.641l9.544,25.099c5.264,12.413-5.157,22.235-18.116,25.836l-125.387,41.001
			C1598.171,1241.319,1571.283,1231.223,1563.268,1215.601z"/>
		<path style="fill:#EEEFED;" d="M1563.268,1198.811l-36.599-75.282c-5.844-11.392-0.628-25.276,11.248-29.942l23.291-9.544
			c6.922-2.719,14.833-0.196,18.937,6.04l22.864,42.245c7.273,11.05,21.256,15.573,33.561,10.855l80.457-28.919
			c12.547-4.811,26.71,1.232,31.972,13.641l9.544,25.099c5.264,12.413-5.157,22.234-18.116,25.836l-125.387,41.001
			C1598.171,1224.529,1571.283,1214.433,1563.268,1198.811z"/>
	</g>
	<g id="finger" style="clip-path:url(#SVGID_00000032649717490961961350000015361929502321516190_);">
		<path style="fill:#F7C39F;" d="M2048.032,1797.24c12.174,9.119,28.725,9.62,42.41,1.272c15.313-9.341,26.61-21.992,34.815-30.032
			l81.535-72.161c15.999-17.73,5.233-53.521-24.046-79.941l0,0c-29.279-26.42-65.984-33.464-81.983-15.734l-69.046,91.606
			C2016.454,1725.48,2015.272,1774.988,2048.032,1797.24z"/>
		<path style="fill:#F7C39F;" d="M2044.984,2114.175c12.174,9.119,28.725,9.62,42.41,1.272c15.313-9.341,26.61-21.992,34.815-30.032
			l81.535-72.161c15.999-17.73,5.233-53.521-24.046-79.941l0,0c-29.279-26.42-65.984-33.464-81.983-15.734l-69.046,91.606
			C2013.407,2042.415,2012.224,2091.923,2044.984,2114.175z"/>
	</g>
</g>
</svg>
