<?xml version="1.0" encoding="utf-8"?>
<!-- Generator: Adobe Illustrator 27.5.0, SVG Export Plug-In . SVG Version: 6.00 Build 0)  -->
<svg version="1.1" id="Layer_1" xmlns="http://www.w3.org/2000/svg" xmlns:xlink="http://www.w3.org/1999/xlink" x="0px" y="0px"
	 viewBox="0 0 3600 2600" style="enable-background:new 0 0 3600 2600;" xml:space="preserve">
<rect x="0" y="0" style="fill:#FFFFFF;" width="3600" height="2600"/>
<g>
	<g>
		<path style="fill:#E6F1F2;" d="M382.455,2419.908C-71.156,1111.348,825.808,574.258,1403.733,436.721
			c808.833-192.489,283.566,841.722,1332.558,1032.687c406.922,74.079,645.385,489.349,491.29,950.5H382.455z"/>
		<path style="fill:#E6F1F2;" d="M3050.557,1193.611c72.298-304.336-462.571-807.79-814.141-705.82s-39.665,628.697,205.006,753.074
			C2786.789,1416.431,3020.293,1321.003,3050.557,1193.611z"/>
		<path style="fill:#979998;" d="M3360.702,2390.653c0,25.215-15.908,45.668-35.531,45.668H274.865
			c-9.812,0-18.721-5.086-25.142-13.383c-6.421-8.26-10.425-19.659-10.425-32.285c0-25.215,15.908-45.668,35.567-45.668H3325.17
			c9.812,0,18.721,5.086,25.142,13.347C3356.734,2366.628,3360.702,2378.027,3360.702,2390.653z"/>
		<path style="fill:#A9C1C3;" d="M2451.896,1435.425c-3.74,0.793-7.481,1.511-11.216,2.156l-0.668-3.853
			c7.722-1.34,15.49-3,23.079-4.934l0.967,3.789C2460.042,1433.611,2455.987,1434.558,2451.896,1435.425z M2416.978,1440.707
			c-7.904,0.722-15.937,1.13-23.875,1.214l-0.04-3.912c7.833-0.081,15.76-0.484,23.558-1.197L2416.978,1440.707z M2486.963,1425.746
			l-1.268-3.698c7.422-2.545,14.822-5.417,21.989-8.541l1.564,3.585C2501.983,1420.258,2494.486,1423.17,2486.963,1425.746z
			 M2369.206,1441.2c-7.92-0.559-15.915-1.453-23.764-2.656l0.594-3.867c7.742,1.186,15.631,2.068,23.444,2.622L2369.206,1441.2z
			 M2530.761,1406.66l-1.847-3.447c6.904-3.7,13.741-7.732,20.323-11.979l2.122,3.287
			C2544.688,1398.826,2537.758,1402.911,2530.761,1406.66z M2321.959,1433.972c-7.723-1.833-15.474-4.007-23.036-6.461l1.207-3.719
			c7.463,2.421,15.112,4.566,22.732,6.373L2321.959,1433.972z M2570.891,1380.767l-2.379-3.104
			c6.207-4.759,12.304-9.837,18.122-15.095l2.622,2.904C2583.36,1370.798,2577.183,1375.945,2570.891,1380.767z M2276.488,1419.218
			c-7.331-3.05-14.629-6.435-21.693-10.065l1.789-3.479c6.969,3.581,14.173,6.924,21.407,9.934L2276.488,1419.218z
			 M2606.334,1348.741l-2.848-2.68c5.368-5.698,10.574-11.69,15.474-17.808l3.052,2.446
			C2617.048,1336.899,2611.772,1342.969,2606.334,1348.741z M2233.979,1397.384c-6.751-4.182-13.414-8.687-19.804-13.393
			l2.319-3.151c6.306,4.644,12.881,9.091,19.544,13.218L2233.979,1397.384z M2636.197,1311.453l-3.239-2.191
			c4.397-6.494,8.582-13.242,12.44-20.055l3.403,1.926C2644.893,1298.039,2640.652,1304.875,2636.197,1311.453z M2195.504,1369.053
			c-6-5.206-11.857-10.718-17.408-16.378l2.793-2.739c5.479,5.588,11.259,11.026,17.179,16.165L2195.504,1369.053z
			 M2659.744,1269.868l-3.547-1.65c3.309-7.12,6.363-14.45,9.079-21.785l3.669,1.358
			C2666.191,1255.224,2663.095,1262.65,2659.744,1269.868z M2162.06,1334.95c-5.086-6.099-9.981-12.476-14.551-18.954l3.196-2.255
			c4.51,6.393,9.34,12.686,14.358,18.706L2162.06,1334.95z M2676.337,1225.046l-3.766-1.06c2.123-7.542,3.96-15.27,5.466-22.967
			l3.837,0.752C2680.351,1209.569,2678.487,1217.401,2676.337,1225.046z M2134.541,1295.932
			c-4.033-6.833-7.837-13.922-11.307-21.065l3.519-1.71c3.423,7.049,7.177,14.043,11.158,20.788L2134.541,1295.932z
			 M2685.511,1178.118l-3.888-0.437c0.875-7.776,1.44-15.693,1.68-23.532l3.91,0.12
			C2686.969,1162.214,2686.397,1170.238,2685.511,1178.118z M2113.672,1252.952c-2.879-7.404-5.493-15.011-7.762-22.608l3.75-1.119
			c2.239,7.497,4.817,15.003,7.66,22.31L2113.672,1252.952z M2686.979,1130.36l-3.905,0.199c-0.396-7.831-1.115-15.735-2.135-23.494
			l3.879-0.51C2685.851,1114.417,2686.579,1122.427,2686.979,1130.36z M2103.797,1206.371l-3.826,0.811l-0.148-0.701
			c-1.651-7.791-3.005-15.719-4.025-23.562l3.879-0.506c1.006,7.742,2.342,15.567,3.972,23.257L2103.797,1206.371z
			 M2676.942,1083.817c-1.642-7.692-3.604-15.385-5.832-22.867l3.75-1.115c2.256,7.579,4.244,15.373,5.907,23.167L2676.942,1083.817
			z M2097.573,1158.918l-3.907,0.192c-0.388-7.932-0.457-15.974-0.203-23.906l3.907,0.125
			C2097.122,1143.155,2097.189,1151.09,2097.573,1158.918z M2663.473,1038.629c-2.828-7.3-5.994-14.578-9.409-21.633l3.521-1.703
			c3.461,7.148,6.67,14.525,9.536,21.922L2663.473,1038.629z M2099.079,1111.798l-3.885-0.442
			c0.893-7.881,2.126-15.836,3.662-23.649l3.838,0.756C2101.178,1096.17,2099.963,1104.022,2099.079,1111.798z M2642.931,996.198
			c-3.966-6.736-8.262-13.403-12.771-19.813l3.201-2.252c4.569,6.497,8.924,13.255,12.941,20.082L2642.931,996.198z
			 M2108.186,1065.505l-3.763-1.065c2.158-7.642,4.655-15.291,7.422-22.738l3.666,1.363
			C2112.781,1050.414,2110.316,1057.962,2108.186,1065.505z M2615.827,957.66c-5.006-6.018-10.323-11.91-15.803-17.507l2.796-2.736
			c5.552,5.674,10.94,11.642,16.015,17.744L2615.827,957.66z M2124.616,1021.292l-3.544-1.654
			c3.357-7.201,7.046-14.351,10.966-21.251l3.4,1.931C2131.571,1007.128,2127.93,1014.184,2124.616,1021.292z M2582.863,923.965
			c-5.919-5.147-12.112-10.113-18.407-14.761l2.324-3.148c6.379,4.71,12.654,9.741,18.649,14.956L2582.863,923.965z
			 M2147.902,980.277l-3.234-2.196c4.456-6.565,9.237-13.033,14.208-19.229l3.05,2.45
			C2157.021,967.414,2152.302,973.8,2147.902,980.277z M2544.925,895.962c-6.657-4.136-13.563-8.053-20.528-11.641l1.79-3.476
			c7.059,3.635,14.057,7.602,20.802,11.794L2544.925,895.962z M2177.423,943.512l-2.845-2.685
			c5.447-5.768,11.198-11.389,17.096-16.703l2.619,2.905C2188.473,932.274,2182.796,937.821,2177.423,943.512z M2502.998,874.362
			c-7.247-3.025-14.693-5.787-22.129-8.209l1.211-3.72c7.537,2.456,15.081,5.256,22.426,8.318L2502.998,874.362z M2212.432,911.959
			l-2.377-3.108c6.299-4.816,12.876-9.437,19.551-13.735l2.118,3.288C2225.137,902.646,2218.646,907.206,2212.432,911.959z
			 M2458.147,859.753c-7.621-1.819-15.416-3.347-23.168-4.543l0.598-3.867c7.855,1.213,15.755,2.762,23.478,4.606L2458.147,859.753z
			 M2252.064,886.452l-1.844-3.451c7.001-3.739,14.244-7.24,21.528-10.402l1.557,3.586
			C2266.119,879.308,2258.971,882.761,2252.064,886.452z M2411.534,852.56c-7.803-0.562-15.738-0.812-23.578-0.739l-0.036-3.912
			c7.948-0.072,15.986,0.179,23.897,0.75L2411.534,852.56z M2295.305,867.672l-1.265-3.703c7.501-2.56,15.209-4.851,22.914-6.81
			l0.963,3.79C2310.315,862.882,2302.706,865.145,2295.305,867.672z M2364.395,852.987c-7.791,0.702-15.664,1.73-23.395,3.056
			l-0.661-3.854c7.835-1.344,15.81-2.386,23.702-3.098L2364.395,852.987z"/>
		<path style="fill:#FFFFFF;" d="M2814.429,1983.653c-9.985-0.719-19.977-2.197-29.697-4.386l1.083-4.807
			c9.482,2.136,19.229,3.575,28.97,4.28L2814.429,1983.653z M2844.448,1983.605l-0.371-4.913c9.735-0.736,19.477-2.209,28.951-4.379
			l1.102,4.802C2864.416,1981.341,2854.428,1982.852,2844.448,1983.605z M2756,1970.471c-9.303-3.635-18.413-8.012-27.078-13.007
			l2.461-4.268c8.451,4.872,17.336,9.14,26.412,12.684L2756,1970.471z M2902.81,1970.23l-1.809-4.586
			c9.047-3.568,17.91-7.86,26.341-12.754l2.473,4.263C2921.17,1962.17,2912.085,1966.571,2902.81,1970.23z M2704.093,1940.572
			c-7.815-6.217-15.23-13.077-22.041-20.388l3.607-3.359c6.644,7.134,13.879,13.825,21.502,19.893L2704.093,1940.572z
			 M2954.577,1940.191l-3.08-3.85c7.596-6.078,14.811-12.79,21.442-19.95l3.614,3.349
			C2969.757,1927.079,2962.363,1933.96,2954.577,1940.191z M2663.28,1896.763c-5.653-8.24-10.726-16.969-15.08-25.944l4.434-2.151
			c4.245,8.753,9.194,17.268,14.709,25.309L2663.28,1896.763z M2995.262,1896.251l-4.071-2.776
			c5.488-8.053,10.413-16.589,14.638-25.373l4.441,2.136C3005.94,1879.243,3000.89,1887.994,2995.262,1896.251z M2637.169,1842.891
			c-2.958-9.532-5.218-19.378-6.718-29.262l4.872-0.741c1.462,9.643,3.667,19.245,6.552,28.54L2637.169,1842.891z
			 M3021.218,1842.261l-4.711-1.444c2.854-9.311,5.026-18.921,6.455-28.561l4.875,0.722
			C3026.372,1822.864,3024.144,1832.714,3021.218,1842.261z M2633.099,1783.687h-4.927l-0.001-0.409
			c0-10.045,0.746-20.116,2.215-29.954l4.875,0.727c-1.435,9.6-2.162,19.426-2.162,29.206L2633.099,1783.687z M3025.092,1783.045
			c-0.01-9.78-0.748-19.606-2.194-29.206l4.875-0.736c1.482,9.841,2.238,19.914,2.247,29.938L3025.092,1783.045z M2641.747,1725.493
			l-4.708-1.448c2.94-9.552,6.635-18.962,10.979-27.965l4.439,2.141C2648.219,1707.004,2644.615,1716.18,2641.747,1725.493z
			 M3016.38,1725.289c-2.873-9.297-6.482-18.464-10.731-27.248l4.437-2.146c4.355,9.008,8.055,18.408,11,27.941L3016.38,1725.289z
			 M2667.124,1672.86l-4.068-2.781c5.626-8.238,11.929-16.135,18.733-23.466l3.611,3.349
			C2678.763,1657.118,2672.613,1664.822,2667.124,1672.86z M2990.968,1672.716c-5.498-8.036-11.65-15.73-18.288-22.871l3.609-3.354
			c6.804,7.319,13.11,15.206,18.745,23.444L2990.968,1672.716z M2706.862,1630.034l-3.075-3.849
			c7.806-6.236,16.144-11.934,24.779-16.933l2.469,4.263C2722.612,1618.391,2714.478,1623.949,2706.862,1630.034z M2951.197,1629.93
			c-7.62-6.08-15.762-11.633-24.199-16.507l2.464-4.268c8.649,4.997,16.998,10.69,24.811,16.921L2951.197,1629.93z
			 M2757.393,1600.791l-1.805-4.586c9.299-3.657,18.952-6.636,28.691-8.854l1.092,4.802
			C2775.875,1594.319,2766.461,1597.223,2757.393,1600.791z M2900.597,1600.709c-9.075-3.558-18.502-6.455-28.01-8.609l1.087-4.807
			c9.751,2.211,19.414,5.18,28.723,8.83L2900.597,1600.709z M2814.333,1587.806l-0.366-4.913c5.014-0.375,10.107-0.479,15.129-0.561
			c4.963,0,9.973,0.183,14.883,0.544l-0.361,4.913c-4.824-0.354-9.742-0.525-14.616-0.529
			C2824.13,1587.26,2819.195,1587.443,2814.333,1587.806z"/>
		<path style="fill:#FFFFFF;" d="M839.144,1877.319l-0.009-6.195c12.288-0.021,24.702-0.547,36.898-1.564l0.514,6.171
			C864.185,1876.765,851.602,1877.298,839.144,1877.319z M801.743,1875.867c-12.432-0.995-24.935-2.514-37.161-4.516l1.001-6.116
			c12.058,1.978,24.39,3.476,36.653,4.456L801.743,1875.867z M913.691,1871.082l-1.022-6.11c12.102-2.027,24.259-4.585,36.131-7.601
			l1.528,6.001C938.289,1866.433,925.963,1869.028,913.691,1871.082z M727.919,1863.774c-12.076-3.025-24.159-6.591-35.909-10.599
			l1.999-5.862c11.589,3.953,23.504,7.468,35.416,10.454L727.919,1863.774z M986.195,1852.643l-2.021-5.856
			c11.585-3.999,23.143-8.536,34.349-13.478l2.501,5.668C1009.66,1843.989,997.942,1848.587,986.195,1852.643z M657.083,1839.621
			c-11.378-4.97-22.708-10.493-33.675-16.409l2.943-5.451c10.815,5.835,21.99,11.282,33.212,16.186L657.083,1839.621z
			 M1054.61,1822.462l-2.961-5.439c10.765-5.859,21.418-12.244,31.668-18.974l3.4,5.179
			C1076.326,1810.051,1065.523,1816.521,1054.61,1822.462z M591.212,1804.068c-10.408-6.785-20.671-14.093-30.505-21.727
			l3.799-4.894c9.699,7.529,19.821,14.74,30.087,21.431L591.212,1804.068z M1117.133,1781.406l-3.814-4.882
			c9.657-7.547,19.123-15.596,28.135-23.92l4.204,4.549C1136.521,1765.596,1126.923,1773.754,1117.133,1781.406z M532.097,1758.182
			c-9.157-8.406-18.082-17.296-26.527-26.427l4.549-4.204c8.329,9.008,17.134,17.777,26.167,26.065L532.097,1758.182z
			 M1172.098,1730.644l-4.561-4.192c8.291-9.026,16.314-18.515,23.847-28.203l4.891,3.802
			C1188.639,1711.873,1180.504,1721.494,1172.098,1730.644z M481.302,1703.249c-7.669-9.8-15.017-20.03-21.839-30.402l5.175-3.406
			c6.73,10.233,13.978,20.323,21.543,29.991L481.302,1703.249z M1218.022,1671.561l-5.188-3.388
			c6.714-10.287,13.07-20.968,18.896-31.745l5.451,2.946C1231.273,1650.303,1224.828,1661.132,1218.022,1671.561z M440.208,1640.745
			c-5.95-10.916-11.512-22.211-16.534-33.572l5.665-2.505c4.953,11.207,10.44,22.347,16.307,33.112L440.208,1640.745z
			 M1253.61,1605.706l-5.674-2.486c4.918-11.234,9.424-22.819,13.392-34.434l5.862,2.002
			C1263.165,1582.566,1258.596,1594.312,1253.61,1605.706z M409.987,1572.355c-4.061-11.748-7.678-23.814-10.751-35.865l6.004-1.531
			c3.029,11.884,6.597,23.784,10.603,35.369L409.987,1572.355z M1277.809,1534.887l-6.007-1.506
			c2.984-11.89,5.505-24.056,7.492-36.155l6.113,1.004C1283.393,1510.498,1280.836,1522.83,1277.809,1534.887z M391.506,1499.86
			c-2.057-12.238-3.628-24.734-4.672-37.141l6.174-0.52c1.029,12.238,2.579,24.564,4.608,36.633L391.506,1499.86z M1289.945,1461.07
			l-6.174-0.496c0.966-12.002,1.456-24.234,1.456-36.355v-0.548h6.195v0.548C1291.423,1436.506,1290.925,1448.905,1289.945,1461.07z
			 M385.22,1425.32l-0.001-1.101c0-12.468,0.511-25.048,1.522-37.395l6.174,0.502c-0.995,12.181-1.5,24.595-1.5,36.893l0.001,1.077
			L385.22,1425.32z M1283.682,1386.779c-1.013-12.229-2.548-24.558-4.564-36.642l6.11-1.016c2.043,12.25,3.601,24.749,4.628,37.144
			L1283.682,1386.779z M397.434,1350.681l-6.113-1.01c2.031-12.266,4.602-24.598,7.644-36.651l6.007,1.518
			C401.972,1326.425,399.435,1338.585,397.434,1350.681z M1271.535,1314.002c-3.013-11.881-6.565-23.787-10.559-35.384l5.856-2.015
			c4.05,11.757,7.653,23.829,10.708,35.874L1271.535,1314.002z M415.488,1279.142l-5.859-2.008
			c4.032-11.757,8.615-23.5,13.622-34.903l5.671,2.492C423.984,1255.969,419.465,1267.548,415.488,1279.142z M1247.519,1244.263
			c-4.938-11.21-10.41-22.356-16.266-33.133l5.442-2.958c5.939,10.926,11.487,22.229,16.493,33.593L1247.519,1244.263z
			 M445.168,1211.535l-5.446-2.952c5.926-10.932,12.385-21.751,19.197-32.159l5.184,3.394
			C457.384,1190.083,451.014,1200.755,445.168,1211.535z M1212.299,1179.451c-6.712-10.239-13.947-20.339-21.503-30.018l4.882-3.811
			c7.662,9.812,14.997,20.051,21.802,30.429L1212.299,1179.451z M485.59,1149.763l-4.885-3.805
			c7.638-9.803,15.785-19.413,24.21-28.569l4.558,4.198C501.162,1130.616,493.126,1140.096,485.59,1149.763z M1166.891,1121.285
			c-8.314-9.011-17.107-17.792-26.135-26.095l4.192-4.561c9.154,8.418,18.068,17.32,26.495,26.458L1166.891,1121.285z
			 M535.585,1095.465l-4.198-4.555c9.136-8.418,18.743-16.567,28.552-24.216l3.811,4.882
			C554.073,1079.125,544.596,1087.162,535.585,1095.465z M1112.561,1071.322c-9.69-7.541-19.803-14.764-30.06-21.467l3.388-5.185
			c10.401,6.797,20.653,14.117,30.478,21.763L1112.561,1071.322z M593.777,1050.094l-3.394-5.184
			c10.411-6.818,21.222-13.276,32.131-19.195l2.955,5.445C614.709,1036.996,604.046,1043.366,593.777,1050.094z M1050.77,1030.941
			c-10.791-5.841-21.958-11.3-33.194-16.228l2.486-5.674c11.393,4.997,22.716,10.532,33.657,16.452L1050.77,1030.941z
			 M658.612,1014.909l-2.492-5.668c11.363-5,23.087-9.583,34.846-13.624l2.014,5.856
			C681.382,1005.46,669.82,1009.982,658.612,1014.909z M983.143,1001.298c-11.594-3.971-23.504-7.505-35.4-10.496l1.512-6.007
			c12.061,3.034,24.139,6.615,35.896,10.641L983.143,1001.298z M728.366,990.938l-1.518-6.007c12.031-3.043,24.36-5.62,36.645-7.665
			l1.016,6.11C752.392,985.394,740.232,987.938,728.366,990.938z M911.592,983.288c-12.067-1.99-24.398-3.503-36.648-4.495
			l0.502-6.177c12.418,1.01,24.92,2.544,37.153,4.561L911.592,983.288z M801.148,978.839l-0.508-6.177
			c12.364-1.016,24.948-1.534,37.404-1.54l0.003,6.195C825.759,977.323,813.346,977.835,801.148,978.839z"/>
		<g>
			<path style="fill:#363B39;" d="M1149.457,715.411v1552.568c0,42.529,34.477,77.006,77.005,77.006h1067.309
				c42.529,0,77.006-34.477,77.006-77.006V715.411c0-42.529-34.477-77.006-77.006-77.006H1226.462
				C1183.933,638.406,1149.457,672.882,1149.457,715.411z"/>
			<rect x="1229.96" y="723.754" style="fill:#E9EDEC;" width="1060.212" height="1535.892"/>
			<path style="fill:#FFFFFF;" d="M2223.038,824.035V2153.87c0,32.318-26.203,58.579-58.579,58.579h-808.685
				c-32.376,0-58.579-26.261-58.579-58.579V824.035c0-32.376,26.203-58.579,58.579-58.579h808.685
				C2196.835,765.456,2223.038,791.659,2223.038,824.035z"/>
			<path style="fill:#82ACB0;" d="M2223.038,824.035v11.703h-925.842v-11.703c0-32.376,26.203-58.579,58.579-58.579h808.685
				C2196.835,765.456,2223.038,791.659,2223.038,824.035z"/>
			<path style="fill:#FFFFFF;" d="M1370.173,786.647l-8.738,9.022l-9.022-8.738c-1.737-1.682-4.509-1.638-6.192,0.099l-1.122,1.159
				c-1.682,1.737-1.638,4.509,0.099,6.192l9.022,8.738l-8.738,9.022c-1.682,1.737-1.638,4.509,0.099,6.192l1.159,1.122
				c1.737,1.682,4.509,1.638,6.192-0.099l8.738-9.022l9.022,8.738c1.737,1.682,4.509,1.638,6.192-0.099l1.122-1.159
				c1.682-1.737,1.638-4.509-0.099-6.192l-9.022-8.738l8.738-9.022c1.682-1.737,1.638-4.509-0.099-6.192l-1.159-1.122
				C1374.628,784.866,1371.856,784.91,1370.173,786.647z"/>
			<rect x="1357.301" y="928.334" style="fill:#ECC887;" width="792.826" height="55.978"/>
			<rect x="1357.301" y="1091.876" style="fill:#A9C1C3;" width="233.269" height="27.989"/>
			<rect x="1357.301" y="1290.684" style="fill:#A9C1C3;" width="233.269" height="27.989"/>
			<rect x="1357.301" y="1491.699" style="fill:#A9C1C3;" width="233.269" height="27.989"/>
			<path style="fill:#ECC887;" d="M2152.365,1248.617h-490.37v-158.978h490.37V1248.617z M1666.473,1244.139h481.414v-150.022
				h-481.414V1244.139z"/>
			<path style="fill:#ECC887;" d="M2152.365,1447.423h-490.37v-158.978h490.37V1447.423z M1666.473,1442.945h481.414v-150.022
				h-481.414V1442.945z"/>
			<path style="fill:#ECC887;" d="M2152.365,1646.234h-490.37v-158.978h490.37V1646.234z M1666.473,1641.755h481.414v-150.022
				h-481.414V1641.755z"/>
			<rect x="1357.301" y="1153.266" style="fill:#FFE6BA;" width="233.269" height="93.111"/>
			<rect x="1357.301" y="1352.074" style="fill:#FFE6BA;" width="233.269" height="93.111"/>
			<rect x="1357.301" y="1550.882" style="fill:#FFE6BA;" width="233.269" height="93.111"/>
			<path style="fill:#A9C1C3;" d="M2152.365,2139.328h-793.053v-432.997h793.053V2139.328z M1363.79,2134.85h784.097v-424.04
				H1363.79V2134.85z"/>
			<rect x="1378.172" y="1722.005" style="fill:#A9C1C3;" width="755.334" height="22.391"/>
		</g>
		<g>
			<path style="fill:#FFB5AD;" d="M2938.706,1774.037c4.544,118.486,40.982,387.886-271.236,395.449
				c-57.847,1.401-55.632-186.395,66.122-284.262C2807.974,1825.434,2938.706,1774.037,2938.706,1774.037z"/>
			<path style="fill:#FFFFFF;" d="M2648.986,2162.318c72.688-47.087,241.396-263.294,290.93-387.798l-2.419-0.965
				c-52.838,132.805-224.188,343.992-289.925,386.58L2648.986,2162.318z"/>
			<path style="fill:#FFFFFF;" d="M2843.722,1939.416l1.219-0.009c2.948-0.025,72.437-0.901,97.198-28.918l-1.951-1.723
				c-22.25,25.173-84.522,27.762-94.045,28.011c-0.735-10.567-5.667-86.081,0.734-120.195l-2.563-0.481
				c-6.918,36.873-0.745,121.253-0.684,122.101L2843.722,1939.416z"/>
			<path style="fill:#FFFFFF;" d="M2746.145,2067.29c5.698,1.325,102.98,23.369,151.338-1.474l-1.19-2.32
				c-46.361,23.821-139.201,3.618-148.965,1.394c-2.037-11.528-23.675-136.598-12.475-179.336l-2.522-0.66
				c-11.832,45.149,11.579,175.762,12.582,181.302l0.15,0.837l0.827,0.197C2745.914,2067.236,2746.001,2067.256,2746.145,2067.29z"
				/>
		</g>
		<g>
			<path style="fill:#ECA72C;" d="M3120.457,1882.871c-18.758,90.018-41.76,299.576-278.137,246.829
				c-43.795-9.773-6.978-150.685,102.967-201.547C3012.454,1897.081,3120.457,1882.871,3120.457,1882.871z"/>
			<path style="fill:#FFFFFF;" d="M2829.751,2120.846c63.515-21.83,230.946-152.96,291.526-237.385l-1.64-1.179
				c-64.621,90.053-233.1,216.911-290.542,236.656L2829.751,2120.846z"/>
			<path style="fill:#FFFFFF;" d="M3018.022,1989.55l0.919,0.222c2.223,0.533,54.682,12.88,78.56-3.569l-1.146-1.662
				c-21.456,14.78-68.804,5.072-76.017,3.477c1.425-8.09,11.847-65.842,23.05-90.316l-1.839-0.842
				c-12.108,26.454-23.256,91.11-23.369,91.76L3018.022,1989.55z"/>
			<path style="fill:#FFFFFF;" d="M2920.655,2067.518c4.04,2.064,73.124,36.862,114.166,27.217l-0.461-1.969
				c-39.348,9.249-105.434-23.332-112.365-26.833c0.625-9.057,7.751-107.229,24.179-137.295l-1.774-0.969
				c-17.355,31.762-24.185,134.438-24.467,138.795l-0.044,0.658l0.585,0.303C2920.492,2067.434,2920.553,2067.466,2920.655,2067.518
				z"/>
		</g>
		<g>
			<path style="fill:#FFB5AD;" d="M836.65,1980.583c-13.25-15.432,167.599-0.65,291.812,94.849
				c84.15,64.697,90.366,218.451,90.366,218.451s-94.159,41.542-215.915-49.561C881.159,2153.22,894.892,2048.415,836.65,1980.583z"
				/>
			<path style="fill:#FFFFFF;" d="M1219.393,2293.335l-1.129,1.097c-2.327-2.397-234.437-240.623-382.295-315.819l0.713-1.402
				C984.773,2052.526,1217.064,2290.936,1219.393,2293.335z"/>
			<path style="fill:#FFFFFF;" d="M988.216,2082.5l-0.863,0.029c-3.132,0.108-77.042,2.433-106.218-15.217l0.816-1.346
				c27.102,16.397,95.925,15.229,104.477,15.016c-1.1-7.849-9.915-66.804-29.06-87.103l1.146-1.08
				c20.774,22.028,29.242,86.126,29.593,88.844L988.216,2082.5z"/>
			<path style="fill:#FFFFFF;" d="M1079.776,2160.576l-0.496,0.192c-0.917,0.354-92.26,35.16-148.077,10.94l0.627-1.444
				c53.107,23.045,139.046-8.039,146.385-10.777c0.081-7.926,0.756-100.308-10.479-121.999l1.395-0.723
				c11.864,22.902,10.707,119.191,10.652,123.28L1079.776,2160.576z"/>
			<path style="fill:#FFFFFF;" d="M1168.667,2243.948l-0.455,0.16c-0.972,0.339-97.883,33.718-153.684,9.505l0.627-1.443
				c53.281,23.119,144.781-6.924,152.081-9.391c0.965-7.575,12.363-100.911-6.331-132.244l1.353-0.807
				c19.672,32.974,7.022,129.642,6.475,133.742L1168.667,2243.948z"/>
		</g>
		<g>
			<path style="fill:#E07165;" d="M1045.867,1975.285c0,0-44.081-48.362-77.741-55.691c-33.66-7.328-55.248,20.614-28.67,41.752
				C964.319,1981.12,1010.224,1963.265,1045.867,1975.285z"/>
			<path style="fill:#E07165;" d="M1051.981,1916.711c0,0,7.254-65.034,30.185-90.741c22.931-25.707,56.818-15.781,47.731,16.939
				C1121.396,1873.519,1073.76,1886.042,1051.981,1916.711z"/>
			<path style="fill:#E07165;" d="M1119.627,2058.41c0,0-14.751-36.236-16.881-62.081c-2.822-34.23,18.367-64.107,42.583-52.543
				c18.48,8.825,14.458,36.244-8.293,67.15C1116.739,2038.507,1119.627,2058.41,1119.627,2058.41z"/>
			<path style="fill:#E07165;" d="M1012.25,1837.814c-9.264-20.752-34.587-80.078-57.067-99.106
				c-22.48-19.028-40.176-7.461-44.859-2.448c-4.683,5.014-13.45,24.717,5.592,48.018
				C935.684,1808.467,1012.25,1837.814,1012.25,1837.814z"/>
			<path style="fill:#E07165;" d="M1018.569,1755.347c-6.712-15.588-30.981-77.341-34.54-103.242
				c-3.559-25.901,7.139-46.842,30.016-48.12c19.971-1.115,36.107,15.201,35.432,43.993
				C1048.838,1675.154,1018.569,1755.347,1018.569,1755.347z"/>
			<path style="fill:#ECC887;" d="M1189.178,2189.151c0.135-0.068,0.26-0.161,0.371-0.276c0.518-0.542,0.495-1.399-0.046-1.915
				c-17.268-16.446-92.855-127.155-120.211-200.545c-31.05-83.305-58.412-181.407-48.454-333.868
				c0.05-0.748-0.518-1.393-1.263-1.442c-0.742-0.05-1.395,0.513-1.442,1.262c-9.99,152.972,17.462,251.408,48.618,334.994
				c28.66,76.892,104.262,185.729,120.882,201.559C1188.062,2189.329,1188.682,2189.401,1189.178,2189.151z"/>
			<path style="fill:#ECC887;" d="M1034.67,1876.211c0.61-0.307,0.903-1.032,0.657-1.685
				c-14.062-37.499-69.773-95.449-94.595-112.577c-0.615-0.426-1.458-0.271-1.885,0.348c-0.426,0.614-0.271,1.458,0.347,1.885
				c24.573,16.957,79.709,74.266,93.595,111.297c0.264,0.7,1.045,1.056,1.745,0.793
				C1034.581,1876.253,1034.625,1876.234,1034.67,1876.211z"/>
			<path style="fill:#ECC887;" d="M1054.1,1946.859c0.598-0.301,0.894-1.008,0.669-1.656c-14.769-42.3,29.13-79.382,42.935-89.74
				c0.6-0.45,0.721-1.3,0.272-1.897c-0.449-0.598-1.305-0.697-1.897-0.272c-14.18,10.638-59.245,48.767-43.871,92.802
				c0.249,0.707,1.021,1.08,1.727,0.834C1053.993,1946.911,1054.046,1946.887,1054.1,1946.859z"/>
			<path style="fill:#ECC887;" d="M1076.037,2006.317c0.038-0.019,0.074-0.04,0.111-0.062c0.636-0.397,0.827-1.235,0.431-1.868
				c-24.434-39.045-80.41-59.272-111.424-58.864c-0.74,0.014-1.349,0.623-1.336,1.372c0.009,0.748,0.624,1.345,1.372,1.336
				c30.376-0.398,85.184,19.392,109.089,57.592C1074.656,2006.422,1075.42,2006.627,1076.037,2006.317z"/>
			<path style="fill:#ECC887;" d="M1136.492,2116.137c0.05-0.025,0.096-0.051,0.142-0.083c0.625-0.413,0.794-1.254,0.379-1.877
				c-20.003-30.175-24.131-108.932-7.239-138.149c0.373-0.647,0.152-1.475-0.497-1.851c-0.65-0.378-1.479-0.153-1.851,0.497
				c-17.251,29.84-13.074,110.223,7.33,141.001C1135.139,2116.253,1135.889,2116.441,1136.492,2116.137z"/>
		</g>
		<g>
			<path style="fill:#82ACB0;" d="M2757.39,1574.456c0,16.553-0.733,32.854-2.175,48.835
				c-13.554,152.024-89.543,275.177-188.885,311.924c-14.744,5.472-29.97,9.021-45.607,10.463
				c-5.404,0.527-10.83,0.778-16.324,0.778c-21.361,0-42.104-3.892-61.908-11.242c-99.342-36.747-175.354-159.9-188.908-311.924
				c-1.442-15.981-2.175-32.282-2.175-48.835c0-16.553,0.733-32.855,2.175-48.835h501.633
				C2756.658,1541.602,2757.39,1557.903,2757.39,1574.456z"/>
			<path style="fill:#9FD0D4;" d="M2734.495,1574.456c0,15.729-0.71,31.458-2.083,46.775c-2.999,33.587-9.135,65.549-17.927,95.244
				c-36.243,122.833-117.772,207.087-210.086,207.087c-84.346,0-159.716-70.357-199.737-176.224l-0.023-0.023
				c-14.355-37.983-24.2-80.545-28.253-126.061c-1.374-15.317-2.083-31.069-2.083-46.798c0-8.677,0.206-17.332,0.641-25.94h458.91
				C2734.289,1557.125,2734.495,1565.779,2734.495,1574.456z"/>
			<rect x="2224.323" y="1525.621" style="fill:#CC8E1F;" width="560.175" height="97.671"/>
			<path style="fill:#EBD4AB;" d="M2784.498,1525.621v97.671h-560.176v-24.223c0,0,445.883,0,495.68,0
				c49.797,0,40.066-44.073,40.066-73.448H2784.498z"/>
			<path style="fill:#82ACB0;" d="M2757.39,2295.997c0,8.265-0.183,16.485-0.55,24.612c-0.366,8.151-0.893,16.233-1.625,24.223
				h-501.633c-1.351-14.973-2.083-30.199-2.152-45.676c-0.023-1.053-0.023-2.106-0.023-3.16c0-16.553,0.733-32.854,2.175-48.835
				c13.554-152.024,89.566-275.177,188.908-311.946c19.804-7.326,40.547-11.219,61.908-11.219h0.412
				c21.224,0.046,41.83,3.938,61.519,11.219c99.342,36.77,175.331,159.923,188.885,311.946
				C2756.658,2263.142,2757.39,2279.444,2757.39,2295.997z"/>
			<path style="fill:#9FD0D4;" d="M2540.199,1952.774h-66.753c19.956-11.698,19.956-23.396,0-35.094h66.753
				C2518.247,1929.377,2518.247,1941.075,2540.199,1952.774z"/>
			<path style="fill:#9FD0D4;" d="M2734.495,2295.997c0,8.677-0.206,17.332-0.641,25.94h-458.91
				c-0.435-8.609-0.641-17.263-0.641-25.94c0-15.729,0.71-31.481,2.083-46.798c2.496-27.978,7.166-54.834,13.737-80.179
				c4.121-15.912,8.975-31.252,14.516-45.882l0.023-0.023c40.021-105.867,115.391-176.224,199.737-176.224
				c65.114,0,124.87,41.921,167.135,109.736c17.675,28.321,32.282,61.176,42.951,97.35c8.792,29.695,14.928,61.657,17.927,95.244
				C2733.785,2264.539,2734.495,2280.268,2734.495,2295.997z"/>
			<path style="fill:#ECC887;" d="M2734.495,2295.997c0,8.677-0.206,17.332-0.641,25.94h-458.91
				c-0.435-8.609-0.641-17.263-0.641-25.94c0-15.729,0.71-31.481,2.083-46.798c2.496-27.978,7.166-54.834,13.737-80.179
				c80.728-77.134,140.79-75.524,222.297-34.606c103.791,52.105,168.661-32.225,159.114-77.786
				c17.675,28.321,32.282,61.176,42.951,97.35c8.792,29.695,14.928,61.657,17.927,95.244
				C2733.785,2264.539,2734.495,2280.268,2734.495,2295.997z"/>
			<rect x="2224.323" y="2247.161" style="fill:#CC8E1F;" width="560.175" height="97.671"/>
			<path style="fill:#EBD4AB;" d="M2784.498,2320.609v24.223h-560.176v-97.671h24.429c0,16.141-2.93,36.724,2.679,51.995
				c4.602,12.501,14.95,21.453,37.388,21.453h468.022C2774.31,2320.609,2784.498,2320.609,2784.498,2320.609z"/>
			<path style="fill:#ECC887;" d="M2714.485,1716.475c-36.243,122.833-117.772,207.087-210.086,207.087
				c-84.346,0-159.716-70.357-199.737-176.224c36.701,40.318,106.279,60.626,185.245-0.023
				C2568.872,1686.642,2667.321,1678.629,2714.485,1716.475z"/>
			
				<ellipse transform="matrix(0.9524 -0.3047 0.3047 0.9524 -404.8177 819.7119)" style="fill:#ECC887;" cx="2423.51" cy="1706.676" rx="56.665" ry="32.225"/>
			<path style="fill:#F5EBDA;" d="M2566.33,1935.215c99.342,36.77,175.331,159.923,188.885,311.946h29.283v97.671h-178.743
				c0-8.219-0.069-16.278-0.229-24.223c-0.435-25.963-1.58-50.438-3.274-73.448c-12.753-171.851-57.169-263.249-81.53-301.483
				c-8.357-13.119-14.355-19.965-15.912-21.682c-0.275-0.298-0.412-0.435-0.412-0.435c64.633-45.905,95.427-166.402,100.578-300.27
				c1.236-32.076,1.008-64.908-0.595-97.671h180.116v97.671h-29.283C2741.661,1775.315,2665.672,1898.468,2566.33,1935.215z"/>
		</g>
		<g>
			<path style="fill:#363B39;" d="M771.266,1470.146c12.665,24.265,74.283,150.65,87.784,175.298
				c12.368,22.579-69.87,44.458-81.046,17.378c-11.176-27.08-28.111-78.569-28.111-78.569L771.266,1470.146z"/>
			<path style="fill:#E2A288;" d="M607.293,2265.574c-1.576,12.082-2.463,31.005,0.248,38.367
				c1.299,3.526-9.579,10.066-22.313,10.911c-9.781,0.649-18.725-8.482-16.809-16.196c3.414-13.745,0-39.744,0-39.744
				C569.474,2248.44,608.539,2256.027,607.293,2265.574z"/>
			<path style="fill:#010705;" d="M625.381,2344.942l-68.101,0.043c-0.567-0.504,7.707-41.699,11.14-46.333
				c6.466-8.728,37.861-4.817,39.228,0.6C613.321,2321.748,626.883,2334.674,625.381,2344.942z"/>
			<path style="fill:#E2A288;" d="M768.63,2265.769c-1.091,12.135-1.934,26.177,4.119,32.944
				c2.505,2.801-11.506,15.824-24.196,17.177c-9.747,1.04-19.05-7.726-17.443-15.511c2.862-13.87-1.589-39.712-1.589-39.712
				C730.155,2250.162,769.492,2256.18,768.63,2265.769z"/>
			<g>
				<path style="fill:#E2A288;" d="M937.553,1555.364c6.781-1.954,17.899,4.791,26.78,4.064c10.247-0.839,10.017,0.193,15.128-0.77
					c8.506-1.603,17.088,1.964,10.13,5.533c-6.523,3.346-17.055,1.937-26.215,7.772c-6.362,4.053-9.174,5.194-17.597,6.427
					c-11.736,1.718-27.316-7.347-18.638-17.16C929.711,1558.326,934.027,1556.381,937.553,1555.364z"/>
				<path style="fill:#E2A288;" d="M1020.911,1564.678c-15.968,7.185-56.769,20.417-73.482,22.274
					c-16.713,1.857-25.503,16.354-27.868,20.939c-2.365,4.585-19.17-12.334-20.659-17.602c-1.489-5.268,21.529-21.74,23.634-23.321
					c2.104-1.581,8.659-13.898,32.339-5.984c13.668,4.568,38.79,4.288,51.992,0.78
					C1017.439,1558.956,1030.832,1560.214,1020.911,1564.678z"/>
			</g>
			<path style="fill:#010705;" d="M835.806,2344.963H723.815c-0.587-0.481,1.593-45.452,7.295-44.587
				c3.174,0.493,5.319,8.114,8.353,11.673c3.034,3.559,17.027-1.47,17.646-5.7c0.619-4.23,14.481-15.047,16.75-10.571
				c6.659,13.139,52.212,30.052,57.75,33.086C838.161,2332.454,836.008,2343.452,835.806,2344.963z"/>
			<path style="fill:#C1C4C3;" d="M716.668,1790.936c-51.278,0.201-123.754-343.296-95.773-352.264
				c1.629-0.526,40.297-16.733,40.297-16.733s56.989,21.017,59.67,22.019c17.836,6.563,37.091,64.511,31.755,104.616
				C747.307,1588.654,750.711,1790.786,716.668,1790.936z"/>
			<path style="fill:#010705;" d="M754.907,1753.789c0,0,13.57,162.892,15.296,219.3c1.727,56.408,7.467,297.657,7.639,306.182
				c0.109,5.417-53.495,14.014-54.12,8.786c-0.625-5.228-40.072-229.922-42.038-281.142c-1.966-51.219-47.57-251.042-47.57-251.042
				L754.907,1753.789z"/>
			<path style="fill:#010705;" d="M696.778,1745.663c0,35.492-31.907,239.001-43.16,284.881
				c-11.254,45.88-38.803,242.483-39.574,251.105c-0.349,3.906-52.544,3.688-53.192-4c-0.949-11.247-4.311-198.707,5.211-266.228
				c9.522-67.522,26.836-277.012,26.836-277.012L696.778,1745.663z"/>
			<path style="fill:#363B39;" d="M529.998,1648.599c2.092,32.41,14.497,52.639,29.042,57.86c1.82,0.032,3.64,0.016,5.46-0.048
				h0.016c10.426-6.482,18.297-51.984,22.943-87.636c3.145-24.092,4.806-43.698,4.806-43.698l-28.308-117.305
				C550.657,1478.001,529.359,1638.972,529.998,1648.599z"/>
			<path style="fill:#E2A288;" d="M644.708,1379.114c3.413,21.283,3.963,46.143,0.998,53.168
				c-2.965,7.026,48.157,17.952,56.543,9.481l-2.161-57.302L644.708,1379.114z"/>
			<path style="fill:#F0DDD5;" d="M658.294,1397.79c9.326,16.818,21.949,25.999,43.346,27.847l-1.272-33.728L658.294,1397.79z"/>
			<path style="fill:#E2A288;" d="M709.22,1320.862c10.601,25.47,11.215,65.916,1.08,80.955
				c-10.135,15.039-51.034,0.124-58.669-11.759c-7.635-11.884-35.897-68.759-6.661-79.397
				C674.206,1300.023,697.937,1293.753,709.22,1320.862z"/>
			<path style="fill:#010705;" d="M648.371,1375.216c2.622-3.106,5.78-2.235,3.385-16.616c-2.395-14.381-9.304-23.994,3.905-21.814
				c21.452,3.541,25.251-16.771,38.948-17.912c14.996-1.25,23.633-5.623,21.821-17.307c-2.511-16.194-17.116-27.889-48.619-23.845
				c-15.168,1.947-43.269,22.644-49.841,38.322c-10.004,23.866,12.328,53.399,16.915,63.081
				C639.471,1388.808,648.371,1375.216,648.371,1375.216z"/>
			<path style="fill:#363B39;" d="M791.985,2129.081c0.449,2.992-23.753-0.15-57.819,0c0,0-27.259-550.177-28.044-553.617
				l9.76-133.673c0.673,0.486,54.141,20.638,55.749,29.313c2.543,13.836-4.671,56.557-4.751,97.03
				C766.774,1621.201,790.938,2121.639,791.985,2129.081z"/>
			<path style="fill:#E2A288;" d="M645.87,1364.476c-7.182-8.13-14.355-6.305-15.463-3.502c-1.108,2.803-1.677,9.04,4.477,18.152
				c6.153,9.112,13.252,13.938,15,12.435c1.748-1.503,2.516-8.167,1.233-12.667C649.834,1374.395,647.637,1366.477,645.87,1364.476z
				"/>
			<path style="fill:#363B39;" d="M706.122,1575.464v552.291c-51.267,0.224-167.037,1.19-167.037,1.19
				s29.096-487.898,33.294-520.275c3.177-24.502-12.133-143.434-8.431-150.875c1.757-3.553,76.687-30.485,77.06-30.822l6.292,13.21
				L706.122,1575.464z"/>
			<path style="fill:#FFFFFF;" d="M680.922,1440.965c-4.898,35.569-13.645,114.051-14.344,117.169
				c-0.7,3.118,15.69-3.295,19.215,2.105c3.526,5.4-0.295,10.486,13.438,8.663c10.171-1.35,7.763-13.726,17.561-7.651
				c9.798,6.075,19.933-8.101,19.933-8.101l-34.462-112.187H680.922z"/>
			<g>
				<path style="fill:#82ACB0;" d="M760.349,1705.79c27.909,59.969,56.489,123.492,77.972,176.185l-29.571,14.639
					c-36.807-62.741-66.138-115.774-93.744-168.424c-33.218-63.4-63.987-126.233-102.288-204.74l-113.831-230.239l48.442-23.931
					l113.831,230.239C661.159,1499.519,709.659,1596.841,760.349,1705.79z"/>
				<path style="fill:#9FD0D4;" d="M760.349,1705.79c27.909,59.969,56.489,123.492,77.972,176.185l-29.571,14.639
					c-36.807-62.741-66.138-115.774-93.744-168.424c-33.218-63.4-63.987-126.233-102.288-204.74l-113.831-230.239l48.442-23.931
					l113.831,230.239C661.159,1499.519,709.659,1596.841,760.349,1705.79z"/>
				<path style="fill:#82ACB0;" d="M655.801,1492.073l-45.753,22.617c-2.44,1.206-5.396,0.206-6.602-2.234l-105.438-213.3
					c-1.206-2.44-0.206-5.396,2.234-6.602l45.754-22.617c2.44-1.206,5.396-0.206,6.602,2.234l105.438,213.3
					C659.242,1487.911,658.242,1490.867,655.801,1492.073z"/>
				<path style="fill:#CC8E1F;" d="M597.931,1553.412c-5.913,2.923-12.894,1.091-16.389-4.366l6.188-3.964
					c1.709,2.667,4.902,2.86,7.126,1.647c3.623-1.935,6.137-8.13,1.298-19.218c-7.064-16.185-31.731-51.031-46.469-71.85
					c-7.612-10.753-11.31-16.002-12.211-17.825c-2.763-5.59-35.525-125.841-39.856-139.788l1.471-4.705
					c16.842,54.231,42.898,136.823,44.979,141.247c0.68,1.376,5.992,8.879,11.616,16.825c14.901,21.05,39.84,56.28,47.206,73.157
					c6.844,15.681,1.815,25.229-4.571,28.64C598.19,1553.281,598.061,1553.348,597.931,1553.412z"/>
				<path style="fill:#CC8E1F;" d="M580.938,1547.184c-2.024-4.094-0.345-9.052,3.748-11.076c4.094-2.024,9.052-0.345,11.076,3.748
					c2.023,4.094,0.345,9.052-3.748,11.076C587.92,1552.956,582.961,1551.278,580.938,1547.184z"/>
				<path style="fill:#CC8E1F;" d="M848.009,1937.343c1.173-0.93,1.72-2.481,1.324-3.964c-2.327-8.798-3.559-18.677-2.554-29.386
					c-0.4-0.718-11.113-15.66-12.414-24.202l-25.15,12.408c5.987,6.229,11.344,23.859,11.677,24.626
					c8.785,5.779,15.938,12.455,21.723,19.883c0.566,0.713,1.327,1.175,2.171,1.37c0.586,0.137,1.204,0.122,1.799-0.033
					l-11.515-24.546l0.466-0.23L848.009,1937.343z M833.563,1909.858c-1.355,0.669-2.995,0.112-3.664-1.243
					c-0.669-1.355-0.112-2.995,1.243-3.664c1.355-0.669,2.996-0.112,3.665,1.243
					C835.475,1907.548,834.919,1909.189,833.563,1909.858z"/>
				<path style="fill:#82ACB0;" d="M786.688,1753.012c27.909,59.969,30.149,76.27,51.632,128.963l-29.571,14.639
					c-36.807-62.741-44.64-66.16-72.246-118.81L786.688,1753.012z"/>
			</g>
			<path style="fill:#979998;" d="M688.934,1444.65c-2.705,5.962-9.755,16.698-10.031,17.8c-0.276,1.127-17.21-10.722-31.614-19.915
				c-6.989-4.434-11.974-8.266-11.473-9.745c0.075-0.225,10.221-9.344,11.623-8.517l6.338,2.279l35.157,13.864V1444.65z"/>
			<path style="fill:#979998;" d="M720.077,1443.505l-10.763,16.615l-20.379-15.47v-4.233l13.315-9.264
				C703.577,1431.153,717.772,1442.328,720.077,1443.505z"/>
			<path style="fill:#E2A288;" d="M652.011,1572.17c7.658-11.286,10.272-40.306,20.654-43.128
				c10.382-2.821,26.907,25.384,24.892,39.092c-2.015,13.709-9.674,18.927-14.913,20.953c-5.24,2.026-9.979,12.103-9.979,12.103
				L652.011,1572.17z"/>
			<path style="fill:#FFFFFF;" d="M688.934,1442.315c-2.705,5.962-9.755,16.698-10.031,17.8
				c-0.276,1.127-17.21-10.722-31.614-19.915c-6.989-4.434-13.203-9.948-12.088-11.039c0.35-0.343,10.835-8.049,12.237-7.222
				l6.338,2.279l35.157,13.864V1442.315z"/>
			<path style="fill:#FFFFFF;" d="M718.977,1441.033l-9.664,16.752l-20.379-15.47v-4.233l13.315-9.264
				C703.577,1428.817,716.673,1439.855,718.977,1441.033z"/>
			<path style="fill:#FFFFFF;" d="M678.245,1601.759c-0.864,2.214-47.931,61.344-75.263,80.691
				c-12.86,9.103-50.601-9.945-52.654-41.915c0,0,26.903-18.173,69.134-47.578c11.584-8.046,22.79-16.363,32.537-24.409
				C657.265,1564.2,680.594,1595.711,678.245,1601.759z"/>
			<path style="fill:#363B39;" d="M630.884,1697.931c0,0-54.454,11.07-72.446,8.298c-14.284-5.562-26.381-25.652-28.433-57.622
				c0,0,47.226-26.246,89.457-55.651C631.969,1614.495,630.884,1697.931,630.884,1697.931z"/>
			<path style="fill:#FFFFFF;" d="M937.949,1596.98c-1.431,2.997-25.139,30.62-53.329,56.056
				c-27.11,24.437-54.382-38.667-48.333-42.339c9.343-5.644,19.36-11.8,29.027-17.74c23.06-14.149,43.932-26.948,47.847-27.947
				C919.749,1563.363,940.73,1591.147,937.949,1596.98z"/>
			<path style="fill:#010705;" d="M533.59,1647.821c-0.535-0.021-1.047-0.302-1.345-0.793c-0.469-0.778-0.219-1.79,0.558-2.258
				c0.722-0.437,72.225-43.644,82.345-51.469c0.723-0.56,1.755-0.422,2.307,0.295c0.557,0.717,0.425,1.75-0.295,2.307
				c-10.267,7.941-79.704,49.899-82.655,51.681C534.218,1647.759,533.902,1647.833,533.59,1647.821z"/>
			<path style="fill:#FFFFFF;stroke:#201600;stroke-miterlimit:10;" d="M775.408,1640.52c-0.53-0.07-1.015-0.397-1.266-0.914
				c-0.395-0.818-0.054-1.803,0.763-2.197c0.759-0.369,75.935-36.814,86.731-43.674c0.772-0.491,1.786-0.258,2.27,0.506
				c0.488,0.765,0.262,1.782-0.506,2.27c-10.954,6.963-83.958,42.354-87.06,43.857
				C776.039,1640.517,775.717,1640.562,775.408,1640.52z"/>
			<path style="fill:#363B39;" d="M886.375,1682.576c0,0-51.169,21.898-81.33,13.393c-0.162-0.027-0.351-0.081-0.54-0.135
				c-2.997-0.891-5.778-2.106-8.289-3.646c0-0.027-0.027-0.027-0.027-0.027c-0.027,0-0.027-0.027-0.054-0.027
				c-12.637-8.613-16.309-27.947-26.381-50.655c0,0,85.893-42.582,95.56-48.522c11.773,19.117,17.011,42.15,19.306,60.079
				C886.834,1670.128,886.375,1682.576,886.375,1682.576z"/>
		</g>
		<g>
			<polygon style="fill:#D4675B;" points="2579.307,1311.408 2500.563,1463.804 2535.036,1461.749 2609.534,1363.555 			"/>
			<path style="fill:#D4675B;" d="M2615.931,1203.883c-30.488,81-55.363,160.613-48.75,174.857
				c6.614,14.244,41.805-8.55,46.145-21.425c4.34-12.875,19.818-66.373,26.411-82.515S2618.053,1198.246,2615.931,1203.883z"/>
			<path style="fill:#010705;" d="M2659.263,1070.204c34.822,13.097,41.823,65.375,78.226,96.701
				c44.089,37.94,22.565,86.807-41.121,74.751c-27.24-5.156-44.44-13.801-58.382-23.564s-10.714-41.065-5.815-50.347
				S2659.263,1070.204,2659.263,1070.204z"/>
			<path style="fill:#E2A288;" d="M2633.515,1238.02c30.723,7.596,53.458-20.484,52.028-22.607
				c-1.393-2.123-24.928-70.039-24.379-75.246c0.549-5.189-35.921,15.088-33.378,26.289c0.745,3.242,1.453,6.465,2.126,9.525
				c0.813,3.588,1.574,6.975,2.247,10.071c0,0.018,0,0.018,0,0.036c0.725,3.351,1.327,6.337,1.753,8.812
				c0.255,1.565,0.439,2.93,0.535,4.039c0.142,1.873,0.056,3.052-0.346,3.338c-1.775,1.143-11.965,1.009-12.495,2.928
				C2621.095,1207.124,2602.792,1230.441,2633.515,1238.02z"/>
			<path style="fill:#F0DDD5;" d="M2630.219,1173.058c0.763,4.768,1.439,9.208,1.941,12.992c0,0.018,0,0.018,0,0.036
				c0.725,3.351,1.327,6.337,1.753,8.812c7.257-2.425,13.8-7.455,17.668-23.379L2630.219,1173.058z"/>
			<path style="fill:#FFFFFF;stroke:#000000;stroke-miterlimit:10;" d="M2642.066,1160.745c-4.765,4.383-12.238,9.635-12.238,9.635
				l-1.021-4.355l6.757-9.808L2642.066,1160.745z"/>
			<path style="fill:#E2A288;" d="M2594.662,1089.006c-4.079,19.004-3.022,41.145,1.409,58.652
				c4.431,17.507,10.635,36.791,23.138,38.88s32.147-8.729,43.777-31.242c11.63-22.514,9.025-61.808-19.497-71.806
				C2614.967,1073.492,2596.992,1078.151,2594.662,1089.006z"/>
			<path style="fill:#010705;" d="M2652.451,1142.059c-3.805-9.857-2.563-18.369-12.499-20.51
				c-9.937-2.141-31.724-3.967-39.263-25.792l-8.075,7.114c0,0-18.233-19.649,24.353-35.083
				c42.585-15.434,82.674,28.844,80.518,52.979C2695.327,1144.902,2652.451,1142.059,2652.451,1142.059z"/>
			<path style="fill:#010705;" d="M2389.019,1778.057c-1.122,6.97,2.237,34.741,0.943,38.321
				c-1.293,3.58-86.492,27.54-87.997,27.762c-1.506,0.223-5.672-7.973-3.123-11.779c2.548-3.806,72.349-61.733,73.879-64.112
				C2374.251,1765.869,2389.96,1772.213,2389.019,1778.057z"/>
			<path style="fill:#010705;" d="M2253.741,1698.67c-3.043,8.078-3.643,27.844-4.059,31.435c-0.417,3.59-89.628,16.959-92.25,16.21
				c-2.622-0.749,0.51-11.858,5.056-15.042c4.545-3.184,82.105-49.399,82.105-49.399L2253.741,1698.67z"/>
			<path style="fill:#2C302F;" d="M2621.712,1431.083c-56.454,14.491-141.363,36.159-158.913,46.68
				c-17.55,10.521-228.988,210.613-230.883,212.974c-1.894,2.361,14.682,22.798,19.696,19.877s191.894-123.487,203.868-136.453
				c11.975-12.966,110.557-87.484,136.679-85.401c26.122,2.083,103.61-23.839,105.538-29.177
				C2699.626,1454.244,2621.712,1431.083,2621.712,1431.083z"/>
			<path style="fill:#363B39;" d="M2741.037,1521.714c-26.193,17.868-70.21,23.919-113.907,23.424
				c-43.697-0.495-92.2-5.214-92.2-5.214s-3.463,30.93-22.522,64.66s-119.729,182.67-122.246,185.023
				c-2.517,2.354-26.048-8.633-25.399-11.008c0.649-2.375,105.729-265.611,112.028-272.091
				c6.299-6.48,142.549-54.068,154.431-58.847c11.882-4.779,68.017-14.266,87.719,5.015
				C2738.644,1471.958,2741.037,1521.714,2741.037,1521.714z"/>
			<path style="fill:#E2A288;" d="M2651.976,1145.849c0.92-7.627,1.915-18.91,11.628-19.612c9.712-0.702,11.506,16.473,7.158,26.364
				c-4.348,9.891-10.064,11.878-13.243,10.693C2654.708,1162.246,2651.123,1152.923,2651.976,1145.849z"/>
			<path style="fill:#E07165;" d="M2683.142,1209.246c1.623-1.74,37.407,17.74,45.819,26.533s2.027,97.209,2.856,121.443
				c0.83,24.234,21.089,69.293,25.118,114.076s-28.117,59.539-28.117,59.539s-4.569-62.58-45.837-77.388
				c-41.268-14.808-61.506-20.648-63.349-21.833c-1.843-1.185-3.137-7.764-4.427-23.179c-1.29-15.415-6.857-63.083-12.271-69.581
				c-5.414-6.498-24.424-34.669-24.924-46.549c-0.5-11.88,23.536-81.935,38.582-89.287c2.116-1.034,17.097-1.691,15.791-0.227
				c-1.306,1.464-8.16,19.283-0.042,26.238C2640.46,1235.987,2660.957,1233.031,2683.142,1209.246z"/>
			<path style="fill:#979998;" d="M2468.585,1332.171l79.299,0.899c5.483,0.062,9.489-5.158,8.011-10.438l-33.433-119.442
				c-0.944-3.372-4-5.718-7.501-5.757l-79.299-0.899c-5.483-0.062-9.489,5.158-8.011,10.438l33.432,119.442
				C2462.028,1329.786,2465.083,1332.131,2468.585,1332.171z"/>
			<path style="fill:#E07165;" d="M2733.283,1287.364c-35.753,78.818-50.905,94.572-65.656,99.961
				c-14.751,5.389-25.873-34.236-19.832-46.406c6.04-12.17,34.793-77.086,41.552-93.158c3.061-7.278,28.731-22.814,38.317-13.222
				C2739.248,1246.131,2734.644,1284.363,2733.283,1287.364z"/>
			<path style="fill:#E2A288;" d="M2517.323,1310.705c-9.616-7.453-38.979-16.05-41.288-20.758
				c-1.582-3.226-8.833-32.304-6.561-36.948c2.272-4.645,14.6,11.543,20.662,15.563c6.062,4.021,11.577,4.443,12.635,0.503
				c1.057-3.94,1.298-7.81,12.087,5.575c10.789,13.386,21.735,15.994,21.735,15.994L2517.323,1310.705z"/>
			<path style="fill:#E07165;" d="M2663.238,1338.105c-62.34-21.667-71.088-23.654-130.835-52.004
				c-7.088-3.363-25.191,21.173-19.185,26.821c32.71,30.763,99.096,69.376,137.207,75.415
				C2687.974,1394.287,2674.58,1342.047,2663.238,1338.105z"/>
			<path style="fill:#CC5C50;" d="M2652.59,1389.512c6.303,0.071,12.278-1.012,17.894-3.25
				c26.752-10.683,40.885-45.05,52.234-72.667l0.589-1.425l-2.66-1.091l-0.583,1.422c-11.148,27.117-25.02,60.861-50.65,71.09
				c-12.632,5.044-26.704,3.95-43.019-3.359l-13.764-5.523l-1.074,2.666l13.714,5.502
				C2634.917,1387.201,2644.053,1389.415,2652.59,1389.512z"/>
			<path style="fill:#CC5C50;" d="M2646.362,1333.357c8.464,0.096,14.011-14.336,17.8-24.184c0.816-2.124,1.539-4.01,2.178-5.438
				l-2.625-1.175c-0.656,1.466-1.397,3.403-2.236,5.58c-3.54,9.186-9.457,24.568-16.749,22.035
				c-10.3-3.561-59.567-21.814-60.064-21.996l-0.996,2.694c0.498,0.185,49.792,18.447,60.12,22.02
				C2644.679,1333.198,2645.536,1333.348,2646.362,1333.357z"/>
			<path style="fill:#010705;" d="M2774.313,1209.018c-0.737-0.008-1.371-0.563-1.463-1.312c-1.845-15.479-6.146-32.342-36-53.246
				c-13.085-9.165-21.05-21.427-29.479-34.407c-10.732-16.528-21.831-33.622-44.863-46.806c-0.713-0.41-0.963-1.32-0.551-2.033
				c0.412-0.717,1.33-0.957,2.031-0.553c23.656,13.545,34.957,30.943,45.884,47.77c8.266,12.73,16.074,24.757,28.689,33.589
				c27.844,19.5,34.896,35.628,37.248,55.332c0.095,0.818-0.487,1.558-1.303,1.657
				C2774.441,1209.015,2774.375,1209.019,2774.313,1209.018z"/>
		</g>
		<g>
			
				<rect x="1080.993" y="1921.105" transform="matrix(0.3777 -0.9259 0.9259 0.3777 -1154.6792 2314.9429)" style="fill:#CC8E1F;" width="127.958" height="190.888"/>
			<path style="fill:#010705;" d="M1079.681,1890.033l200.456,81.781c-13.837-5.645-25.348,10.179-22.625,21.55l-176.745-72.108
				C1092.095,1915.619,1093.875,1895.824,1079.681,1890.033z"/>
			<path style="fill:#010705;" d="M1032.497,2039.553l176.745,72.108c-0.066,0.04-0.132,0.079-0.194,0.129
				c-9.738,6.354-12.457,25.491,1.287,31.098l-200.449-81.778c14.097,5.743,26.597-9.403,22.688-21.317
				c-0.02-0.074-0.046-0.152-0.073-0.229L1032.497,2039.553z"/>
			<path style="fill:#979998;" d="M999.222,2115.747l180.522,73.649c4.377,1.785,6.83,6.284,6.214,10.755
				c-0.11,0.821-0.331,1.647-0.657,2.447l-0.405,0.992c-2.115,5.184-8.026,7.669-13.209,5.554l-180.522-73.648
				c-5.183-2.115-7.669-8.026-5.554-13.209l0.405-0.992c0.326-0.8,0.747-1.544,1.242-2.208
				C989.944,2115.46,994.845,2113.961,999.222,2115.747z"/>
			<path style="fill:#979998;" d="M1118.264,1823.958l180.522,73.649c5.183,2.115,7.669,8.026,5.554,13.209l-0.405,0.992
				c-0.3,0.735-0.68,1.422-1.124,2.04c-2.656,3.755-7.642,5.319-12.083,3.507l-180.522-73.648c-4.441-1.812-6.91-6.417-6.181-10.958
				c0.115-0.753,0.324-1.509,0.624-2.244l0.405-0.993C1107.17,1824.329,1113.081,1821.844,1118.264,1823.958z"/>
			<path style="fill:#CC8E1F;" d="M1103.191,1832.408l200.457,81.781c6.183,2.523,9.15,9.579,6.628,15.762l-14.375,35.235
				c-2.523,6.183-9.579,9.15-15.763,6.628l-200.456-81.781c-6.183-2.522-9.15-9.579-6.628-15.762l14.375-35.235
				C1089.951,1832.853,1097.007,1829.885,1103.191,1832.408z"/>
			<path style="fill:#CC8E1F;" d="M1009.886,2061.11l200.457,81.781c6.183,2.523,9.153,9.573,6.631,15.756l-14.378,35.242
				c-2.52,6.176-9.577,9.143-15.76,6.621l-200.457-81.781c-6.183-2.522-9.15-9.579-6.631-15.755l14.378-35.242
				C996.649,2061.547,1003.703,2058.587,1009.886,2061.11z"/>
			
				<rect x="1188.932" y="2047.748" transform="matrix(0.3777 -0.9259 0.9259 0.3777 -1131.3055 2427.7197)" style="fill:#CC8E1F;" width="103.266" height="15.602"/>
			<path style="fill:#CC8E1F;" d="M1277.815,2044.096l616.282,252.582c12.596,5.162,18.632,19.55,13.49,32.153l0,0
				c-5.154,12.633-19.581,18.685-32.205,13.511l-616.209-252.552L1277.815,2044.096z"/>
			<path style="fill:#979998;" d="M1263.652,2019.613l29.416,12.001c5.605,2.287,8.293,8.68,6.006,14.285l-23.448,57.475
				c-2.287,5.605-8.68,8.293-14.285,6.006l-29.416-12.001L1263.652,2019.613z"/>
			<path style="opacity:0.34;fill:#FFFFFF;stroke:#000000;stroke-miterlimit:10;" d="M1098.303,1942.127l-38.741,94.959
				c-1.046,2.563-3.971,3.793-6.534,2.748l0,0c-2.563-1.046-3.793-3.971-2.747-6.534l38.741-94.959
				c1.046-2.563,3.971-3.793,6.534-2.748l0,0C1098.119,1936.639,1099.349,1939.564,1098.303,1942.127z"/>
			
				<rect x="996.563" y="2096.96" transform="matrix(0.3777 -0.9259 0.9259 0.3777 -1306.7593 2259.4927)" style="opacity:0.34;fill:#FFFFFF;stroke:#000000;stroke-miterlimit:10;" width="62.229" height="10.024"/>
			
				<rect x="1089.862" y="1868.262" transform="matrix(0.3777 -0.9259 0.9259 0.3777 -1036.9479 2203.575)" style="opacity:0.34;fill:#FFFFFF;stroke:#000000;stroke-miterlimit:10;" width="62.236" height="10.024"/>
			<path style="fill:#EBD4AB;" d="M1254.877,1961.509l25.26,10.306c-13.837-5.645-25.348,10.179-22.625,21.55l-48.336,118.478
				l-0.129-0.052c-9.738,6.354-12.457,25.491,1.287,31.098l-25.253-10.302L1254.877,1961.509z"/>
			<path style="fill:#EBD4AB;" d="M1161.575,2190.203l24.382,9.948c-0.11,0.821-0.331,1.647-0.657,2.447l-0.405,0.992
				c-2.115,5.184-8.026,7.669-13.209,5.554l-15.293-6.239L1161.575,2190.203z"/>
			<path style="fill:#EBD4AB;" d="M1283.493,1891.368l15.293,6.239c5.183,2.115,7.669,8.026,5.554,13.209l-0.405,0.992
				c-0.3,0.735-0.68,1.422-1.124,2.04l-24.425-9.965L1283.493,1891.368z"/>
		</g>
		<g>
			<path style="fill:#010705;" d="M1429.266,2313.478v10.08c0,1.329-0.139,2.659-0.387,3.905
				c-1.801,9.526-10.192,16.726-20.244,16.726H952.533c-10.053,0-18.444-7.2-20.244-16.726c-0.25-1.246-0.388-2.576-0.388-3.905
				v-10.08c0-11.382,9.25-20.631,20.632-20.631h456.102C1420.017,2292.847,1429.266,2302.096,1429.266,2313.478z"/>
			<path style="fill:#CC8E1F;" d="M1355.645,2207.415h-350.12c-28.798,0-52.144,23.346-52.144,52.144v33.292h454.408v-33.292
				C1407.789,2230.76,1384.443,2207.415,1355.645,2207.415z"/>
			<path style="opacity:0.34;fill:#FFFFFF;stroke:#000000;stroke-miterlimit:10;" d="M1311.681,2233.867h-306.328
				c-5.021,0-9.091-4.07-9.091-9.091l0,0c0-5.021,4.07-9.091,9.091-9.091h306.328c5.021,0,9.091,4.07,9.091,9.091l0,0
				C1320.772,2229.797,1316.702,2233.867,1311.681,2233.867z"/>
			<path style="fill:#979998;" d="M1429.266,2313.478v10.08c0,1.329-0.139,2.659-0.387,3.905H932.289
				c-0.25-1.246-0.388-2.576-0.388-3.905v-10.08c0-11.382,9.25-20.631,20.632-20.631h456.102
				C1420.017,2292.847,1429.266,2302.096,1429.266,2313.478z"/>
		</g>
		<g>
			<path style="fill:#82ACB0;" d="M2646.344,2344.985h550.072c6.104,0,11.052-4.948,11.052-11.052v-70.566
				c0-6.104-4.948-11.052-11.052-11.052h-550.072c-6.104,0-11.052,4.948-11.052,11.052v70.566
				C2635.292,2340.037,2640.24,2344.985,2646.344,2344.985z"/>
			
				<rect x="2635.292" y="2263.367" transform="matrix(-1 -1.224647e-16 1.224647e-16 -1 5842.7603 4533.2515)" style="fill:#A9C1C3;" width="572.177" height="6.518"/>
			
				<rect x="2635.292" y="2327.414" transform="matrix(-1 -1.224647e-16 1.224647e-16 -1 5842.7603 4661.3467)" style="fill:#A9C1C3;" width="572.177" height="6.518"/>
			
				<rect x="2658.247" y="2283.346" transform="matrix(-1 -1.224647e-16 1.224647e-16 -1 5347.1001 4597.2988)" style="fill:#9FD0D4;" width="30.607" height="30.607"/>
			<g>
				<path style="fill:#363B39;" d="M3081.633,2283.346h6.744v24.383h12.492v6.223h-19.237V2283.346z"/>
				<path style="fill:#363B39;" d="M3114.66,2283.346h5.576l13.314,30.607h-7.608l-2.636-6.484h-11.889l-2.551,6.484h-7.435
					L3114.66,2283.346z M3117.252,2292.25l-3.717,9.513h7.478L3117.252,2292.25z"/>
				<path style="fill:#363B39;" d="M3132.341,2283.346h7.349l4.885,19.627h0.086l6.398-19.627h6.269l6.354,20.144h0.088
					l5.143-20.144h6.83l-8.948,30.607h-6.009l-6.744-21.182h-0.086l-6.744,21.182h-5.792L3132.341,2283.346z"/>
			</g>
		</g>
		<g>
			<g>
				<path style="fill:#E07165;" d="M3165.245,2127.146v125.168h-460.259c-15.529,0-28.107-12.003-28.107-26.822v-71.525
					c0-14.819,12.578-26.822,28.107-26.822H3165.245z"/>
				<path style="fill:#CC5C50;" d="M3181.211,2136.086v107.287h9.864v8.941h-182.894c-16.324,0-29.591-12.003-29.591-26.822v-71.525
					c0-14.819,13.266-26.822,29.591-26.822h182.894v8.94H3181.211z"/>
				<path style="fill:#FFFFFF;" d="M3008.181,2243.374c-10.877,0-19.727-8.021-19.727-17.881v-71.525
					c0-9.86,8.85-17.881,19.727-17.881h173.03v107.287H3008.181z"/>
				<rect x="3005.21" y="2144.608" style="fill:#E9EDEC;" width="92.47" height="2.235"/>
				<rect x="3112.783" y="2144.608" style="fill:#E9EDEC;" width="58.873" height="2.235"/>
				<rect x="3053.294" y="2160.254" style="fill:#E9EDEC;" width="51.783" height="2.235"/>
				<rect x="3125.421" y="2160.254" style="fill:#E9EDEC;" width="20.652" height="2.235"/>
				<rect x="3008.292" y="2191.267" style="fill:#E9EDEC;" width="59.181" height="2.235"/>
				<rect x="3080.419" y="2191.267" style="fill:#E9EDEC;" width="70.586" height="2.235"/>
				<rect x="3125.421" y="2212.78" style="fill:#E9EDEC;" width="37.913" height="2.235"/>
				<rect x="3010.758" y="2212.78" style="fill:#E9EDEC;" width="81.682" height="2.235"/>
				<rect x="3026.786" y="2232.617" style="fill:#E9EDEC;" width="46.235" height="2.235"/>
				<rect x="3098.296" y="2232.617" style="fill:#E9EDEC;" width="19.265" height="2.235"/>
			</g>
			<g>
				<path style="fill:#ECC887;" d="M3131.345,2051.157v75.449h-381.34c-12.713,0-18.017-7.227-18.017-16.161v-43.112
					c0-8.934,5.304-16.177,18.017-16.177H3131.345z"/>
				<path style="fill:#D4A95B;" d="M3138.543,2056.552v64.671h9.905v5.389h-183.667c-16.393,0-24.743-7.235-24.743-16.168v-43.114
					c0-8.933,8.35-16.168,24.743-16.168h183.667v5.389H3138.543z"/>
				<path style="fill:#FFFFFF;" d="M2962.4,2121.223c-11.073,0-15.108-4.835-15.108-10.779v-43.114
					c0-5.943,4.036-10.778,15.108-10.778h176.132v64.671H2962.4z"/>
				<rect x="2961.797" y="2061.688" style="fill:#E9EDEC;" width="92.861" height="1.347"/>
				<rect x="3069.826" y="2061.688" style="fill:#E9EDEC;" width="59.122" height="1.347"/>
				<rect x="3010.085" y="2071.119" style="fill:#E9EDEC;" width="52.002" height="1.347"/>
				<rect x="3082.517" y="2071.119" style="fill:#E9EDEC;" width="20.739" height="1.347"/>
				<rect x="2964.893" y="2089.813" style="fill:#E9EDEC;" width="59.431" height="1.347"/>
				<rect x="3037.324" y="2089.813" style="fill:#E9EDEC;" width="70.884" height="1.347"/>
				<rect x="3082.517" y="2102.781" style="fill:#E9EDEC;" width="38.073" height="1.347"/>
				<rect x="2967.369" y="2102.781" style="fill:#E9EDEC;" width="82.027" height="1.347"/>
				<rect x="2983.465" y="2114.739" style="fill:#E9EDEC;" width="46.431" height="1.347"/>
				<rect x="3055.278" y="2114.739" style="fill:#E9EDEC;" width="19.346" height="1.347"/>
				<path style="fill:#E9EDEC;" d="M2786.487,2126.606h-13.343c-0.646-2.039-0.978-4.376-0.978-7.044v-61.311
					c0-2.801,0.464-5.155,1.16-7.094h12.498c-0.597,0.265-1.16,0.613-1.641,1.044c-1.392,1.26-2.072,3.249-2.072,6.05v61.311
					C2782.111,2122.844,2782.111,2125.446,2786.487,2126.606z"/>
			</g>
		</g>
	</g>
	<g>
		<path style="fill:#82ACB0;" d="M1241.919,215.053c0-7.823,1.309-14.914,3.934-21.27c2.624-6.35,6.283-11.756,10.981-16.224
			c4.692-4.467,10.261-7.895,16.707-10.289c6.446-2.394,13.487-3.591,21.135-3.591c7.637,0,14.684,1.197,21.13,3.591
			c6.44,2.394,12.015,5.822,16.707,10.289c4.698,4.468,8.356,9.874,10.981,16.224c2.624,6.356,3.939,13.448,3.939,21.27
			c0,7.828-1.315,14.914-3.939,21.27c-2.624,6.35-6.283,11.762-10.981,16.224c-4.692,4.467-10.267,7.901-16.707,10.289
			c-6.446,2.394-13.493,3.591-21.13,3.591c-7.648,0-14.69-1.197-21.135-3.591c-6.446-2.388-12.015-5.822-16.707-10.289
			c-4.698-4.462-8.356-9.874-10.981-16.224C1243.228,229.968,1241.919,222.882,1241.919,215.053z M1264.291,215.053
			c0,4.608,0.714,8.817,2.141,12.638c1.427,3.821,3.473,7.137,6.142,9.941c2.669,2.81,5.872,4.996,9.598,6.564
			c3.731,1.562,7.896,2.343,12.504,2.343c4.602,0,8.767-0.781,12.498-2.343c3.726-1.568,6.923-3.754,9.598-6.564
			c2.669-2.804,4.715-6.12,6.142-9.941c1.427-3.821,2.141-8.03,2.141-12.638c0-4.507-0.714-8.699-2.141-12.565
			c-1.427-3.866-3.473-7.204-6.142-10.014c-2.675-2.81-5.872-4.996-9.598-6.558c-3.731-1.568-7.896-2.349-12.498-2.349
			c-4.608,0-8.772,0.781-12.504,2.349c-3.726,1.562-6.929,3.748-9.598,6.558c-2.669,2.81-4.715,6.148-6.142,10.014
			C1265.004,206.354,1264.291,210.546,1264.291,215.053z"/>
		<path style="fill:#82ACB0;" d="M1362.066,166.163h29.284l41.568,67.952h0.275v-67.952h21.546v97.781h-28.177l-42.675-69.604
			h-0.275v69.604h-21.546V166.163z"/>
		<path style="fill:#82ACB0;" d="M1475.452,166.163h21.545v77.893h39.91v19.888h-61.456V166.163z"/>
		<path style="fill:#82ACB0;" d="M1548.507,166.163h21.546v97.781h-21.546V166.163z"/>
		<path style="fill:#82ACB0;" d="M1589.659,166.163h29.284l41.568,67.952h0.275v-67.952h21.546v97.781h-28.177l-42.675-69.604
			h-0.275v69.604h-21.545V166.163z"/>
		<path style="fill:#82ACB0;" d="M1703.045,166.163h66.429v19.888h-44.884v18.23h42.4v19.888h-42.4v19.888h47.368v19.888h-68.913
			V166.163z"/>
		<path style="fill:#82ACB0;" d="M1862.282,166.163h17.814l42.535,97.781h-24.305l-8.424-20.714h-37.983l-8.148,20.714h-23.754
			L1862.282,166.163z M1870.565,194.615L1858.691,225h23.889L1870.565,194.615z"/>
		<path style="fill:#82ACB0;" d="M1932.437,166.163h36.325c5.063,0,9.851,0.461,14.364,1.382c4.507,0.922,8.446,2.512,11.807,4.765
			c3.36,2.253,6.03,5.294,8.013,9.115c1.978,3.821,2.967,8.632,2.967,14.431c0,5.71-0.922,10.497-2.765,14.364
			c-1.843,3.866-4.372,6.951-7.592,9.255c-3.226,2.298-7.047,3.934-11.464,4.9c-4.423,0.967-9.211,1.45-14.364,1.45h-15.746v38.118
			h-21.546V166.163z M1953.982,207.596h14.364c1.933,0,3.799-0.185,5.597-0.551c1.793-0.371,3.405-0.989,4.833-1.866
			c1.427-0.877,2.574-2.074,3.45-3.591c0.877-1.517,1.315-3.428,1.315-5.732c0-2.484-0.579-4.49-1.731-6.007
			c-1.152-1.517-2.624-2.692-4.417-3.523c-1.798-0.826-3.799-1.354-6.007-1.585c-2.208-0.23-4.327-0.348-6.356-0.348h-11.048
			V207.596z"/>
		<path style="fill:#82ACB0;" d="M2019.445,166.163h36.325c5.063,0,9.851,0.461,14.364,1.382c4.507,0.922,8.446,2.512,11.807,4.765
			c3.36,2.253,6.03,5.294,8.013,9.115c1.978,3.821,2.967,8.632,2.967,14.431c0,5.71-0.922,10.497-2.765,14.364
			c-1.843,3.866-4.372,6.951-7.592,9.255c-3.226,2.298-7.047,3.934-11.464,4.9c-4.423,0.967-9.211,1.45-14.364,1.45h-15.746v38.118
			h-21.546V166.163z M2040.99,207.596h14.364c1.933,0,3.799-0.185,5.597-0.551c1.793-0.371,3.406-0.989,4.833-1.866
			c1.427-0.877,2.574-2.074,3.45-3.591c0.877-1.517,1.315-3.428,1.315-5.732c0-2.484-0.579-4.49-1.731-6.007
			c-1.152-1.517-2.624-2.692-4.417-3.523c-1.798-0.826-3.799-1.354-6.007-1.585c-2.208-0.23-4.327-0.348-6.356-0.348h-11.048
			V207.596z"/>
		<path style="fill:#82ACB0;" d="M2107.279,166.163h66.429v19.888h-44.884v18.23h42.4v19.888h-42.4v19.888h47.368v19.888h-68.913
			V166.163z"/>
		<path style="fill:#82ACB0;" d="M2225.638,166.163h17.814l42.535,97.781h-24.305l-8.424-20.714h-37.983l-8.148,20.714h-23.754
			L2225.638,166.163z M2233.922,194.615L2222.048,225h23.889L2233.922,194.615z"/>
		<path style="fill:#82ACB0;" d="M2296.625,166.163h21.546v77.893h39.91v19.888h-61.456V166.163z"/>
	</g>
</g>
</svg>
