<?xml version="1.0" encoding="utf-8"?>
<!-- Generator: Adobe Illustrator 27.5.0, SVG Export Plug-In . SVG Version: 6.00 Build 0)  -->
<svg version="1.1" id="Layer_1" xmlns="http://www.w3.org/2000/svg" xmlns:xlink="http://www.w3.org/1999/xlink" x="0px" y="0px"
	 viewBox="0 0 5000 5000" style="enable-background:new 0 0 5000 5000;" xml:space="preserve">
<g id="Card_Payment">
	<g>
		<g>
			<ellipse style="fill:#E7ECFF;" cx="2102.753" cy="4390.595" rx="1752.753" ry="64.007"/>
			<path style="fill:#F5F7FF;" d="M2483.508,1748.792c-110.133-28.595-198.657-112.705-260.552-208.183
				c-61.895-95.478-101.483-203.294-147.844-307.205c-78.633-176.246-180.029-345.878-323.287-475.193
				c-143.259-129.316-332.614-215.302-525.367-205.724c-192.754,9.578-383.937,126.438-453.749,306.36
				c-78.752,202.964,5.483,435.126,132.269,612.104s294.733,322.164,415.136,503.545
				c120.404,181.381,187.905,422.704,87.956,616.111c-81.25,157.224-250.415,244.301-405.342,329.85
				c-154.927,85.549-317.707,194.684-365.031,365.217c-62.635,225.705,117.404,461.227,336.257,544.71
				s462.395,54.797,694.716,24.912c376.099-48.381,752.197-96.762,1128.295-145.143c159.57-20.527,322.259-41.949,467.409-111.342
				c145.15-69.393,272.43-196.181,299.771-354.726c27.056-156.894-43.109-331.86,34.87-470.667
				c67.306-119.808,219.402-161.687,356.635-168.857s280.105,8.036,407.587-43.271c247.714-99.697,339.434-426.433,257.58-680.602
				s-290.234-445.751-504.006-605.762c-162.929-121.954-347.851-237.325-551.35-234.707
				c-174.371,2.243-338.16,93.229-463.419,214.558C2927.526,1423.817,2796.869,1830.154,2483.508,1748.792z"/>
			<g>
				<g>
					<g>
						<path style="fill:#DBE5FF;" d="M3974.932,929.182l-8.316-1.148c2.678-19.405,3.502-38.867,2.452-57.862l8.382-0.459
							C3978.533,889.232,3977.688,909.244,3974.932,929.182z"/>
					</g>
					<g>
						<path style="fill:#DBE5FF;" d="M2716.848,3394.886c-29.837-24.211-61.771-46.495-94.917-66.244l4.298-7.217
							c33.491,19.954,65.76,42.476,95.909,66.933L2716.848,3394.886z M2518.5,3276.685c-35.751-14.845-72.707-27.115-109.836-36.481
							l2.05-8.136c37.526,9.457,74.876,21.857,111.009,36.858L2518.5,3276.685z M1714.83,3255.443l-0.213-8.398
							c34.619-0.861,72.539-3.24,115.917-7.267l0.779,8.366C1787.738,3252.187,1749.637,3254.573,1714.83,3255.443z
							 M1598.014,3252.17c-38.437-3.363-77.325-9.136-115.585-17.158l1.722-8.218c37.932,7.956,76.488,13.68,114.593,17.01
							L1598.014,3252.17z M1947.189,3235.677l-0.96-8.349c37.707-4.322,76.697-8.792,115.909-12.344l0.755,8.366
							C2023.784,3226.893,1984.847,3231.355,1947.189,3235.677z M2294.654,3220.455c-29.354-2.862-59.425-4.249-91.94-4.249
							c-7.956,0.008-15.923,0.09-23.887,0.254l-0.172-8.398c8.021-0.164,16.038-0.246,24.055-0.254
							c32.794,0,63.132,1.402,92.756,4.281L2294.654,3220.455z M1369.637,3204.486c-36.595-12.179-73.158-26.631-108.679-42.96
							l3.51-7.627c35.238,16.198,71.514,30.534,107.818,42.615L1369.637,3204.486z M1157.519,3107.133
							c-33.249-19.782-65.949-41.598-97.189-64.85l5.011-6.742c31.01,23.088,63.468,44.74,96.475,64.375L1157.519,3107.133z
							 M970.28,2967.821c-28.669-26.27-56.255-54.278-81.991-83.23l6.274-5.577c25.548,28.738,52.933,56.533,81.393,82.623
							L970.28,2967.821z M815.291,2793.365c-22.755-31.699-43.948-64.801-62.992-98.411l7.308-4.134
							c18.896,33.339,39.925,66.195,62.508,97.64L815.291,2793.365z M700.021,2590.474c-15.485-35.316-29.468-72.043-41.566-109.171
							l7.988-2.608c12.007,36.874,25.893,73.339,41.271,108.4L700.021,2590.474z M627.601,2368.653
							c-8.431-37.654-15.255-76.357-20.274-115.028l8.329-1.083c4.987,38.424,11.765,76.865,20.139,114.273L627.601,2368.653z
							 M597.456,2137.261c-0.734-18.027-1.103-36.341-1.103-54.45c-0.004-20.627,0.48-41.599,1.435-62.34l8.39,0.394
							c-0.951,20.602-1.431,41.443-1.427,61.947c0,17.994,0.369,36.202,1.095,54.106L597.456,2137.261z M616.48,1905.255
							l-8.325-1.099c5.089-38.457,11.901-77.152,20.25-115.011l8.202,1.804C628.311,1828.578,621.54,1867.035,616.48,1905.255z
							 M666.444,1678.792l-8.013-2.51c6.258-19.995,13.053-40.04,20.188-59.576c6.11-16.723,12.659-33.635,19.466-50.251
							l7.775,3.182c-6.77,16.518-13.278,33.323-19.352,49.956C679.415,1638.998,672.665,1658.92,666.444,1678.792z
							 M754.217,1464.132l-7.488-3.806c17.457-34.356,36.624-68.639,56.968-101.905l7.168,4.38
							C790.633,1395.878,771.576,1429.972,754.217,1464.132z M3119.772,1401.496c-38.584-0.172-77.829-2.018-116.639-5.479
							l0.746-8.366c38.576,3.445,77.579,5.274,115.934,5.446L3119.772,1401.496z M3236.468,1396.985l-0.689-8.366
							c38.638-3.19,77.37-8.111,115.118-14.64l1.427,8.284C3314.338,1388.824,3275.356,1393.778,3236.468,1396.985z
							 M2887.359,1380.762c-38.223-6.66-76.615-15.009-114.104-24.802l2.124-8.12c37.264,9.727,75.426,18.027,113.424,24.654
							L2887.359,1380.762z M3466.388,1357.117l-2.19-8.103c37.407-10.088,74.573-22.021,110.459-35.464l2.945,7.857
							C3541.469,1334.948,3504.05,1346.964,3466.388,1357.117z M2661.59,1321.793c-36.682-12.917-73.158-27.516-108.421-43.378
							l3.445-7.66c35.05,15.772,71.309,30.28,107.765,43.116L2661.59,1321.793z M3684.833,1274.995l-3.756-7.513
							c37.149-18.601,69.673-37.949,99.424-59.15l4.872,6.84C3755.265,1236.627,3722.38,1256.197,3684.833,1274.995z
							 M875.175,1266.12l-6.816-4.904c22.522-31.248,46.651-62.242,71.719-92.12l6.43,5.397
							C921.575,1204.215,897.573,1235.045,875.175,1266.12z M2448.815,1225.965c-34.073-19.003-67.516-39.638-99.399-61.315
							l4.724-6.938c31.678,21.537,64.907,42.033,98.768,60.922L2448.815,1225.965z M3873.265,1137.749l-6.233-5.626
							c26.282-29.107,48.16-61.004,65.031-94.81l7.513,3.756C3922.368,1075.548,3900.056,1108.076,3873.265,1137.749z
							 M2255.914,1094.674c-30.112-24.752-59.257-51.104-86.625-78.317l5.922-5.954c27.184,27.024,56.127,53.195,86.035,77.792
							L2255.914,1094.674z M1024.288,1088.252l-6.036-5.839c26.852-27.738,55.135-54.984,84.075-80.983l5.61,6.25
							C1079.144,1033.548,1051,1060.654,1024.288,1088.252z M1196.936,933.045l-5.175-6.61
							c30.535-23.875,62.271-47.003,94.327-68.754l4.716,6.955C1258.903,886.272,1227.318,909.293,1196.936,933.045z
							 M2090.348,930.339l-15.903-18.659c-19.553-22.981-39.766-46.749-60.425-69.082l6.168-5.708
							c20.775,22.472,41.049,46.298,60.655,69.353l15.886,18.634L2090.348,930.339z M1389.058,802.714l-4.216-7.267l3.305-1.919
							c34.352-19.954,68.163-37.367,100.49-51.768l3.42,7.677c-32.056,14.271-65.596,31.552-99.695,51.358L1389.058,802.714z
							 M1929.293,764.043c-26.602-19.971-52.95-35.127-80.544-46.339c-6.738-2.731-13.643-5.257-20.529-7.505l2.608-7.988
							c7.07,2.313,14.16,4.904,21.078,7.718c28.279,11.482,55.242,26.991,82.43,47.405L1929.293,764.043z M1600.955,710.454
							l-2.141-8.12c40.303-10.621,79.305-16.313,115.934-16.92l0.139,8.398C1678.935,694.403,1640.601,700.005,1600.955,710.454z"/>
					</g>
					<g>
						<path style="fill:#DBE5FF;" d="M2839.466,3519.575c-11.892-15.239-24.584-30.264-37.728-44.666l6.2-5.659
							c13.291,14.558,26.122,29.747,38.146,45.158L2839.466,3519.575z"/>
					</g>
				</g>
				<g>
					<g>
						
							<linearGradient id="SVGID_1_" gradientUnits="userSpaceOnUse" x1="-1871.0522" y1="-13.3502" x2="-1764.2468" y2="-13.3502" gradientTransform="matrix(0.9694 -0.2457 0.2457 0.9694 5781.873 350.7219)">
							<stop  offset="0" style="stop-color:#E7ECFF"/>
							<stop  offset="1" style="stop-color:#C2D5FF"/>
						</linearGradient>
						<path style="fill:url(#SVGID_1_);" d="M4073.059,789.969c0.368,0.956,0.006,2.013-0.87,2.53l-92.294,54.075
							c-0.138,0.119-0.335,0.169-0.532,0.219c-0.671,0.17-1.391-0.024-1.897-0.527c-0.663-0.629-0.795-1.645-0.363-2.426
							l66.643-118.688c0.412-0.693,1.151-1.089,1.921-1.033c0.77,0.057,1.482,0.548,1.751,1.277L4073.059,789.969z"/>
					</g>
					<g>
						
							<linearGradient id="SVGID_00000044899837620126904580000014303160507539548842_" gradientUnits="userSpaceOnUse" x1="-1857.767" y1="-45.7747" x2="-1387.0759" y2="-45.7747" gradientTransform="matrix(0.9694 -0.2457 0.2457 0.9694 5781.873 350.7219)">
							<stop  offset="0" style="stop-color:#E7ECFF"/>
							<stop  offset="1" style="stop-color:#C2D5FF"/>
						</linearGradient>
						<path style="fill:url(#SVGID_00000044899837620126904580000014303160507539548842_);" d="M4400.417,546.482
							c0.397,0.739,0.292,1.647-0.259,2.291L4108.46,882.124c-0.295,0.327-0.659,0.545-1.054,0.645
							c-0.237,0.06-0.523,0.091-0.829,0.042c-0.702-0.116-1.285-0.598-1.534-1.248l-79.729-200.815l-91.141-60.316
							c-0.702-0.451-1.041-1.29-0.875-2.129c0.214-0.81,0.814-1.424,1.702-1.565l463.302-71.316
							C4399.15,545.292,4400.01,545.704,4400.417,546.482z"/>
					</g>
					<g>
						<path style="fill:#C2D5FF;" d="M4290.54,589.481c0.457,0.976,0.066,2.082-0.85,2.609l-242.67,135.548l-66.348,118.193
							c-0.295,0.495-0.758,0.821-1.31,0.961c-0.395,0.1-0.858,0.093-1.283-0.094c-0.939-0.392-1.455-1.436-1.163-2.435
							l48.125-165.419c0.176-0.632,0.677-1.137,1.289-1.376l261.71-89.074C4289.084,588.045,4290.132,588.535,4290.54,589.481z"/>
					</g>
				</g>
			</g>
			
				<linearGradient id="SVGID_00000162319390347017120810000016588435373781089206_" gradientUnits="userSpaceOnUse" x1="1469.5598" y1="2625.2681" x2="3430.0786" y2="2625.2681">
				<stop  offset="3.200000e-07" style="stop-color:#78A7FF"/>
				<stop  offset="1" style="stop-color:#3D79F3"/>
			</linearGradient>
			<path style="fill:url(#SVGID_00000162319390347017120810000016588435373781089206_);" d="M3430.079,1105.863v3038.81
				c0,152.448-124.045,276.494-276.493,276.494H1746.053c-152.448,0-276.493-124.046-276.493-276.494v-3038.81
				c0-152.448,124.045-276.494,276.493-276.494h1407.533C3306.034,829.37,3430.079,953.415,3430.079,1105.863z"/>
			
				<linearGradient id="SVGID_00000036220324796785714490000015762372211553621934_" gradientUnits="userSpaceOnUse" x1="1554.334" y1="2625.2681" x2="3345.3042" y2="2625.2681">
				<stop  offset="0" style="stop-color:#E7ECFF"/>
				<stop  offset="1" style="stop-color:#C2D5FF"/>
			</linearGradient>
			<path style="fill:url(#SVGID_00000036220324796785714490000015762372211553621934_);" d="M3345.304,1105.863v3038.81
				c0,105.445-86.273,191.719-191.719,191.719H1746.053c-105.445,0-191.719-86.273-191.719-191.719v-3038.81
				c0-105.445,86.273-191.719,191.719-191.719h199.467c17.65,0,31.957,14.308,31.957,31.957v34.704
				c0,61.943,50.215,112.158,112.158,112.158h720.366c61.944,0,112.159-50.215,112.159-112.158v-34.704
				c0-17.65,14.308-31.957,31.957-31.957h199.468C3259.031,914.145,3345.304,1000.418,3345.304,1105.863z"/>
			<g>
				<path style="fill:#FFFFFF;" d="M3226.592,1234.472c0,49.452-39.995,89.449-89.449,89.449c-49.372,0-89.447-39.997-89.447-89.449
					c0-49.374,40.075-89.449,89.447-89.449C3186.597,1145.022,3226.592,1185.098,3226.592,1234.472z"/>
				<g>
					<g>
						<path style="fill:#3F7AF3;" d="M3105.46,1274.552c-2.149,0-4.298-0.82-5.938-2.461c-3.281-3.281-3.281-8.595,0-11.876
							l63.365-63.366c3.281-3.281,8.595-3.281,11.876,0c3.281,3.281,3.281,8.595,0,11.876l-63.366,63.366
							C3109.758,1273.731,3107.609,1274.552,3105.46,1274.552z"/>
					</g>
					<g>
						<path style="fill:#3F7AF3;" d="M3168.826,1274.552c-2.149,0-4.298-0.82-5.938-2.461l-63.365-63.366
							c-3.281-3.281-3.281-8.595,0-11.876c3.281-3.281,8.595-3.281,11.876,0l63.366,63.366c3.281,3.281,3.281,8.595,0,11.876
							C3173.123,1273.731,3170.974,1274.552,3168.826,1274.552z"/>
					</g>
				</g>
			</g>
			<path style="fill:#FFFFFF;" d="M3226.592,2705.078V1497.719c0-49.573-40.187-89.76-89.76-89.76H1762.807
				c-49.573,0-89.76,40.187-89.76,89.76v1207.359c0,49.573,40.187,89.76,89.76,89.76h1374.025
				C3186.405,2794.838,3226.592,2754.652,3226.592,2705.078z"/>
			<path style="fill:#C2D5FF;" d="M1554.333,4028.31v116.361c0,105.45,86.276,191.722,191.718,191.722h1407.534
				c105.446,0,191.718-86.272,191.718-191.722V4028.31H1554.333z"/>
			<g>
				<path style="fill:#FFFFFF;" d="M2536.829,963.33L2536.829,963.33c0,15.438-12.514,27.952-27.952,27.952h-218.834
					c-15.438,0-27.952-12.515-27.952-27.952l0,0c0-15.437,12.515-27.952,27.952-27.952h218.834
					C2524.315,935.378,2536.829,947.892,2536.829,963.33z"/>
				<path style="fill:#FFFFFF;" d="M2637.547,963.36c0,17.549-14.245,31.794-31.794,31.794c-17.609,0-31.854-14.245-31.854-31.794
					c0-17.611,14.245-31.854,31.854-31.854C2623.302,931.506,2637.547,945.749,2637.547,963.36z"/>
			</g>
			<path style="fill:#78A7FF;" d="M3484.114,1648.468v431.966c0,15.647-12.685,28.332-28.332,28.332h-25.703v-488.629h25.703
				C3471.429,1620.137,3484.114,1632.821,3484.114,1648.468z"/>
			<g>
				<g>
					<path style="fill:#78A7FF;" d="M1469.56,1352.218v171.491h-34.179c-5.478,0-9.919-4.441-9.919-9.918v-151.654
						c0-5.478,4.441-9.918,9.919-9.918H1469.56z"/>
					<path style="fill:#78A7FF;" d="M1469.56,1637.4v262.014h-34.179c-5.478,0-9.919-4.441-9.919-9.918v-242.177
						c0-5.478,4.441-9.918,9.919-9.918H1469.56z"/>
					<path style="fill:#78A7FF;" d="M1469.56,2005.507v262.014h-34.179c-5.478,0-9.919-4.441-9.919-9.918v-242.177
						c0-5.478,4.441-9.918,9.919-9.918H1469.56z"/>
				</g>
			</g>
			<g>
				<path style="fill:#FFFFFF;" d="M2023.633,1165.31L2023.633,1165.31c0,8.216-6.661,14.877-14.877,14.877h-320.833
					c-8.216,0-14.877-6.661-14.877-14.877l0,0c0-8.216,6.661-14.877,14.877-14.877h320.833
					C2016.972,1150.433,2023.633,1157.094,2023.633,1165.31z"/>
				<path style="fill:#FFFFFF;" d="M2023.633,1234.472L2023.633,1234.472c0,8.216-6.661,14.877-14.877,14.877h-320.833
					c-8.216,0-14.877-6.661-14.877-14.877l0,0c0-8.216,6.661-14.877,14.877-14.877h320.833
					C2016.972,1219.595,2023.633,1226.255,2023.633,1234.472z"/>
				<path style="fill:#FFFFFF;" d="M1917.9,1303.633L1917.9,1303.633c0,8.216-6.661,14.877-14.877,14.877h-215.1
					c-8.216,0-14.877-6.661-14.877-14.877v0c0-8.216,6.661-14.877,14.877-14.877h215.1
					C1911.239,1288.756,1917.9,1295.417,1917.9,1303.633z"/>
			</g>
			<g>
				
					<linearGradient id="SVGID_00000139253406913590056520000015728378838661674670_" gradientUnits="userSpaceOnUse" x1="1806.6418" y1="2063.6072" x2="3081.4087" y2="2063.6072">
					<stop  offset="0" style="stop-color:#E7ECFF"/>
					<stop  offset="1" style="stop-color:#C2D5FF"/>
				</linearGradient>
				<path style="fill:url(#SVGID_00000139253406913590056520000015728378838661674670_);" d="M3081.409,1732.3v662.615
					c0,36.574-29.649,66.223-66.223,66.223H1872.865c-36.574,0-66.223-29.649-66.223-66.223V1732.3
					c0-36.574,29.649-66.223,66.223-66.223h1142.321C3051.76,1666.077,3081.409,1695.726,3081.409,1732.3z"/>
				<g>
					<path style="fill:#FFFFFF;" d="M2253.104,1737.314l-58.769,0c-9.9,0-17.926,8.026-17.926,17.926l0,0
						c0,9.9,8.026,17.926,17.926,17.926h59.734c10.886,0,19.509-9.709,17.68-20.938
						C2270.313,1743.414,2262.034,1737.314,2253.104,1737.314z"/>
					<path style="fill:#FFFFFF;" d="M2104.938,1737.314l-179.415,0c-8.93,0-17.209,6.099-18.645,14.913
						c-1.829,11.229,6.794,20.938,17.68,20.938h180.38c9.9,0,17.926-8.026,17.926-17.926l0,0
						C2122.864,1745.34,2114.838,1737.314,2104.938,1737.314z"/>
				</g>
				<g>
					<path style="fill:#FFFFFF;" d="M2426.89,2327.72h-95.451c-7.588,0-13.739,6.151-13.739,13.739l0,0
						c0,7.588,6.151,13.739,13.739,13.739h96.191c8.343,0,14.952-7.442,13.55-16.048
						C2440.08,2332.395,2433.735,2327.72,2426.89,2327.72z"/>
					<path style="fill:#FFFFFF;" d="M2262.923,2327.72h-341.812c-6.844,0-13.189,4.675-14.29,11.43
						c-1.402,8.606,5.207,16.048,13.55,16.048h342.551c7.588,0,13.739-6.151,13.739-13.739l0,0
						C2276.662,2333.871,2270.51,2327.72,2262.923,2327.72z"/>
				</g>
				<g>
					<path style="fill:#FFFFFF;" d="M2231.665,1856.471v191.436c0,10.534-8.539,19.073-19.073,19.073h-286.886
						c-10.534,0-19.073-8.539-19.073-19.073v-191.436c0-10.534,8.539-19.073,19.073-19.073h286.886
						C2223.125,1837.398,2231.665,1845.937,2231.665,1856.471z"/>
					<g>
						<polygon style="fill:#C2D5FF;" points="2017.932,1837.398 2017.932,2066.936 2006.923,2066.936 2006.923,1997.797 
							1906.633,1997.797 1906.633,1986.788 2006.923,1986.788 2006.923,1917.546 1906.633,1917.546 1906.633,1906.537 
							2006.923,1906.537 2006.923,1837.398 						"/>
						<path style="fill:#C2D5FF;" d="M2131.435,1917.546v69.242h100.183v11.009h-100.183v69.139h-11.009v-154.895
							c0-3.086,2.424-5.504,5.504-5.504h105.688v11.009H2131.435z"/>
					</g>
				</g>
				<g>
					<path style="fill:#FFFFFF;" d="M2053.056,2189.677v57.773c0,6.88-5.578,12.458-12.458,12.458h-136.124
						c-6.88,0-12.458-5.578-12.458-12.458v-57.773c0-6.88,5.578-12.458,12.458-12.458h136.124
						C2047.478,2177.219,2053.056,2182.796,2053.056,2189.677z"/>
					<path style="fill:#FFFFFF;" d="M2288.8,2189.677v57.773c0,6.88-5.577,12.458-12.458,12.458h-136.124
						c-6.88,0-12.458-5.578-12.458-12.458v-57.773c0-6.88,5.577-12.458,12.458-12.458h136.124
						C2283.223,2177.219,2288.8,2182.796,2288.8,2189.677z"/>
					<path style="fill:#FFFFFF;" d="M2524.545,2189.677v57.773c0,6.88-5.578,12.458-12.458,12.458h-136.124
						c-6.88,0-12.458-5.578-12.458-12.458v-57.773c0-6.88,5.577-12.458,12.458-12.458h136.124
						C2518.967,2177.219,2524.545,2182.796,2524.545,2189.677z"/>
					<path style="fill:#FFFFFF;" d="M2760.29,2189.677v57.773c0,6.88-5.578,12.458-12.458,12.458h-136.124
						c-6.88,0-12.458-5.578-12.458-12.458v-57.773c0-6.88,5.578-12.458,12.458-12.458h136.124
						C2754.712,2177.219,2760.29,2182.796,2760.29,2189.677z"/>
					<path style="fill:#FFFFFF;" d="M2996.034,2189.677v57.773c0,6.88-5.577,12.458-12.458,12.458h-136.124
						c-6.88,0-12.458-5.578-12.458-12.458v-57.773c0-6.88,5.578-12.458,12.458-12.458h136.124
						C2990.457,2177.219,2996.034,2182.796,2996.034,2189.677z"/>
				</g>
			</g>
			<path style="fill:#FFFFFF;" d="M3226.575,3003.633v332.172c0,39.221-31.795,71.016-71.016,71.016H1744.043
				c-39.221,0-71.016-31.795-71.016-71.016v-332.172c0-39.221,31.795-71.016,71.016-71.016h1411.516
				C3194.78,2932.617,3226.575,2964.412,3226.575,3003.633z"/>
			<g>
				
					<linearGradient id="SVGID_00000150821226328977570280000016030943190695778746_" gradientUnits="userSpaceOnUse" x1="1777.6528" y1="3169.7192" x2="2118.8354" y2="3169.7192">
					<stop  offset="0" style="stop-color:#E7ECFF"/>
					<stop  offset="1" style="stop-color:#C2D5FF"/>
				</linearGradient>
				<path style="fill:url(#SVGID_00000150821226328977570280000016030943190695778746_);" d="M2118.835,3169.717
					c0,94.168-76.502,170.513-170.67,170.513c-94.169,0-170.512-76.346-170.512-170.513c0-94.168,76.344-170.51,170.512-170.51
					C2042.333,2999.208,2118.835,3075.549,2118.835,3169.717z"/>
				
					<linearGradient id="SVGID_00000003794510661779003610000006984797063191931823_" gradientUnits="userSpaceOnUse" x1="1819.7283" y1="3169.7759" x2="2076.759" y2="3169.7759">
					<stop  offset="2.200000e-07" style="stop-color:#FFBB83"/>
					<stop  offset="1" style="stop-color:#FF9D45"/>
				</linearGradient>
				<path style="fill:url(#SVGID_00000003794510661779003610000006984797063191931823_);" d="M2076.759,3169.696
					c0,30.19-10.384,57.986-27.955,80.032c-23.642,29.551-59.905,48.563-100.64,48.563c-40.736,0-76.997-19.013-100.64-48.563
					c-17.412-22.047-27.796-49.842-27.796-80.032c0-70.93,57.509-128.436,128.436-128.436
					C2019.091,3041.26,2076.759,3098.766,2076.759,3169.696z"/>
				<g>
					<path style="fill:#FFFFFF;" d="M2048.804,3249.729c-23.642,29.551-59.905,48.563-100.64,48.563
						c-40.736,0-76.997-19.013-100.64-48.563c23.643-29.554,59.905-48.563,100.64-48.563
						C1988.899,3201.165,2025.162,3220.174,2048.804,3249.729z"/>
					<path style="fill:#FFFFFF;" d="M1996.567,3164.827c0,26.676-21.565,48.403-48.243,48.403
						c-26.837,0-48.402-21.727-48.402-48.403c0-26.68,21.565-48.403,48.402-48.403
						C1975.001,3116.423,1996.567,3138.146,1996.567,3164.827z"/>
				</g>
			</g>
			
				<linearGradient id="SVGID_00000066505235027162762770000001842343828315052446_" gradientUnits="userSpaceOnUse" x1="2284.3496" y1="3110.7419" x2="3068.4854" y2="3110.7419">
				<stop  offset="0" style="stop-color:#E7ECFF"/>
				<stop  offset="1" style="stop-color:#C2D5FF"/>
			</linearGradient>
			<path style="fill:url(#SVGID_00000066505235027162762770000001842343828315052446_);" d="M3068.485,3110.742L3068.485,3110.742
				c0,25.795-20.911,46.707-46.707,46.707h-690.723c-25.795,0-46.707-20.911-46.707-46.707l0,0
				c0-25.795,20.911-46.707,46.707-46.707h690.723C3047.574,3064.035,3068.485,3084.947,3068.485,3110.742z"/>
			
				<linearGradient id="SVGID_00000003827583335227988330000004340160709742592682_" gradientUnits="userSpaceOnUse" x1="2284.3496" y1="3217.9678" x2="3068.4854" y2="3217.9678">
				<stop  offset="0" style="stop-color:#E7ECFF"/>
				<stop  offset="1" style="stop-color:#C2D5FF"/>
			</linearGradient>
			<path style="fill:url(#SVGID_00000003827583335227988330000004340160709742592682_);" d="M2795.106,3203.263h-496.052
				c-8.121,0-14.704,6.583-14.704,14.705l0,0c0,8.121,6.583,14.705,14.704,14.705h496.052c8.121,0,14.705-6.583,14.705-14.705l0,0
				C2809.811,3209.847,2803.228,3203.263,2795.106,3203.263z"/>
			
				<linearGradient id="SVGID_00000075155887619443861780000011597882448227991206_" gradientUnits="userSpaceOnUse" x1="2284.3503" y1="3217.9678" x2="3068.4854" y2="3217.9678">
				<stop  offset="0" style="stop-color:#E7ECFF"/>
				<stop  offset="1" style="stop-color:#C2D5FF"/>
			</linearGradient>
			<path style="fill:url(#SVGID_00000075155887619443861780000011597882448227991206_);" d="M2896.703,3217.968L2896.703,3217.968
				c0,8.121,6.583,14.705,14.705,14.705h142.373c8.121,0,14.704-6.583,14.704-14.705l0,0c0-8.121-6.583-14.705-14.704-14.705
				h-142.373C2903.287,3203.263,2896.703,3209.847,2896.703,3217.968z"/>
			
				<linearGradient id="SVGID_00000152950956527055376330000005295714719787055026_" gradientUnits="userSpaceOnUse" x1="2284.3496" y1="3286.5269" x2="3068.4871" y2="3286.5269">
				<stop  offset="0" style="stop-color:#E7ECFF"/>
				<stop  offset="1" style="stop-color:#C2D5FF"/>
			</linearGradient>
			<path style="fill:url(#SVGID_00000152950956527055376330000005295714719787055026_);" d="M2657.682,3271.824h-358.63
				c-8.12,0-14.702,6.583-14.702,14.702v0c0,8.12,6.582,14.702,14.702,14.702h358.63c8.12,0,14.702-6.583,14.702-14.702v0
				C2672.385,3278.407,2665.802,3271.824,2657.682,3271.824z"/>
			<path style="fill:#FFFFFF;" d="M2571.218,4176.104L2571.218,4176.104c0,19.181-15.55,34.731-34.731,34.731h-173.339
				c-19.181,0-34.731-15.55-34.731-34.731l0,0c0-19.181,15.55-34.731,34.731-34.731h173.339
				C2555.668,4141.373,2571.218,4156.922,2571.218,4176.104z"/>
			
				<linearGradient id="SVGID_00000023263568431277139610000006328816336127038398_" gradientUnits="userSpaceOnUse" x1="2092.4697" y1="3730.6995" x2="2807.1321" y2="3730.6995">
				<stop  offset="3.200000e-07" style="stop-color:#A7C161"/>
				<stop  offset="1" style="stop-color:#8BA53A"/>
			</linearGradient>
			<path style="fill:url(#SVGID_00000023263568431277139610000006328816336127038398_);" d="M2807.132,3635.265v190.869
				c0,37.087-30.065,67.153-67.153,67.153h-580.356c-37.087,0-67.153-30.065-67.153-67.153v-190.869
				c0-37.088,30.065-67.153,67.153-67.153h580.356C2777.067,3568.112,2807.132,3598.177,2807.132,3635.265z"/>
			<g>
				<path style="fill:#FFFFFF;" d="M2431.268,3787.53c-5.507,0-11.002-2.149-15.12-6.422l-38.855-40.302
					c-8.05-8.349-7.804-21.644,0.541-29.69c8.357-8.046,21.648-7.8,29.69,0.541l24.437,25.351l60.819-57.419
					c8.435-7.956,21.722-7.578,29.682,0.861c7.96,8.431,7.578,21.718-0.853,29.682l-75.93,71.674
					C2441.623,3785.627,2436.439,3787.53,2431.268,3787.53z"/>
			</g>
			<g>
				<g>
					<polygon style="fill:#FDCCC5;" points="649.85,4180.893 664.911,4284.089 536.967,4276.997 542.624,4174.949 					"/>
					
						<linearGradient id="SVGID_00000064326298255383750080000009857695667418785961_" gradientUnits="userSpaceOnUse" x1="1930.8756" y1="3361.3994" x2="2311.0583" y2="3361.3994" gradientTransform="matrix(-0.9985 -0.0553 -0.0553 0.9985 2874.6785 128.5904)">
						<stop  offset="2.200000e-07" style="stop-color:#5C5CA0"/>
						<stop  offset="1" style="stop-color:#434389"/>
					</linearGradient>
					<path style="fill:url(#SVGID_00000064326298255383750080000009857695667418785961_);" d="M438.163,2565.346l87.575,1604.832
						c-0.747,13.464,143.059,21.436,143.806,7.972l133.428-1612.804H438.163z"/>
					<g>
						
							<linearGradient id="SVGID_00000161589200868219737270000015784344958109221801_" gradientUnits="userSpaceOnUse" x1="167.6585" y1="4277.9839" x2="544.3914" y2="4277.9839" gradientTransform="matrix(0.9985 0.0553 -0.0553 0.9985 565.1896 -0.019)">
							<stop  offset="1.100000e-07" style="stop-color:#B3B3FF"/>
							<stop  offset="1" style="stop-color:#C2D5FF"/>
						</linearGradient>
						<path style="fill:url(#SVGID_00000161589200868219737270000015784344958109221801_);" d="M869.571,4348.039
							c-0.005,0.084-0.005,0.084-0.005,0.084l-0.014,0.252c0.02,13.285-8.207,25.188-20.827,29.871
							c-24.294,8.995-70.726,19.957-130.177,4.891c-88.879-22.667-173.354-17.094-206.813-15.669
							c-11.8,0.524-17.241-16.594-17.817-39.582c-0.028-1.009-0.056-2.021-0.001-3.026c-0.219-37.009,11.967-86.951,31.347-102.861
							c1.234-1.023,2.459-1.879,3.762-2.649c1.565-0.923,3.199-1.588,4.904-1.999c25.23-6.168,69.087,58.146,100.321,27.087
							c3.464-3.339,2.835-10.185,1.772-18.315c-0.471-3.643-1.007-7.624-1.375-11.596c-0.322-3.868,0.885-7.805,2.762-11.448
							c4.837-9.387,17.679-10.954,25.129-3.469c5.927,5.956,14.352,14.104,25.887,24.625c2.082,1.881,4.061,4.093,6.125,6.309
							c1.434,1.424,2.864,2.934,4.378,4.447c5.24,5.588,10.596,10.593,15.896,15.09c2.245,1.974,4.499,3.782,6.669,5.584
							c5.808,4.442,11.471,8.455,17.241,12.055c2.436,1.563,4.876,3.043,7.405,4.446c49.981,28.164,95.418,24.542,110.61,40.183
							c9.631,9.784,12.404,23.474,12.769,35.098C869.594,4347.619,869.58,4347.871,869.571,4348.039z"/>
						<g>
							<path style="fill:#070159;" d="M848.764,4378.27c-24.296,8.937-70.772,19.893-130.18,4.845
								c-88.91-22.674-173.363-17.079-206.881-15.609c-11.742,0.482-17.231-16.674-17.789-39.596
								c-0.014-1.007-0.028-2.014,0.026-3.065c55.113-20.392,137.488-11.738,200.784,21.294
								c69.289,36.126,151.346,22.915,174.645,1.888c0.069-0.044,0.125-0.031,0.169,0.037c0.044,0.069-0.012,0.057-0.012,0.057
								c0.044,0.069,0.019,0.182,0.007,0.236C869.612,4361.662,861.368,4373.606,848.764,4378.27z"/>
						</g>
						<path style="fill:#070159;" d="M637.632,4239.58c-1.093,7.592-5.195,14.847-11.728,18.941
							c-4.615,2.854-10.226,3.974-15.689,3.921c-5.546-0.053-10.944-1.278-16.155-2.829c-6.622-1.88-13.133-4.259-19.364-7.127
							c-11.233-5.162-21.795-11.803-31.366-19.647c-4.741-3.962-9.217-8.162-13.423-12.685c-0.237-0.264-0.559-0.534-0.88-0.804
							c1.565-0.923,3.199-1.588,4.904-1.999c25.23-6.168,69.087,58.146,100.321,27.087c3.464-3.339,2.835-10.185,1.772-18.315
							C637.98,4230.267,638.307,4234.992,637.632,4239.58z"/>
					</g>
				</g>
				<g>
					<polygon style="fill:#FDCCC5;" points="901.158,4206.226 921.908,4308.43 793.768,4308.43 793.768,4206.226 					"/>
					
						<linearGradient id="SVGID_00000107578255129567799350000011017888638124970148_" gradientUnits="userSpaceOnUse" x1="1768.6549" y1="3406.5833" x2="2146.3167" y2="3406.5833" gradientTransform="matrix(-1 0 0 1 2739.6536 0)">
						<stop  offset="2.200000e-07" style="stop-color:#5C5CA0"/>
						<stop  offset="1" style="stop-color:#434389"/>
					</linearGradient>
					<path style="fill:url(#SVGID_00000107578255129567799350000011017888638124970148_);" d="M604.981,2600.656l171.662,1601.74
						c0,13.484,144.027,13.484,144.027,0l47.248-1601.74H604.981z"/>
					<g>
						
							<linearGradient id="SVGID_00000114038541022089785250000001966935721676748191_" gradientUnits="userSpaceOnUse" x1="326.8576" y1="4314.5024" x2="703.6027" y2="4314.5024" gradientTransform="matrix(1 0 0 1 426.2432 0)">
							<stop  offset="1.100000e-07" style="stop-color:#B3B3FF"/>
							<stop  offset="1" style="stop-color:#C2D5FF"/>
						</linearGradient>
						<path style="fill:url(#SVGID_00000114038541022089785250000001966935721676748191_);" d="M1129.794,4360.954
							c0,0.084,0,0.084,0,0.084v0.252c0.755,13.263-6.8,25.604-19.141,30.978c-23.759,10.326-69.513,23.841-129.707,12.089
							c-89.997-17.713-174.034-7.473-207.363-4.198c-11.753,1.177-18.134-15.614-19.98-38.535c-0.084-1.006-0.168-2.015-0.168-3.021
							c-2.267-36.94,7.136-87.48,25.606-104.439c1.175-1.09,2.351-2.013,3.61-2.853c1.511-1.008,3.106-1.763,4.785-2.267
							c24.85-7.555,72.199,54.233,101.667,21.492c3.274-3.525,2.267-10.326,0.756-18.385c-0.672-3.611-1.427-7.557-2.015-11.502
							c-0.535-3.844,0.452-7.842,2.124-11.583c4.31-9.641,17.046-11.916,24.898-4.854c6.248,5.618,15.111,13.288,27.211,23.154
							c2.183,1.763,4.282,3.861,6.465,5.96c1.511,1.343,3.022,2.771,4.617,4.198c5.541,5.29,11.166,9.99,16.706,14.188
							c2.351,1.847,4.701,3.527,6.968,5.206c6.045,4.114,11.921,7.807,17.882,11.083c2.518,1.426,5.037,2.769,7.639,4.03
							c51.463,25.354,96.63,19.223,112.665,33.999c10.158,9.235,13.684,22.751,14.692,34.337
							C1129.794,4360.534,1129.794,4360.786,1129.794,4360.954z"/>
						<g>
							<path style="fill:#070159;" d="M1110.692,4392.29c-23.765,10.268-69.563,23.779-129.712,12.042
								c-90.029-17.718-174.043-7.457-207.427-4.134c-11.697,1.131-18.128-15.695-19.953-38.551
								c-0.069-1.004-0.14-2.009-0.143-3.062c53.9-23.412,136.627-19.33,201.655,10.148c71.182,32.236,152.382,14.503,174.482-7.782
								c0.066-0.047,0.123-0.038,0.171,0.028c0.048,0.066-0.009,0.057-0.009,0.057c0.048,0.066,0.029,0.18,0.02,0.236
								C1130.589,4374.554,1123.019,4386.937,1110.692,4392.29z"/>
						</g>
						<path style="fill:#070159;" d="M892.207,4265.499c-0.671,7.641-4.365,15.112-10.662,19.562
							c-4.45,3.105-9.99,4.534-15.448,4.784c-5.541,0.254-10.998-0.67-16.287-1.931c-6.716-1.511-13.348-3.525-19.729-6.044
							c-11.502-4.532-22.415-10.578-32.406-17.881c-4.953-3.694-9.655-7.639-14.104-11.923c-0.252-0.25-0.587-0.502-0.923-0.754
							c1.511-1.008,3.106-1.763,4.785-2.267c24.85-7.555,72.199,54.233,101.667,21.492c3.274-3.525,2.267-10.326,0.756-18.385
							C892.04,4256.181,892.627,4260.881,892.207,4265.499z"/>
					</g>
				</g>
				<g>
					<path style="fill:#FDCCC5;" d="M856.437,1689.617c-3.086,9.531-20.983,11.451-20.983,11.451s3.977,8.297,7.885,19.406
						c0.823,2.124,1.646,4.456,2.332,6.788c5.486,17.486,9.257,38.604-1.029,46.695c-9.257,7.269-36.274,19.337-58.285,20.092v53.28
						H672.804v-82.491c-33.463-48.48,126.307-249.392,126.307-249.392l28.32,120.685
						C827.432,1636.131,862.54,1670.897,856.437,1689.617z"/>
					<path style="fill:#EC8B73;" d="M786.357,1794.05c0,0-18.131,0.424-34.702-13.607c0,0,5.733,25.866,34.702,32.167V1794.05z"/>
					
						<linearGradient id="SVGID_00000088123741439529048720000004154552802034131101_" gradientUnits="userSpaceOnUse" x1="852.4185" y1="1915.7178" x2="582.9991" y2="2800.4548">
						<stop  offset="2.200000e-07" style="stop-color:#FFBB83"/>
						<stop  offset="1" style="stop-color:#FF9D45"/>
					</linearGradient>
					<path style="fill:url(#SVGID_00000088123741439529048720000004154552802034131101_);" d="M936.605,1941.642
						c38.814,410.982,31.313,746.315,31.313,746.315c-0.003,54.574-523.184,75.33-523.181,20.756c0,0-47.388-679.957,80.697-811.068
						C601.638,1819.641,928.717,1858.116,936.605,1941.642z"/>
					
						<linearGradient id="SVGID_00000090273230501551137020000008652142192952587694_" gradientUnits="userSpaceOnUse" x1="667.1802" y1="2347.5959" x2="645.8536" y2="2430.5969" gradientTransform="matrix(0.9996 0.0293 -0.0293 0.9996 -16.026 -43.9775)">
						<stop  offset="2.200000e-07" style="stop-color:#FFBB83"/>
						<stop  offset="1" style="stop-color:#FF9D45"/>
					</linearGradient>
					<path style="fill:url(#SVGID_00000090273230501551137020000008652142192952587694_);" d="M797.219,1855.914
						c-1.075,36.719-35.726,18.765-79.814,17.473c-44.088-1.291-80.892,14.571-79.817-22.148
						c1.072-36.604,35.728-46.2,79.816-44.909C761.493,1807.622,798.291,1819.311,797.219,1855.914z"/>
					
						<linearGradient id="SVGID_00000011022960026722149310000006242834067183144874_" gradientUnits="userSpaceOnUse" x1="816.2391" y1="1641.2668" x2="514.4953" y2="1499.9325">
						<stop  offset="0" style="stop-color:#771E24"/>
						<stop  offset="1" style="stop-color:#47090E"/>
					</linearGradient>
					<path style="fill:url(#SVGID_00000011022960026722149310000006242834067183144874_);" d="M809.102,1562.415
						c65.349-221.756-113.841-128.88-194.336-82.714c-80.495,46.167-96.765,64.488-68.126,154.159
						c20.048,62.773,88.786,122.624,118.571,142.593c9.906,5.775,75.164-14.187,71.941-23.894l-15.455-42.934
						c-8.758-12.165-27.82-54.684,16.086-50.062c43.906,4.621,23.108-62.97,23.108-62.97L809.102,1562.415z"/>
					<path style="fill:#FDCCC5;" d="M756.57,1668.512c10.287,21.641,7.335,44.515-6.531,51.106
						c-13.866,6.591-33.469-5.56-43.756-27.202c-10.288-21.641-7.36-44.568,6.506-51.16
						C726.655,1634.666,746.283,1646.871,756.57,1668.512z"/>
					<path style="fill:#070159;" d="M812.92,1633.841c0,3.708-2.989,6.66-6.66,6.66c-3.67,0-6.66-2.952-6.66-6.66
						c0-3.67,2.989-6.622,6.66-6.622C809.93,1627.219,812.92,1630.171,812.92,1633.841z"/>
					<g>
						<path style="fill:#EC8B73;" d="M845.671,1727.262c-4.526,3.223-9.874,4.868-15.36,4.868c-4.594,0-9.326-1.167-13.577-3.703
							c-1.646-0.959-2.194-3.017-1.235-4.662c0.96-1.646,3.086-2.195,4.663-1.236c7.543,4.458,16.868,3.362,23.177-2.056
							C844.163,1722.598,844.986,1724.93,845.671,1727.262z"/>
					</g>
					
						<linearGradient id="SVGID_00000153691415940345374890000004280914557232432014_" gradientUnits="userSpaceOnUse" x1="775.1625" y1="1618.4716" x2="807.175" y2="1618.4716">
						<stop  offset="0" style="stop-color:#771E24"/>
						<stop  offset="1" style="stop-color:#47090E"/>
					</linearGradient>
					<path style="fill:url(#SVGID_00000153691415940345374890000004280914557232432014_);" d="M807.135,1607.469
						c0.274,1.508-0.892,2.811-2.057,3.839c-5.829,5.417-11.657,10.835-17.554,16.252c-1.646,1.577-3.36,3.154-5.554,3.839
						c-2.194,0.755-4.869,0.274-6.171-1.644c-1.166-1.851-0.617-4.389,0.754-6.104c0.617-0.824,1.44-1.508,2.332-2.126l-0.549,0.343
						c5.554-7.612,13.646-13.371,22.697-16.183c1.166-0.342,2.332-0.616,3.566-0.41
						C805.763,1605.412,806.929,1606.303,807.135,1607.469z"/>
				</g>
			</g>
			<g>
				<g>
					<g>
						<path style="fill:#ADC8F7;" d="M1084.865,1572.114c-2.321,0-4.199-1.878-4.199-4.199v-34.611
							c0-41.763,33.975-75.734,75.734-75.734h35.447c2.321,0,4.199,1.878,4.199,4.199c0,2.321-1.878,4.199-4.199,4.199h-35.447
							c-37.129,0-67.335,30.207-67.335,67.335v34.611C1089.064,1570.236,1087.186,1572.114,1084.865,1572.114z"/>
					</g>
					<g>
						<path style="fill:#ADC8F7;" d="M1879.965,1572.532c-2.321,0-4.199-1.878-4.199-4.199v-35.447
							c0-37.129-30.207-67.335-67.335-67.335h-34.611c-2.321,0-4.199-1.878-4.199-4.199c0-2.321,1.878-4.199,4.199-4.199h34.611
							c41.758,0,75.733,33.971,75.733,75.734v35.447C1884.164,1570.654,1882.286,1572.532,1879.965,1572.532z"/>
					</g>
				</g>
				<g>
					<g>
						<path style="fill:#ADC8F7;" d="M1808.431,1874.589h-35.447c-2.321,0-4.199-1.878-4.199-4.199s1.878-4.199,4.199-4.199h35.447
							c37.129,0,67.335-30.207,67.335-67.335v-34.611c0-2.321,1.878-4.199,4.199-4.199s4.199,1.878,4.199,4.199v34.611
							C1884.164,1840.618,1850.189,1874.589,1808.431,1874.589z"/>
					</g>
					<g>
						<path style="fill:#ADC8F7;" d="M1191.01,1875.007h-34.611c-41.758,0-75.734-33.971-75.734-75.734v-35.447
							c0-2.321,1.878-4.199,4.199-4.199s4.199,1.878,4.199,4.199v35.447c0,37.129,30.207,67.335,67.335,67.335h34.611
							c2.321,0,4.199,1.878,4.199,4.199C1195.209,1873.129,1193.331,1875.007,1191.01,1875.007z"/>
					</g>
				</g>
				
					<linearGradient id="SVGID_00000140708718762979222950000010699235432771407008_" gradientUnits="userSpaceOnUse" x1="1128.2288" y1="1666.2861" x2="1836.6068" y2="1666.2861">
					<stop  offset="0" style="stop-color:#E7ECFF"/>
					<stop  offset="1" style="stop-color:#C2D5FF"/>
				</linearGradient>
				<path style="fill:url(#SVGID_00000140708718762979222950000010699235432771407008_);" d="M1836.607,1533.302v265.969
					c0,15.559-12.614,28.173-28.173,28.173h-652.032c-15.56,0-28.173-12.614-28.173-28.173v-265.969
					c0-15.56,12.613-28.173,28.173-28.173h652.032C1823.993,1505.129,1836.607,1517.742,1836.607,1533.302z"/>
			</g>
			<path style="fill:#FDCCC5;" d="M1351.287,1940.679c0,0-39.859-77.834-24.202-90.863c14.597-12.146,40.961,29.676,40.961,29.676
				s41.848-128.675,70.578-121.274c13.385,3.448-22.392,103.166-22.392,103.166s110.226,38.594-3.482,108.535L1351.287,1940.679z"/>
			
				<linearGradient id="SVGID_00000181786829103053481040000008799610171668875410_" gradientUnits="userSpaceOnUse" x1="957.8961" y1="402.3801" x2="1658.1476" y2="701.3011" gradientTransform="matrix(0.8458 -0.5334 0.5334 0.8458 -290.2295 2286.3733)">
				<stop  offset="2.200000e-07" style="stop-color:#FFBB83"/>
				<stop  offset="1" style="stop-color:#FF9D45"/>
			</linearGradient>
			<path style="fill:url(#SVGID_00000181786829103053481040000008799610171668875410_);" d="M802.29,1987.187
				c27.499,140.608,239.265,280.334,364.673,280.334c114,0,252.717-294.306,252.717-294.306
				c2.546-5.344-72.669-41.125-75.215-35.781c0,0-113.519,190.117-184.896,184.434c-106.913-8.512-204.519-238.988-318.818-244.749
				C809.469,1875.544,793.894,1944.258,802.29,1987.187z"/>
			<g>
				<g>
					
						<linearGradient id="SVGID_00000124119828224725470410000017971811662117969037_" gradientUnits="userSpaceOnUse" x1="3885.0657" y1="3321.6809" x2="4364.8174" y2="3321.6809">
						<stop  offset="0" style="stop-color:#E7ECFF"/>
						<stop  offset="1" style="stop-color:#C2D5FF"/>
					</linearGradient>
					<path style="fill:url(#SVGID_00000124119828224725470410000017971811662117969037_);" d="M3940.142,3812.355
						c2.952-22.577,62.389,13.952,66.248-8.487c10.251-59.607-187.49-253.797-98.024-249.65
						c10.38,0.481,79.077,35.834,85.616,76.785c1.84,11.522,1.606,23.832,7.383,33.97c5.777,10.138,20.985,16.121,29.175,7.809
						c7.535-7.648,3.676-20.384-0.634-30.218c-18.086-41.27-80.533-87.205-54.258-123.811c6.469-9.012,22.103,1.936,33.155,2.904
						c-20.861-9.589-20.615-45.441,0.376-54.742c9.095-4.03,19.614-3.34,29.047-6.496c29.31-9.805,34.258-51.693,19.64-78.925
						c-14.617-27.232-41.358-45.5-61.531-68.916c-20.172-23.416-33.525-58.973-16.265-84.611
						c20.757-30.833,71.582-27.463,93.278-57.643c18.238-25.37,6.677-60.881-8.335-88.284s-33.657-56.752-27.554-87.395
						c3.873-19.448,17.318-35.681,23.046-54.665c22.546-74.725-79.193-145.459-56.57-220.161
						c75.318-20.041,161.482,10.508,207.355,73.516c45.873,63.009-51.68,167.799,6.273,219.912
						c16.806,15.113,46.101,2.692,50.984,24.76c4.882,22.068-5.875,44.368-17.394,63.814c-11.518,19.446-24.56,39.605-24.75,62.206
						c-0.293,34.846,29.209,61.663,55.835,84.144s55.181,51.101,52.014,85.805c-2.015,22.078-16.89,40.841-33.184,55.875
						c-16.294,15.033-34.808,28.021-48,45.838c-13.193,17.817-20.19,42.566-10.077,62.294s32.731,7.66,54.859,9.02
						c45.822,2.815,13.817,94.971-19.858,126.173c-13.889,12.869-33.367,27.141-28.59,45.464
						c3.393,13.014,18.85,19.77,32.192,18.072c13.342-1.698,24.114-23.564,36.004-17.278c10.029,5.303,4.251,23.648-0.317,34.033
						c-11.354,25.812-41.216,38.497-61.824,57.745c35.501,10.161,79.854-41.776,91.401-43.737
						c46.309-7.866-6.215,123.502-52.938,161.924C4184.634,3979.27,3928.272,3903.148,3940.142,3812.355z"/>
				</g>
				<path style="fill:#E7ECFF;" d="M4409.8,4366.034c0,9.526-116.906,17.373-261.049,17.373
					c-144.255,0-261.162-7.847-261.162-17.373c0-9.641,116.907-17.374,261.162-17.374
					C4292.894,4348.66,4409.8,4356.394,4409.8,4366.034z"/>
				
					<linearGradient id="SVGID_00000084530908196760434990000001637390529979241364_" gradientUnits="userSpaceOnUse" x1="4154.6641" y1="4103.3237" x2="4147.231" y2="4462.2266">
					<stop  offset="0" style="stop-color:#E7ECFF"/>
					<stop  offset="1" style="stop-color:#C2D5FF"/>
				</linearGradient>
				<path style="fill:url(#SVGID_00000084530908196760434990000001637390529979241364_);" d="M4360.959,4116.841l-55.034,223.5
					c-4.147,16.925-19.391,28.807-36.765,28.807h-229.553c-17.485,0-32.617-11.882-36.764-28.807l-55.035-223.5H4360.959z"/>
				
					<linearGradient id="SVGID_00000056388787010526073640000010200247215160991676_" gradientUnits="userSpaceOnUse" x1="4152.6689" y1="3900.5293" x2="4155.9897" y2="4167.2939">
					<stop  offset="0" style="stop-color:#E7ECFF"/>
					<stop  offset="1" style="stop-color:#C2D5FF"/>
				</linearGradient>
				<path style="fill:url(#SVGID_00000056388787010526073640000010200247215160991676_);" d="M4432.33,4006.542v59.226
					c0,28.215-22.873,51.088-51.088,51.088h-453.769c-28.215,0-51.088-22.873-51.088-51.088v-59.226
					c0-28.215,22.873-51.088,51.088-51.088h453.769C4409.457,3955.454,4432.33,3978.327,4432.33,4006.542z"/>
				<path style="fill:#C2D5FF;" d="M4203.943,3512.212c-3.048,0.553-5.068,3.47-4.51,6.513c4.138,22.729,1.297,46.887-7.99,68.029
					c-9.299,21.142-25.176,39.57-44.714,51.884c-2.709,1.702-5.489,3.306-8.27,4.904c-6.562,3.782-13.349,7.684-19.303,12.982
					c-1.015,0.903-1.931,1.853-2.846,2.805c0.603-75.998,6.254-158.805,16.945-238.813c3.19-9.422,9.648-17.141,15.171-22.365
					c7.159-6.781,15.33-12.232,23.988-18.012c2.523-1.68,5.046-3.366,7.537-5.079c10.601-7.29,22.499-16.441,30.353-29.007
					c7.263-11.614,11.083-26.024,11.356-42.837c0.224-14.471-2.146-28.744-4.444-42.547c-0.509-3.054-3.398-5.156-6.447-4.608
					c-3.054,0.509-5.117,3.393-4.608,6.447c2.211,13.31,4.504,27.075,4.291,40.533c-0.235,14.739-3.48,27.212-9.648,37.068
					c-6.77,10.831-17.546,19.079-27.201,25.712c-2.452,1.691-4.931,3.344-7.411,4.997c-8.664,5.78-17.623,11.761-25.471,19.188
					c-1.197,1.133-2.435,2.393-3.68,3.724c5.369-35.974,11.744-71.165,19.207-104.613c11.684-52.354,16.274-103.628,16.319-151.905
					c0.172-3.845,0.147-7.692-0.116-11.534c-2.395-170.127-60.158-300.107-60.922-301.79c-1.27-2.819-4.581-4.077-7.416-2.792
					c-2.819,1.281-4.066,4.603-2.792,7.421c0.685,1.512,47.97,108.023,58.13,253.707c-0.534-0.94-0.996-1.92-1.561-2.842
					c-6.081-9.922-13.77-18.613-21.208-27.02c-4.389-4.964-8.784-9.923-12.845-15.144c-12.632-16.244-18.17-31.398-16.447-45.037
					c0.389-3.07-1.79-5.873-4.86-6.261c-3.103-0.389-5.878,1.79-6.261,4.86c-2.107,16.698,4.192,34.638,18.723,53.323
					c4.204,5.402,8.751,10.546,13.294,15.686c7.449,8.412,14.481,16.359,20.047,25.449c7.566,12.353,11.937,26.612,12.943,41.083
					c0.045,3.415,0.114,6.811,0.112,10.258c-0.18,4.107-0.547,8.205-1.299,12.244c-0.301,1.625,0.168,3.183,1.099,4.399
					c-0.966,42.773-5.665,87.695-15.876,133.454c-9.449,42.344-17.197,87.054-23.338,132.476c-0.808,2.801-1.467,5.687-1.75,8.738
					c-0.074,0.802,0.038,1.573,0.278,2.291c-17.426,135.065-20.354,275.299-9.115,378.561c-5.189-5.496-11.554-10.559-19.087-14.874
					c-6.803-3.902-13.967-7.148-20.901-10.289c-10.36-4.69-20.141-9.118-28.75-15.527c-22.089-16.424-33.516-45.639-28.438-72.692
					c0.575-3.043-1.428-5.971-4.471-6.54c-3.01-0.542-5.971,1.428-6.54,4.471c-5.856,31.168,7.312,64.827,32.761,83.758
					c9.572,7.12,20.37,12.013,30.813,16.742c6.694,3.032,13.611,6.163,19.955,9.796c6.764,3.881,28.804,18.159,28.317,39.094
					c-0.032,1.398,0.503,2.652,1.327,3.653c7.625,47.825,18.95,84.533,33.985,104.235c1.105,1.445,2.769,2.206,4.46,2.206
					c1.182,0,2.38-0.372,3.393-1.149c2.463-1.877,2.934-5.396,1.056-7.854c-27.911-36.576-42.3-138.357-42.989-261.529
					c1.03-6.789,5.61-13.15,10.332-17.347c5.09-4.531,11.088-7.985,17.442-11.641c2.906-1.675,5.818-3.355,8.653-5.139
					c21.41-13.491,38.814-33.681,48.994-56.853c10.185-23.167,13.294-49.64,8.757-74.542
					C4209.904,3513.673,4206.986,3511.637,4203.943,3512.212z"/>
			</g>
			<g>
				
					<linearGradient id="SVGID_00000085946008127879594220000016746639389513686405_" gradientUnits="userSpaceOnUse" x1="3660.5964" y1="1870.3878" x2="4343.0493" y2="1870.3878">
					<stop  offset="0" style="stop-color:#E7ECFF"/>
					<stop  offset="1" style="stop-color:#C2D5FF"/>
				</linearGradient>
				<path style="fill:url(#SVGID_00000085946008127879594220000016746639389513686405_);" d="M4343.049,1870.328
					c0,188.525-152.822,341.226-341.227,341.226s-341.226-152.701-341.226-341.226c0-188.404,152.822-341.106,341.226-341.106
					S4343.049,1681.923,4343.049,1870.328z"/>
				<path style="fill:#FFFFFF;" d="M4256.595,1870.343c0,140.76-114.103,254.772-254.772,254.772
					c-140.669,0-254.771-114.012-254.771-254.772c0-140.669,114.102-254.682,254.771-254.682
					C4142.492,1615.661,4256.595,1729.674,4256.595,1870.343z"/>
			</g>
		</g>
		<g>
			<path style="fill:#C9D9FF;" d="M4065.027,1936.765c-5.298,7.988-12.819,14.353-22.571,19.085
				c-9.76,4.74-21.045,7.48-33.865,8.226v19.782c0,2.411-0.787,4.412-2.362,5.995c-1.583,1.575-3.674,2.362-6.274,2.362
				c-2.419,0-4.412-0.738-5.987-2.223c-1.583-1.493-2.37-3.535-2.37-6.135v-19.782c-20.069-1.304-38.834-5.667-56.296-13.098
				c-2.231-0.927-4.084-2.461-5.569-4.601c-1.493-2.132-2.231-4.404-2.231-6.824c0-3.158,1.066-5.897,3.207-8.226
				c2.133-2.313,4.872-3.478,8.218-3.478c1.854,0,3.625,0.369,5.298,1.115c15.042,6.684,30.83,10.4,47.372,11.146v-64.096
				c-12.639-3.346-23.268-6.971-31.912-10.867c-8.636-3.904-15.837-9.432-21.595-16.584c-5.758-7.152-8.636-16.206-8.636-27.172
				c0-9.653,2.37-18.568,7.103-26.754c4.74-8.169,11.794-14.951,21.177-20.34c9.383-5.388,20.668-8.636,33.864-9.752v-19.512
				c0-2.411,0.787-4.453,2.37-6.127c1.575-1.673,3.568-2.51,5.987-2.51c2.411,0,4.462,0.837,6.135,2.51
				c1.665,1.673,2.501,3.715,2.501,6.127v19.233c18.208,0.746,34.373,3.814,48.488,9.194c5.2,1.862,7.808,5.577,7.808,11.146
				c0,2.977-1.025,5.667-3.067,8.079c-2.042,2.419-4.74,3.625-8.079,3.625c-1.115,0-2.608-0.369-4.462-1.115
				c-12.639-4.453-26.196-6.963-40.688-7.521v66.326c13.377,3.158,24.482,6.594,33.307,10.309
				c8.817,3.715,16.206,9.243,22.153,16.575c5.946,7.349,8.915,17.051,8.915,29.124
				C4072.966,1919.862,4070.317,1928.777,4065.027,1936.765z M3964.147,1838.395c6.225,4.454,15.37,8.267,27.451,11.425v-61.307
				c-11.146,1.484-20.069,4.88-26.754,10.17c-6.692,5.298-10.03,12.22-10.03,20.758
				C3954.814,1827.626,3957.922,1833.933,3964.147,1838.395z M4047.885,1908.338c0-7.242-3.297-12.86-9.891-16.854
				c-6.594-3.994-16.395-7.759-29.403-11.285v59.913C4034.787,1938.25,4047.885,1927.67,4047.885,1908.338z"/>
		</g>
		<g>
			<path style="fill:#FFFFFF;" d="M1283.212,1735.408c-1.911-1.903-2.862-4.248-2.862-7.045v-134.826
				c0-2.789,0.951-5.183,2.862-7.168c1.903-1.977,4.257-2.969,7.045-2.969h50.235c13.951,0,25.335,2.346,34.143,7.053
				c8.817,4.699,15.132,10.719,18.954,18.06c3.814,7.349,5.725,15.28,5.725,23.793c0,8.521-1.911,16.452-5.725,23.793
				c-3.822,7.349-10.137,13.369-18.954,18.068c-8.808,4.699-20.192,7.045-34.143,7.045h-40.098v47.151
				c0,2.797-0.992,5.142-2.977,7.045c-1.977,1.911-4.371,2.871-7.16,2.871C1287.469,1738.278,1285.115,1737.319,1283.212,1735.408z
				 M1338.507,1662.266c14.984,0,25.515-2.862,31.617-8.587c6.094-5.733,9.145-12.852,9.145-21.373
				c0-8.513-3.051-15.64-9.145-21.365c-6.102-5.733-16.633-8.595-31.617-8.595h-38.113v59.921H1338.507z"/>
			<path style="fill:#FFFFFF;" d="M1411.1,1735.408c-1.837-1.903-2.756-4.248-2.756-7.045c0-1.173,0.369-2.641,1.099-4.404
				l56.181-132.628c1.173-2.649,2.83-4.814,4.962-6.504c2.124-1.681,4.732-2.526,7.816-2.526h2.206c3.084,0,5.692,0.845,7.816,2.526
				c2.132,1.689,3.781,3.855,4.962,6.504l56.181,132.628c0.73,1.763,1.099,3.231,1.099,4.404c0,2.797-0.919,5.142-2.756,7.045
				c-1.837,1.911-4.224,2.871-7.16,2.871c-2.059,0-3.929-0.55-5.618-1.657c-1.689-1.099-2.977-2.608-3.855-4.511l-14.32-34.373
				h-74.905l-14.32,34.373c-0.886,1.903-2.165,3.412-3.855,4.511c-1.69,1.107-3.568,1.657-5.618,1.657
				C1415.316,1738.278,1412.937,1737.319,1411.1,1735.408z M1449.762,1679.456h59.486l-29.747-71.6L1449.762,1679.456z"/>
			<path style="fill:#FFFFFF;" d="M1611.809,1735.408c-1.985-1.903-2.977-4.248-2.977-7.045v-56.181l-52.654-73.806
				c-1.173-1.903-1.763-3.888-1.763-5.946c0-2.788,0.919-5.175,2.756-7.16c1.837-1.985,4.15-2.969,6.938-2.969
				c3.674,0,6.61,1.689,8.817,5.069l46.044,66.974l46.044-66.974c2.206-3.379,5.142-5.069,8.808-5.069
				c2.789,0,5.142,0.984,7.053,2.969c1.911,1.985,2.788,4.372,2.641,7.16c0,2.059-0.582,4.043-1.763,5.946l-52.867,73.806v56.181
				c0,2.797-0.96,5.142-2.871,7.045c-1.911,1.911-4.257,2.871-7.045,2.871C1616.173,1738.278,1613.794,1737.319,1611.809,1735.408z"
				/>
		</g>
	</g>
</g>
</svg>
