<?xml version="1.0" encoding="utf-8"?>
<!-- Generator: Adobe Illustrator 27.5.0, SVG Export Plug-In . SVG Version: 6.00 Build 0)  -->
<svg version="1.1" id="Layer_1" xmlns="http://www.w3.org/2000/svg" xmlns:xlink="http://www.w3.org/1999/xlink" x="0px" y="0px"
	 viewBox="0 0 2700 2025" style="enable-background:new 0 0 2700 2025;" xml:space="preserve">
<rect x="3.691" style="fill:#FFFFFF;" width="2692.617" height="2025"/>
<path style="fill:#C4DEF0;" d="M2610.41,1359.9c-9.03,21.89-19.77,43.21-32.04,63.77c-6.35,10.65-13.11,21.09-20.27,31.31
	c-11.39,16.26-23.76,31.95-37.05,46.95c-3.87,4.39-7.83,8.7-11.86,12.97c-50.3,53.21-105.28,103.12-164.26,149.22v0.01
	c-11.32,8.85-22.79,17.55-34.4,26.12c-37.69,27.81-76.88,54.11-117.41,78.76c-15.29,9.31-30.77,18.37-46.42,27.21
	c-51.93,29.25-109.62,58.02-171.28,67.9c-12.68,2.04-25.53,3.27-38.53,3.54c-3.17,0.07-6.35,0.09-9.52,0.07
	c-33.23-0.18-66.51-4.86-99.66-11.11c-8.88-1.68-17.76-3.47-26.63-5.33c-26.94-5.63-53.78-11.79-80.42-16.91
	c-5.69-1.1-11.38-2.14-17.05-3.13c-6.46-1.12-12.91-2.16-19.35-3.1c-34.38-5.01-68.84-7.99-103.33-9.36
	c-19.06-0.76-38.12-1.02-57.18-0.86c-26.01,0.22-52.04,1.24-78.05,2.88c-98.46,6.2-196.75,21.36-293.88,36.28
	c-4.06,0.63-8.12,1.25-12.18,1.87c-1.91,0.3-3.81,0.59-5.72,0.88c-9.33,1.43-18.65,2.85-27.96,4.26
	c-10.7,1.62-21.38,3.21-32.04,4.77c-0.62,0.1-1.25,0.19-1.87,0.28c-3.05,0.45-6.1,0.89-9.17,1.32c-6.88,0.97-13.77,1.9-20.68,2.77
	c-4.06,0.52-8.11,1.02-12.18,1.49c-63.08,7.42-127.21,10.15-189.29,0.54c-9.67-1.49-19.3-3.29-28.86-5.41
	c-21.7-4.83-43.07-9.68-63.98-14.71c-5.62-1.35-11.2-2.71-16.75-4.08c-43.58-10.79-84.95-22.44-122.78-36.04
	c-79.37-28.52-143.25-65.63-179.5-121.49c-5.7-8.77-10.71-18-14.99-27.73c-7.77-17.61-13.14-36.85-15.86-57.98
	c-3.69-28.69-14.3-73.91-29.45-115.94c-7.58-21.01-16.29-41.23-25.84-58.18h-0.01c-1.96-3.49-3.96-6.85-6-10.04
	c-5.03-7.88-10.26-14.78-15.66-20.37c-52.2-54.2-98.94-109.54-136.65-168.68c-4.96-7.8-9.78-15.66-14.42-23.59
	c-56.97-97.26-89.07-205.3-81.12-335.24c0.47-7.84,1.09-15.76,1.87-23.76c16.29-168.51,160.22-356.33,379.9-335.69
	c116.04,10.88,206.27-10.28,292.78-77.41c99.12-76.91,175.6-172.8,305.71-214.81c33.83-10.92,68.96-17.5,104.7-20.82
	c60.8-5.67,123.37-1.92,184.32,5.89c4.94,0.63,9.85,1.28,14.77,1.96c65.41,9.07,130.17,23.35,195.6,33.07
	c13.6,2.04,27.25,3.87,40.95,5.41c6.04,0.69,12.08,1.31,18.14,1.88c38.34,3.56,74.58,2.65,110.16,1.62
	c50.52-1.47,99.69-3.21,151.68,7.24c14.68,2.94,29.58,6.86,44.8,12.03c1.38,0.47,2.77,0.94,4.15,1.44
	c35.17,12.44,68.68,28.61,99.31,48.09c32.47,20.64,61.72,44.96,86.3,72.44c13.77,15.37,26.09,31.73,36.68,48.99
	c60.35,98.24,38.92,174.63,92,271.1c2.51,4.56,5.18,9.18,8.05,13.83c46.53,75.77,148.22,105.26,227.02,157.77
	c8.96,5.96,17.61,12.23,25.86,18.88c9.86,7.97,19.14,16.51,27.64,25.8c2.76,3.01,5.45,6.1,8.04,9.29
	C2657.29,1072.65,2665.34,1226.78,2610.41,1359.9z"/>
<g>
	<ellipse style="fill:#A3B9C8;" cx="1390.489" cy="1755.35" rx="998.808" ry="70.246"/>
</g>
<g>
	<g>
		<path style="fill:#AEC5D5;" d="M706.089,1390.02c-64.387,71.651-144.483-1.632-144.483-1.632
			c52.556-51.97,102.838-33.886,129.196-17.444c-15.624-20.221-28.287-39.084-37.955-56.553
			c-88.323-22.015-66.569-124.212-66.569-124.212c83.841,22.291,82.881,90.756,79.349,116.505
			c16.973,30.744,42.885,64.398,73.355,98.47c-40.336-59.76,18.749-124.701,18.749-124.701
			c75.909,76.336,3.191,148.269,3.191,148.269c-0.354-0.29-0.698-0.58-1.046-0.87c31.553,33.374,66.52,66.614,100.803,97.391
			c-39.983-59.687,18.925-124.436,18.925-124.436c18.097,18.199,27.733,36.145,31.935,52.928
			c33.443,5.695,54.19,28.529,65.446,45.936c-11.875-25.073-24.504-52.658-36.983-81.49c-6.614-15.281-12.86-30.144-18.751-44.601
			c-90.192,40.702-132.729-61.276-132.729-61.276c66.807-24.022,104.493,9.694,122.416,35.444
			c-19.16-49.041-33.846-92.957-44.019-131.606c-88.57,37.88-130.364-62.315-130.364-62.315
			c69.553-25.01,107.546,12.565,124.531,38.577c-5.656-24.91-9.198-47.343-10.613-67.253
			c-70.882-57.158-8.083-140.718-8.083-140.718c66.661,55.521,36.963,117.217,22.917,139.085
			c2.451,35.033,11.784,76.47,25.075,120.204c-11.426-71.191,69.512-105.217,69.512-105.217
			c36.71,101.201-59.535,135.829-59.535,135.829c-0.2-0.413-0.39-0.822-0.583-1.233c14.568,43.558,32.289,88.432,50.426,130.784
			c-11.135-70.975,69.56-104.9,69.56-104.9c32.842,90.539-40.72,127.787-56.588,134.632c44.741,100.744,88.03,180.648,88.96,182.353
			l-13.081,7.129c-0.335-0.616-22.771-41.909-51.93-102.242c-35.069,16.604-63.051,11.713-84.24-0.671
			c-6.57,13.084-14.248,22.455-17.917,26.563c83.001,72.54,155.909,126.788,157.47,127.944l-8.863,11.975
			c-0.563-0.417-38.3-28.425-90.152-70.872c-64.915,78.019-147.79,2.193-147.79,2.193c52.879-52.289,103.452-33.661,129.675-17.142
			c-21.328-17.742-44.398-37.445-67.857-58.343c-12.433-11.075-24.357-21.927-35.787-32.56
			c-64.669,74.894-146.19,0.307-146.19,0.307c50.481-49.918,98.859-35.205,125.959-19.396
			C763.401,1454.441,731.59,1420.792,706.089,1390.02z"/>
	</g>
	<g>
		<path style="fill:#AEC5D5;" d="M2019.596,1391.553c63.161,66.432,137.387-5.417,137.387-5.417
			c-51.381-48.027-98.725-29.481-123.357-13.137c14.321-19.652,25.861-37.933,34.59-54.808
			c83.424-23.303,59.998-119.929,59.998-119.929c-79.152,23.445-76.409,88.543-72.36,112.94
			c-15.323,29.698-39.07,62.402-67.141,95.626c36.769-57.922-21.169-118.113-21.169-118.113
			c-70.162,74.641,0.931,141.117,0.931,141.117c0.329-0.285,0.648-0.571,0.971-0.856c-29.12,32.589-61.492,65.141-93.278,95.333
			c36.435-57.843-21.33-117.856-21.33-117.856c-16.727,17.795-25.413,35.122-28.96,51.199
			c-31.658,6.312-50.782,28.586-61.023,45.445c10.624-24.167,21.899-50.743,32.998-78.502c5.882-14.712,11.426-29.016,16.643-42.926
			c86.878,36.303,124.612-61.836,124.612-61.836c-64.188-21.063-99.133,12.016-115.493,36.989
			c16.913-47.16,29.707-89.325,38.351-126.359c85.26,33.662,122.334-62.761,122.334-62.761
			c-66.827-21.928-101.961,14.829-117.421,40.025c4.713-23.845,7.483-45.279,8.296-64.255
			c65.893-56.264,3.924-134.066,3.924-134.066c-61.922,54.594-32.023,112.485-18.078,132.909
			c-1.394,33.389-9.163,73.053-20.636,115.008c8.965-68.022-68.933-98.222-68.933-98.222
			c-32.212,97.244,60.262,127.606,60.262,127.606c0.179-0.398,0.349-0.792,0.522-1.188c-12.692,41.822-28.348,84.979-44.467,125.749
			c8.693-67.808-68.97-97.919-68.97-97.919c-28.818,86.998,42.151,120.461,57.427,126.548
			c-39.863,97.024-78.902,174.185-79.74,175.832l12.633,6.431c0.302-0.595,20.539-40.472,46.661-98.641
			c33.801,14.856,60.287,9.455,80.11-2.891c6.599,12.27,14.154,20.978,17.753,24.787c-77.009,71.22-144.908,124.77-146.362,125.911
			l8.75,11.153c0.524-0.412,35.67-28.062,83.857-69.824c63.834,72.475,140.635-1.866,140.635-1.866
			c-51.697-48.323-99.303-29.251-123.804-12.837c19.812-17.447,41.229-36.805,62.984-57.31c11.53-10.867,22.581-21.508,33.17-31.927
			c63.515,69.509,139.063-3.619,139.063-3.619c-49.352-46.131-94.975-30.842-120.329-15.08
			C1966.804,1454.363,1996.163,1421.505,2019.596,1391.553z"/>
	</g>
</g>
<g>
	<path style="fill:#2F4A89;" d="M1719.142,1763.298h-637.277c-33.842,0-61.277-27.434-61.277-61.277V578.617
		c0-33.842,27.434-61.277,61.277-61.277h637.277c33.842,0,61.277,27.435,61.277,61.277v1123.404
		C1780.419,1735.863,1752.984,1763.298,1719.142,1763.298z"/>
	<rect x="1055.823" y="624.575" style="fill:#FFFFFF;" width="689.362" height="1044.766"/>
</g>
<g>
	<rect x="1115.734" y="1484.606" style="fill:#C4DEF0;" width="560.681" height="30.638"/>
	<rect x="1115.734" y="1558.138" style="fill:#C4DEF0;" width="560.681" height="30.638"/>
</g>
<g>
	<g>
		<polygon style="fill:#EF4136;" points="1081.538,892.433 1081.538,813.937 1177.864,813.937 1177.864,797.726 1065.327,797.726 
			1065.327,892.433 		"/>
		<polygon style="fill:#EF4136;" points="1719.47,892.433 1719.47,813.937 1623.143,813.937 1623.143,797.726 1735.681,797.726 
			1735.681,892.433 		"/>
	</g>
	<g>
		<polygon style="fill:#EF4136;" points="1081.538,1337.713 1081.538,1416.209 1177.864,1416.209 1177.864,1432.42 
			1065.327,1432.42 1065.327,1337.713 		"/>
		<polygon style="fill:#EF4136;" points="1719.47,1337.713 1719.47,1416.209 1623.143,1416.209 1623.143,1432.42 1735.681,1432.42 
			1735.681,1337.713 		"/>
	</g>
</g>
<rect x="1133.393" y="837.499" style="fill:#C4DEF0;" width="534.221" height="562.124"/>
<g>
	<polygon style="fill:#EF4136;" points="1357.682,664.154 1341.682,664.154 1305.958,708.109 1305.509,708.109 1305.509,664.154 
		1291.191,664.154 1291.191,756.431 1305.509,756.431 1305.509,728.112 1320.037,710.302 1344.968,756.431 1360.853,756.431 
		1328.788,699.574 	"/>
	<path style="fill:#EF4136;" d="M1416.22,690.122c-3.338,7.16-6.818,14.1-10.27,21.427h-0.564
		c-3.568-7.327-6.677-14.267-9.989-21.427l-12.651-25.968h-15.04l30.631,59.805v32.472h14.151v-32.472l30.631-59.805h-14.591
		L1416.22,690.122z"/>
	<path style="fill:#EF4136;" d="M1518.345,736.128c-5.435,6.061-11.654,9.619-19.634,9.619c-16.64,0-27.668-13.592-27.668-35.71
		c0-21.784,11.028-35.2,27.457-35.2c7.46,0,13.23,3.057,17.916,7.866l7.973-8.862c-5.679-5.971-14.626-11.378-25.889-11.378
		c-24.226,0-42.058,18.045-42.058,47.96c0,30.364,18.052,47.698,40.878,47.698c12.285,0,21.733-4.853,28.998-13.413
		L1518.345,736.128z"/>
</g>
<g>
	<g>
		<path style="fill:#FC9479;" d="M1418.461,1394.937h250.795c-4.5-71.999-13.848-190.637-28.039-222.599
			c-14.093-31.731-70.963-46.798-113.125-60.875c-1.545-0.519-3.069-1.032-4.571-1.551c-0.005,0-0.011,0-0.011,0
			c-0.016-0.005-0.032-0.011-0.043-0.016c-3.431-1.173-6.739-2.34-9.9-3.524c-4.096-1.518-7.938-3.058-11.451-4.626
			c-4.928-2.199-9.208-4.453-12.645-6.83c-0.957-0.659-1.843-1.329-2.664-2.016c-0.989-0.811-1.87-1.643-2.648-2.491
			c-6.885-7.516-11.089-18.762-13.607-30.748c-0.595-2.821-1.097-5.685-1.513-8.549c-0.821-5.604-1.335-11.213-1.643-16.541
			c0-0.005,0-0.005,0-0.005c-0.33-5.787-0.411-11.245-0.367-15.99c0.086-10.235,0.751-17.2,0.751-17.2
			c-0.319-0.481-0.643-0.956-0.978-1.421c-12.254-17.289-30.281-21.502-48.342-19.811V1394.937z"/>
		<path style="fill:#E6E6E6;" d="M1418.461,1040.578v5.824c21.316-2.826,34.755-14.373,34.755-14.373
			C1439.865,1037.726,1428.332,1040.186,1418.461,1040.578z"/>
		<path style="fill:#3A5AA7;" d="M1418.461,778.867v76.554c16.086-18.601,31.552-32.854,43.526-36.62l5.794-18.671
			C1467.78,800.13,1452.769,782.148,1418.461,778.867z"/>
		<path style="fill:#3A5AA7;" d="M1467.781,800.13c0,0,83.119,0,26.936,165.784l-56.374-87.918L1467.781,800.13z"/>
		<path style="fill:#FC9479;" d="M1418.461,800.352v240.398c0.901,0.043,1.802,0.071,2.704,0.071
			c49.248,0,80.95-64.814,80.95-127.389C1502.114,853.213,1465.138,803.974,1418.461,800.352z"/>
		<path style="fill:#FC9479;" d="M1496.335,903.197c0,0,4.954-27.706,14.036-18.182c9.082,9.524-4.132,60.993-11.561,59.069
			C1491.381,942.159,1496.335,903.197,1496.335,903.197z"/>
		<path style="fill:#3A5AA7;" d="M1418.461,862.772c28.397-14.97,57.816-36.148,57.816-36.148
			c-17.518-18.841-37.692-27.399-57.816-29.111V862.772z"/>
		<path style="fill:#3A5AA7;" d="M1490.459,857.397c0,0,5.362,21.735,0,47.142c-5.362,25.407-6.302,68.515-6.302,68.515
			l10.56-16.374v-18.017c0,0-3.27-51.193,11.737-55.642L1490.459,857.397z"/>
		<path style="fill:#DDDDDD;" d="M1418.461,1027.735v44.431c40.357-13.998,48.937-37.6,48.937-37.6L1418.461,1027.735z"/>
		<path style="fill:#3A5AA7;" d="M1491.158,944.136c-0.866,40.165-40.694,74.123-48.486,77.237
			c-7.429,2.968-22.794,0.279-24.211,0.021v35.919c21.984-1.77,40.031-13.269,53.649-27.329c18.182-18.772,26.7-85.901,26.7-85.901
			L1491.158,944.136z"/>
		<path style="fill:#ED1C24;" d="M1670.319,1394.937c-3.403-82.146-11.086-225.985-23.552-240.745
			c-15.655-18.53-101.447-39.232-119.814-43.49c-2.021-0.47-3.221-0.74-3.431-0.789c-0.005,0-0.011,0-0.011,0
			c-0.016-0.005-0.022-0.005-0.022-0.005l-0.022-0.011l-9.792-5.053l-0.005-0.005l-15.066-7.771l-6.793-3.507l-4.982-2.572
			l-0.022,1.913l-0.043,3.577l-0.319,27.138l-0.022,1.778l-0.011,1.021l-2.253,192.285l-22.469,76.235H1670.319z"/>
		<polygon style="fill:#FFFFFF;" points="1513.67,1104.838 1494.719,1091.88 1491.811,1093.561 1489.472,1094.917 
			1486.764,1096.478 1484.159,1097.986 1430.153,1129.226 1418.461,1115.366 1418.461,1394.937 1467.927,1394.937 
			1498.809,1310.331 1513.567,1106.373 1513.675,1104.844 		"/>
		<polygon style="fill:#F2565C;" points="1489.982,1394.937 1546.617,1317.831 1514.21,1307.445 1546.617,1143.362 
			1528.093,1111.463 1528.093,1111.458 1526.953,1110.702 1490.823,1086.692 1484.159,1082.261 1484.159,1318.701 
			1462.833,1394.937 		"/>
		<polygon style="fill:#FFFFFF;" points="1470.552,1059.663 1418.461,1115.108 1418.461,1115.369 1460.229,1164.872 
			1502.114,1101.746 		"/>
		<polygon style="fill:#DDDDDD;" points="1446.135,1179.879 1418.461,1125.401 1418.461,1125.442 1446.135,1189.692 
			1502.114,1101.746 		"/>
		<polygon style="fill:#DDDDDD;" points="1576.665,1394.937 1576.193,1390.562 1583.12,1326.494 1560.608,1390.562 
			1561.08,1394.937 		"/>
		<polygon style="fill:#F2F2F2;" points="1489.982,1394.937 1492.881,1394.937 1555.517,1314.946 1514.21,1307.445 
			1546.617,1317.831 		"/>
	</g>
	<path style="fill:#3A5AA7;" d="M1414.775,778.797c0,0-112.628-19.229-104.387,115.375c0,0-25.385-15.117-23.047,19.169
		c2.298,33.702,22.979,73.532,34.036,57.748c0,0-9.615,45.326,23.35,79.664c0,0-16.482,9.615-10.988,23.35
		s-15.109,4.12-13.735,23.35s-19.229-8.241-26.097,12.362c-6.868,20.603-52.193,26.097-86.531,31.591
		c-34.338,5.494-80.885-25.084-73.982,258.22h278.635L1414.775,778.797z"/>
	<path style="fill:#FFFFFF;" d="M1382.606,903.223c0,0-40.206-32.424-46.755-8.521c-10.213,37.277,43.915,32.17,57.192,26.043
		C1401.032,917.057,1382.606,903.223,1382.606,903.223z"/>
</g>
<g>
	<g>
		<polygon style="fill:#EB0000;" points="1958.628,1069.205 1941.613,1129.887 1856.713,1162.22 1882.788,1171.19 
			1968.105,1155.962 		"/>
		<path style="fill:#1A4583;" d="M1978.889,972.627l7.077-3.49l7.97,4.148c0,0-6.192-6.155-7.523-6.81
			c-0.797-0.392-4.285,1.892-6.954,3.788c-1.788,1.27-3.208,2.365-3.208,2.365S1978.965,974.53,1978.889,972.627z"/>
		<path style="fill:#1A4583;" d="M1983.416,977.436c0,1.893-0.693,3.428-1.548,3.428c-0.855,0-1.548-1.534-1.548-3.428
			c0-1.893,0.693-3.427,1.548-3.427C1982.723,974.008,1983.416,975.543,1983.416,977.436z"/>
		<polygon style="fill:#F2B694;" points="2051.549,1718.022 2041.585,1750.956 2047.578,1747.47 2057.36,1733.505 		"/>
		<polygon style="fill:#E2AA8A;" points="1998.106,1713.216 1984.066,1742.722 1978.631,1747.47 1985.867,1745.157 
			2001.027,1724.318 		"/>
		<polygon style="fill:#EB0000;" points="1958.628,1069.205 1961.874,1204.519 1947.9,1274.656 1974.863,1290.572 
			1985.173,1186.401 1990.513,1110.193 1983.702,1089.687 		"/>
		<path style="fill:#FCEE21;" d="M2058.79,1359.905l6.145-18.343c5.403-16.125,4.05-33.751-3.75-48.863l-14.432-18.043
			L2058.79,1359.905z"/>
		<path style="fill:#E2AA8A;" d="M1978.631,1280.1l15.36,458.263l8.018-5.191c0,0,43.303-152.886,6.754-255.06l6.326-196.613
			L1978.631,1280.1z"/>
		<path style="fill:#F2B694;" d="M2055.59,1251.757l4.083,481.579l-8.623-0.56c0,0-26.131-127.626-42.274-214.937l-44.217-241.595
			L2055.59,1251.757z"/>
		<path style="fill:#1A4583;" d="M1964.559,1274.656l-28.651,183.798l127.354,5.069l-4.472-103.618c0,0,27.977-43.192-4.804-85.249
			H1964.559z"/>
		<path style="fill:#1A4583;" d="M2062.063,1709.147l-5.827,9.917l-11.912,27.696l-11.96,5.459
			c-2.498,1.141-4.076,3.814-3.964,6.716l0,0l20.875-0.924l8.084-24.507l1.874,19.236l0.751,4.797l3.945-0.174l0.678-24.18
			l2.152-15.793L2062.063,1709.147z"/>
		<path style="fill:#1A4583;" d="M2008.188,1708.726l-7.066,9.463l-15.255,26.968l-12.881,4.118c-2.69,0.86-4.603,3.411-4.803,6.406
			l0,0l21.546,1.651l10.975-24.169l-0.171,19.996l0.249,5.021l4.073,0.312l3.33-24.755l3.932-15.956L2008.188,1708.726z"/>
		<polygon style="fill:#FF0000;" points="2071.04,1302.347 2051.905,1311.147 2037.961,1274.656 2042.037,1257.961 
			2046.753,1255.697 		"/>
		<path style="fill:#F2B694;" d="M2059.672,1683.272c0,0,13.438-105.098-1.419-137.712v-82.037l-49.49-0.098L2059.672,1683.272z"/>
		<polygon style="fill:#E6E6E6;" points="2001.027,1463.424 1980.443,1320.462 1990.735,1463.523 		"/>
		<path style="fill:#F2B694;" d="M2022.119,1019.923l-23.258,28.948l1.335-21.205l0.787-3.434l-2.953-5.601
			c0,0,5.239-1.613,6.356-1.613c1.117,0,15.404-1.231,15.404-1.231L2022.119,1019.923z"/>
		<polygon style="fill:#E6E6E6;" points="2000.196,1027.666 1975.008,1073.127 1967.932,1079.722 1980.443,1055.451 		"/>
		<polygon style="fill:#FF4949;" points="2022.119,1019.923 2027.847,1022.753 2011.542,1051.739 2010.075,1116.973 
			2003.196,1127.083 2005.805,1048.871 		"/>
		<path style="fill:#FF4949;" d="M2010.075,1173.803l-7.041,22.539l-1.697-24.64
			C2001.337,1171.702,2006.084,1174.004,2010.075,1173.803z"/>
		<path style="fill:#EB0000;" d="M2000.196,1027.666l-22.684,12.096c-4.08,2.176-7.362,5.592-9.373,9.755l-9.511,19.688
			l25.074,20.481l6.127-35.993L2000.196,1027.666z"/>
		<path style="fill:#1A4583;" d="M1978.674,945.432c0,0-24.05,42.918,11.807,87.445l10.857,20.817l16.074-20.817l-1.89-22.936
			L1978.674,945.432z"/>
		<path style="fill:#1A4583;" d="M1977.666,959.454c0,0-5.677-24.262,22.101-30.301c27.778-6.039,50.122,0.521,49.518,36.795
			c-0.604,36.273,10.266,26.913,26.57,39.595c16.304,12.682,23.249,16.003,21.438,30.496c-1.812,14.493,3.623,12.681,16.002,26.269
			c12.379,13.587,14.191,51.977,2.114,58.597c-12.078,6.621-19.388-1.532-24.64,21.717c-5.252,23.249-57.577-17.512-57.577-17.512
			l-24.591-128.944l-15.17-12.966L1977.666,959.454z"/>
		<path style="fill:#F2B694;" d="M2020.454,1017.61l1.845,5.08l-23.109,10.187c1.153-5.261,1.489-8.624,1.489-8.624l0.304-0.022
			c-1.698-3.692-3.445-6.667-4.391-7.484c-2.292-2.014-10.562-3.8-18.05-0.874c-7.451,2.957-5.887-5.093-5.312-7.043
			c0.608-1.951-0.189-2.609-1.666-3.252c-1.475-0.608-2.255-1.507-0.391-2.118c1.864-0.611,2.182-3.258,0.505-2.898
			c-1.643,0.358-4.339-1.117-2.511-1.76c1.297-0.435,1.161-7.034-0.534-7.388c-1.695-0.355-7.445-3.55-1.312-4.948
			c6.133-1.397,9.085-10.025,9.085-10.025c-1.704-8.018-0.463-13.49,1.259-16.987c0,0,18.91-0.236,24.516,8.045l6.417,16.803
			c0,0,5.166-18.398,9.254-10.858c4.085,7.506,1.443,19.007-3.742,19.382l-0.828,12.826l6.507,10.133L2020.454,1017.61z"/>
		<polygon style="fill:#ED1C24;" points="2013.825,989.087 2022.944,1002.925 2010.114,1009.941 		"/>
		<path style="fill:#FCF7F3;" d="M1968.287,1158.184l5.507,55.083l-9.232,61.39l68.629,2.778l20.54,0.833l9.526-136.017
			l-2.108-104.137l-39.037-18.187l-11.095,7.745H2000.2l-25.197,45.459c-6.846,9.134-35.393,19.723-12.043,49.854
			c0.637,0.833,1.324,1.683,2.059,2.549l3.268,32.632V1158.184z"/>
		<path style="fill:#FF0000;" d="M2005.202,1062.911l-3.864,123.627c0.167,7.042,6.159,26.681,9.952,32.617l35.463,94.362
			l61.71-28.382l-42.475-90.505l19.075-91.562c6.076-21.647,10.87-29.941,0.887-48.953l-1.146-1.595
			c-2.077-2.893-4.84-5.224-8.04-6.786l-34.727-16.942l-19.918-8.869l-14.753,28.877l0,0L2005.202,1062.911z"/>
		<path style="fill:#E6E6E6;" d="M1962.96,1122.987c0.637,0.833,1.324,1.683,2.059,2.549l3.268,32.632v0.016l23.236,19.494
			l6.095,44.789l29.347,54.707l6.226,0.262l-23.465-62.191c-2.157-3.382-3.644-9.919-6.7-18.906l-4.461-58.09
			c0,0-2.092,6.111-26.88-15.099C1966.277,1118.509,1963.941,1120.095,1962.96,1122.987z"/>
		<path style="fill:#E6E6E6;" d="M2010.114,985.081l4.75-9.732c0,0,4.369,5.725,1.665,9.732l-1.363-5.097L2010.114,985.081z"/>
		<path style="fill:#E6E6E6;" d="M2090.768,1073.127c0,0-30.912,111.569-88.17,116.671l-1.26-24.531c0,0,65.992-69.401,66.858-70.18
			C2069.061,1094.307,2090.768,1073.127,2090.768,1073.127z"/>
		<path style="fill:#105F9A;" d="M1982.806,938.29c0,0-13.635,12.502-12.025,27.658l34.665-3.428
			C2005.445,962.521,2007.003,934.943,1982.806,938.29z"/>
		<polygon style="fill:#E6E6E6;" points="1974.661,965.565 1976.496,966.463 2001.337,966.423 2008.064,982.9 2005.445,962.521 		
			"/>
		<path style="fill:#F2B694;" d="M1842.598,1176.753l5.284-4.728l5.563,3.059l3.616,4.45l-1.669,3.059
			C1855.392,1182.594,1837.313,1180.369,1842.598,1176.753z"/>
	</g>
	<g>
		
			<ellipse transform="matrix(0.7071 -0.7071 0.7071 0.7071 -235.0567 1585.0846)" style="fill:#ED1C24;" cx="1795.838" cy="1076.281" rx="142.66" ry="142.66"/>
		
			<ellipse transform="matrix(0.7071 -0.7071 0.7071 0.7071 -235.0567 1585.0847)" style="fill:#FFFFFF;" cx="1795.838" cy="1076.281" rx="127.66" ry="127.66"/>
		<polygon style="fill:#ED1C24;" points="1705.987,1073.443 1738.769,1118.311 1847.647,994.995 1887.094,1049.6 1738.769,1151.891 
			1681.177,1105.719 		"/>
	</g>
	<g>
		<path style="fill:#F2B694;" d="M1888.984,1182.687l-10.299,8.261l-10.659,1.004l-2.105-8.098l10.228-2.66
			c0,0-8.56-2.822,7.88-5.271L1888.984,1182.687z"/>
		<polygon style="fill:#F2B694;" points="1886.926,1174.773 1884.028,1175.924 1888.984,1182.687 1892.971,1180.217 		"/>
	</g>
	<path style="fill:#FF4949;" d="M2043.078,1063.97c6.483-9.621,14.555-18.763,26.246-19.777c6.92-0.601,12.255,5.494,16.626,9.922
		c19.994,20.258-25.386,73.373-50.759,99.948c-7.999,8.377-16.043,10.644-37.643,15.47l-106.126,11.833l-7.405-12.958
		c25.916-4.936,116.442-37.012,121.664-45.277c10.049-15.905,20.099-31.81,30.148-47.716
		C2038.074,1071.863,2040.445,1067.877,2043.078,1063.97z"/>
</g>
<g>
	<g>
		<polygon style="fill:#FFFFFF;" points="669.519,618.665 998.809,619.956 996.568,1190.999 584.623,1189.383 586.583,689.365 		"/>
		<path style="fill:#3660A1;" d="M1006.067,1192.232l-423.072-1.658l1.993-508.137l86.45-73.695l336.911,1.321L1006.067,1192.232z
			 M594.166,1179.49l400.817,1.572l2.196-559.916l-321.662-1.261l-79.422,67.706L594.166,1179.49z"/>
		<polygon style="fill:#3660A1;" points="673.477,614.314 673.176,691.021 590.541,685.014 		"/>
		
			<rect x="640.769" y="874.811" transform="matrix(1 0.0039 -0.0039 1 3.4764 -3.1153)" style="fill:#CAD8ED;" width="310.429" height="19.887"/>
		
			<rect x="640.596" y="918.845" transform="matrix(1 0.0039 -0.0039 1 3.6491 -3.1143)" style="fill:#CAD8ED;" width="310.429" height="19.888"/>
		
			<rect x="640.424" y="962.882" transform="matrix(1 0.0039 -0.0039 1 3.8234 -3.1145)" style="fill:#CAD8ED;" width="310.428" height="19.887"/>
		
			<rect x="640.251" y="1006.917" transform="matrix(1 0.0039 -0.0039 1 3.9929 -3.111)" style="fill:#CAD8ED;" width="310.429" height="19.887"/>
		
			<rect x="640.078" y="1050.953" transform="matrix(1 0.0039 -0.0039 1 4.1697 -3.113)" style="fill:#CAD8ED;" width="310.429" height="19.887"/>
		
			<rect x="827.441" y="1095.356" transform="matrix(1 0.0039 -0.0039 1 4.3237 -3.4732)" style="fill:#CAD8ED;" width="122.905" height="13.573"/>
		<path style="fill:#3660A1;" d="M851.92,816.655l0.012-3.024c0.122-31.383-25.219-56.924-56.601-57.047l0,0
			c-31.383-0.123-56.923,25.218-57.047,56.601l-0.011,3.023L851.92,816.655z"/>
		<path style="fill:#EBECF2;" d="M832.612,716.223c-0.069,17.781-17.897,41.637-35.678,41.567
			c-17.783-0.069-32.118-20.436-32.048-38.219c0.07-17.781,14.541-32.14,32.323-32.071
			C814.99,687.571,832.682,698.441,832.612,716.223z"/>
		<path style="fill:#EBECF2;" d="M796.758,779.32L796.758,779.32c-8.788-0.034-15.883-7.186-15.848-15.974l0.09-22.981l31.822,0.125
			l-0.09,22.982C812.696,772.258,805.545,779.354,796.758,779.32z"/>
		<path style="fill:#3660A1;" d="M818.086,704.257c0,0-36.085,28.255-52.425,21.447c-16.34-6.809-2.383-57.191,51.745-42.213
			c0,0,28.936,15.489,13.617,42.383C831.022,725.875,813.661,720.257,818.086,704.257z"/>
		<path style="fill:#EBECF2;" d="M767.958,729.109c0,0-2.808-6.383-5.106-2.809c-2.298,3.575,2.298,17.872,8.936,13.787
			L767.958,729.109z"/>
		<path style="fill:#EBECF2;" d="M823.81,735.553c0,0-2.658,6.447,1.511,5.628c4.17-0.819,11.299-14.037,3.754-15.995
			L823.81,735.553z"/>
		<polygon style="fill:#AEC5D5;" points="858.404,612.319 893.638,1165.34 587.766,1166.872 		"/>
		<polygon style="fill:#FFFFFF;" points="519.392,577.272 848.681,578.563 846.441,1147.605 434.495,1145.989 436.456,647.971 		"/>
		<path style="fill:#3660A1;" d="M855.939,1149.339l-423.072-1.658l1.993-508.137l86.45-73.695l336.911,1.321L855.939,1149.339z
			 M444.039,1136.596l400.817,1.572l2.196-559.916l-321.662-1.261l-79.422,67.706L444.039,1136.596z"/>
		<polygon style="fill:#3660A1;" points="523.349,571.42 523.048,648.127 440.413,642.12 		"/>
		
			<rect x="490.641" y="831.917" transform="matrix(1 0.0039 -0.0039 1 3.307 -2.5268)" style="fill:#CAD8ED;" width="310.429" height="19.887"/>
		
			<rect x="490.468" y="875.952" transform="matrix(1 0.0039 -0.0039 1 3.4797 -2.5258)" style="fill:#CAD8ED;" width="310.429" height="19.888"/>
		
			<rect x="490.296" y="919.988" transform="matrix(1 0.0039 -0.0039 1 3.654 -2.5258)" style="fill:#CAD8ED;" width="310.428" height="19.887"/>
		
			<rect x="490.123" y="964.023" transform="matrix(1 0.0039 -0.0039 1 3.8233 -2.5225)" style="fill:#CAD8ED;" width="310.429" height="19.887"/>
		
			<rect x="489.95" y="1008.059" transform="matrix(1 0.0039 -0.0039 1 4.0002 -2.5242)" style="fill:#CAD8ED;" width="310.429" height="19.887"/>
		
			<rect x="677.313" y="1052.463" transform="matrix(1 0.0039 -0.0039 1 4.1554 -2.8861)" style="fill:#CAD8ED;" width="122.905" height="13.573"/>
		<path style="fill:#3660A1;" d="M701.793,773.761l0.012-3.024c0.122-31.383-25.219-56.924-56.601-57.047l0,0
			c-31.383-0.123-56.924,25.218-57.047,56.601l-0.011,3.023L701.793,773.761z"/>
		<path style="fill:#EBECF2;" d="M682.484,673.33c-0.07,17.781-17.897,41.637-35.678,41.567
			c-17.783-0.069-32.118-20.436-32.048-38.218c0.07-17.781,14.541-32.14,32.323-32.071
			C664.863,644.677,682.554,655.547,682.484,673.33z"/>
		<path style="fill:#EBECF2;" d="M646.63,736.426L646.63,736.426c-8.788-0.034-15.883-7.186-15.848-15.974l0.09-22.981l31.822,0.125
			l-0.09,22.982C662.568,729.365,655.417,736.461,646.63,736.426z"/>
		<path style="fill:#3660A1;" d="M667.958,661.364c0,0-36.085,28.255-52.426,21.447c-16.34-6.809-2.383-57.192,51.745-42.213
			c0,0,28.936,15.489,13.617,42.383C680.895,682.981,663.533,677.364,667.958,661.364z"/>
		<path style="fill:#EBECF2;" d="M617.831,686.215c0,0-2.809-6.383-5.106-2.809c-2.298,3.575,2.298,17.872,8.936,13.787
			L617.831,686.215z"/>
		<path style="fill:#EBECF2;" d="M673.682,692.659c0,0-2.658,6.447,1.511,5.628c4.17-0.819,11.299-14.037,3.754-15.995
			L673.682,692.659z"/>
	</g>
	<polygon style="fill:#ED1C24;" points="690.878,1000.857 711.219,1028.698 778.779,952.18 803.255,986.062 711.219,1049.535 
		675.483,1020.885 	"/>
</g>
<g>
	<g>
		<polygon style="fill:#B2151B;" points="956.141,1102.946 1022.414,1131.505 1110.053,1112.516 1110.66,1128.064 1007.662,1176.84 
			958.377,1160.272 		"/>
		<path style="fill:#0D3B7F;" d="M991.953,1739.7l16.012,8.553l20.426-2.751c0,0,3.003,11.542-7.007,12.89
			c-10.008,1.347-37.824,0.971-37.824,0.971l-14.176,0.722l3.812-9.894l2.075-8.245L991.953,1739.7z"/>
		<path style="fill:#0D3B7F;" d="M895.528,1736.487l16.009,8.765l20.426-2.833c0,0,2.997,11.838-7.014,13.225
			c-10.009,1.387-37.825,1.016-37.825,1.016l-14.175,0.747l3.817-10.151l2.078-8.455L895.528,1736.487z"/>
		<g>
			<path style="fill:#F4996F;" d="M885.612,956.826l28.932,16.309l18.477,6.705l-2.607,7.185c0,0,15.222,25.273-11.177,30.794
				l-1.39,13.434l8.392,23.934l-35.991,0.9l-14.371-5.215l6.052-19.876C881.927,1030.995,875.828,974.183,885.612,956.826z"/>
			<path style="fill:#002868;" d="M895.877,960.55c0,0-14.24,7.476-14.817,13.875c-0.574,6.397,23.036,22.797,23.036,22.797
				l-1.863,5.131l-17.995-6.529c0,0-7.874,8.755-0.387,13.799l8.231,2.985l-10.155,18.387l-38.178-32.443l1.015-18.798
				C844.765,979.754,887.657,923.879,895.877,960.55z"/>
			<path style="fill:#DE8B65;" d="M919.236,1017.818l-13.91,0.535l-25.183-30.273c0,0-8.39,10.716,9.489,28.968l-4.648,8.414
				l-3.057,5.533l17.45,6.333l18.428-4.591L919.236,1017.818z"/>
			<path style="fill:#5B628C;" d="M913.141,972.213c0,0-4.708-1.978-4.943,4.568l-2.34,5.069
				C905.858,981.849,916.399,974.613,913.141,972.213z"/>
		</g>
		<path style="fill:#0D3B7F;" d="M866.732,1322.457l3.523,208.701c0,0-38.052,74.844,8.576,216.63l18.302-2.231l50.149-332.043
			C947.281,1413.515,914.137,1299.962,866.732,1322.457z"/>
		<path style="fill:#ED1C24;" d="M992.225,1118.404l10.609,106.437l32.532,129.76L858.482,1332.7l0.026-117.335l-17.553-81.182
			c-3.345-8.702-12.231-47.513-5.767-54.232l19.485-21.723l18.302-14.306l48.98,3.239l15.808,7.251l21.614,18.462
			c7.293,4.027,16.396,17.044,18.012,25.216L992.225,1118.404z"/>
		<path style="fill:#0F4391;" d="M1015.159,1333.284l-9.456,205.75l-14.722,208.186l-18.299,2.165
			c0,0-44.565-115.333-24.171-219.157l-26.108-125.123c0,0-22.732-46.252-24.92-66.637
			C897.481,1338.468,929.292,1323.887,1015.159,1333.284z"/>
		<polygon style="fill:#E6E6E6;" points="1015.869,1351.591 897.53,1336.113 881.054,1249.714 889.656,1338.558 1013.128,1358.054 
					"/>
		<polygon style="fill:#EDF6FB;" points="881.927,1030.995 921.954,1036.711 933.729,1053.027 877.423,1046.225 		"/>
		<path style="fill:#F14950;" d="M881.685,1219.081l-40.804-103.215c-4.649-11.761-2.575-25.117,5.422-34.913l11.125-13.628
			l-12.428,33.646l36.577,123.323"/>
		<polygon style="fill:#ED1C24;" points="996.022,1239.043 1016.057,1342.467 1015.869,1351.591 1035.366,1354.601 
			1009.901,1261.496 		"/>
		<polygon style="fill:#E6E6E6;" points="928.185,1369.365 991.502,1368.137 987.837,1361.733 923.228,1364.2 		"/>
		<g>
			<g>
				<path style="fill:#3A5AA7;" d="M1107.25,1147.66l-0.134-0.025c-3.658-0.674-6.229-3.361-5.743-6l15.833-85.912l13.381,2.466
					l-15.833,85.912C1114.268,1146.741,1110.908,1148.334,1107.25,1147.66z"/>
			</g>
			<g>
				<path style="fill:#2D4682;" d="M1130.719,1061.522l-14.41-2.656c-0.949-0.175-1.577-1.086-1.402-2.036l0.745-4.044
					c0.175-0.949,1.086-1.577,2.036-1.402l14.41,2.656c0.949,0.175,1.577,1.086,1.402,2.036l-0.745,4.044
					C1132.58,1061.07,1131.669,1061.697,1130.719,1061.522z"/>
			</g>
			<g>
				<path style="fill:#2D4682;" d="M1127.742,1064.939l-9.868-1.819c-0.65-0.12-1.08-0.744-0.96-1.394l0.51-2.769
					c0.12-0.65,0.744-1.08,1.394-0.96l9.869,1.819c0.65,0.12,1.08,0.744,0.96,1.394l-0.51,2.769
					C1129.016,1064.629,1128.392,1065.059,1127.742,1064.939z"/>
			</g>
			<g>
				<g style="opacity:0.17;">
					<path style="fill:#FFFFFF;" d="M1144.545,923.65c-17.214-3.172-34.042,1.804-46.518,12.193
						c9.935-4.286,21.204-5.778,32.643-3.669c30.754,5.668,51.09,35.193,45.422,65.947c-2.495,13.54-9.617,25.058-19.429,33.23
						c16.774-7.236,29.745-22.439,33.304-41.753C1195.635,958.843,1175.299,929.318,1144.545,923.65z"/>
				</g>
				<g style="opacity:0.18;">
					
						<ellipse transform="matrix(0.8717 -0.49 0.49 0.8717 -333.3865 680.3741)" style="fill:#FFFFFF;" cx="1132.776" cy="976.933" rx="72.373" ry="72.372"/>
				</g>
				<g>
					<g>
						<path style="fill:#3A5AA7;" d="M1121.834,1053.719c-41.443-7.638-68.945-47.567-61.307-89.01
							c7.638-41.443,47.568-68.945,89.01-61.307c41.443,7.638,68.945,47.567,61.307,89.01
							C1203.207,1033.854,1163.277,1061.357,1121.834,1053.719z M1147.59,913.968c-35.617-6.564-69.933,17.072-76.497,52.689
							c-6.564,35.616,17.072,69.933,52.689,76.497c35.617,6.564,69.933-17.072,76.497-52.689
							C1206.843,954.848,1183.207,920.532,1147.59,913.968z"/>
					</g>
				</g>
			</g>
		</g>
		<polygon style="fill:#E6E6E6;" points="925.908,1131.901 985.913,1161.044 1004.192,1238.464 995.445,1150.714 		"/>
		<polygon style="fill:#ED1C24;" points="897.481,1338.468 1015.869,1351.591 1019.338,1322.383 971.129,1314.67 907.494,1314.027 
					"/>
		<polygon style="fill:#F4996F;" points="1099.863,1091.515 1110.229,1087.891 1115.601,1080.182 1126.06,1082.676 
			1125.785,1096.031 1104.701,1101.05 		"/>
		<path style="fill:#F14950;" d="M912.452,1052.977l94.655,62.675l98.164-26.567l7.205,17.111l-91.843,54.474
			c-4.568,2.518-9.935,3.164-14.97,1.801l-122.983-33.272C882.68,1129.199,843.077,1070.774,912.452,1052.977z"/>
		<polygon style="fill:#F4996F;" points="1120.581,1112.725 1118.33,1110.923 1115.853,1115.201 1116.529,1124.882 
			1118.33,1126.458 1125.084,1124.207 1123.958,1112.95 		"/>
	</g>
	<polygon style="fill:#E6E6E6;" points="882.68,1129.199 992.717,1158.851 993.547,1172.135 994.377,1193.723 979.432,1168.814 	"/>
</g>
</svg>
